<svg width="166" height="15" viewBox="0 0 166 15" fill="none" xmlns="http://www.w3.org/2000/svg">
<path d="M10.1484 0.375C11.2422 0.4375 12.1406 0.859375 12.8438 1.64062C13.5469 2.40625 14.0547 3.28125 14.3672 4.26562C14.6797 5.25 14.8359 6.25781 14.8359 7.28906C14.8359 8.32031 14.6797 9.32812 14.3672 10.3125C14.0703 11.2969 13.5625 12.1797 12.8438 12.9609C12.1406 13.7266 11.2422 14.1406 10.1484 14.2031H1.52344C1.10156 14.1875 0.742188 14.0391 0.445312 13.7578C0.164062 13.4609 0.015625 13.1016 0 12.6797V6.86719C0.015625 6.42969 0.179688 6.07031 0.492188 5.78906C0.804688 5.49219 1.17969 5.34375 1.61719 5.34375C2.03906 5.35938 2.39844 5.51562 2.69531 5.8125C2.99219 6.09375 3.14844 6.44531 3.16406 6.86719V10.4297C3.16406 10.8516 3.38281 11.0625 3.82031 11.0625H9.35156C9.94531 11.0312 10.4375 10.8047 10.8281 10.3828C11.2188 9.96094 11.5 9.48438 11.6719 8.95312C11.8594 8.40625 11.9531 7.85156 11.9531 7.28906C11.9531 6.72656 11.8594 6.17969 11.6719 5.64844C11.5 5.10156 11.2188 4.61719 10.8281 4.19531C10.4375 3.77344 9.94531 3.54688 9.35156 3.51562H1.52344C0.585938 3.4375 0.078125 2.92969 0 1.99219C0 1.55469 0.140625 1.17969 0.421875 0.867188C0.71875 0.554687 1.08594 0.390625 1.52344 0.375H10.1484ZM22.2422 14.2031C20.8672 14.1562 19.8281 13.8359 19.125 13.2422C18.4219 12.6328 17.9141 11.9531 17.6016 11.2031C17.2891 10.4375 17.1328 9.66406 17.1328 8.88281C17.1328 8.07031 17.2812 7.28906 17.5781 6.53906C17.8906 5.77344 18.3984 5.09375 19.1016 4.5C19.8203 3.89062 20.7266 3.57812 21.8203 3.5625H29.4141C30.5078 3.57812 31.4062 3.89062 32.1094 4.5C32.8281 5.09375 33.3359 5.77344 33.6328 6.53906C33.9453 7.28906 34.1016 8.07031 34.1016 8.88281C34.1016 9.66406 33.9453 10.4375 33.6328 11.2031C33.3203 11.9531 32.8125 12.6328 32.1094 13.2422C31.4062 13.8359 30.3672 14.1562 28.9922 14.2031H22.2422ZM21.7266 6.70312C21.4297 6.70312 21.1719 6.82812 20.9531 7.07812C20.7344 7.3125 20.5703 7.59375 20.4609 7.92188C20.3672 8.23438 20.3203 8.54688 20.3203 8.85938C20.3203 9.1875 20.3672 9.51562 20.4609 9.84375C20.5703 10.1562 20.7344 10.4375 20.9531 10.6875C21.1719 10.9219 21.4297 11.0469 21.7266 11.0625H29.5078C29.8047 11.0469 30.0625 10.9219 30.2812 10.6875C30.5 10.4375 30.6562 10.1562 30.75 9.84375C30.8594 9.51562 30.9141 9.1875 30.9141 8.85938C30.9141 8.54688 30.8594 8.23438 30.75 7.92188C30.6562 7.59375 30.5 7.3125 30.2812 7.07812C30.0625 6.82812 29.8047 6.70312 29.5078 6.70312H21.7266ZM41.5547 14.2031C40.1797 14.1562 39.1406 13.8359 38.4375 13.2422C37.7344 12.6328 37.2266 11.9531 36.9141 11.2031C36.6016 10.4375 36.4453 9.66406 36.4453 8.88281C36.4453 8.07031 36.5938 7.28906 36.8906 6.53906C37.2031 5.77344 37.7109 5.09375 38.4141 4.5C39.1328 3.89062 40.0391 3.57812 41.1328 3.5625H50.0391C50.4766 3.5625 50.8438 3.71875 51.1406 4.03125C51.4531 4.32812 51.6094 4.69531 51.6094 5.13281C51.6094 5.57031 51.4531 5.94531 51.1406 6.25781C50.8438 6.55469 50.4766 6.70312 50.0391 6.70312H41.0391C40.7422 6.70312 40.4844 6.82812 40.2656 7.07812C40.0469 7.3125 39.8828 7.59375 39.7734 7.92188C39.6797 8.23438 39.6328 8.54688 39.6328 8.85938C39.6328 9.1875 39.6797 9.51562 39.7734 9.84375C39.8828 10.1562 40.0469 10.4375 40.2656 10.6875C40.4844 10.9219 40.7422 11.0469 41.0391 11.0625H50.0391C50.4766 11.0625 50.8438 11.2188 51.1406 11.5312C51.4531 11.8281 51.6094 12.1953 51.6094 12.6328C51.6094 13.0703 51.4531 13.4375 51.1406 13.7344C50.8438 14.0469 50.4766 14.2031 50.0391 14.2031H41.5547Z" fill="#018FFF"/>
<path d="M59.4141 3.51562C58.8203 3.54688 58.3203 3.77344 57.9141 4.19531C57.5234 4.61719 57.2422 5.10156 57.0703 5.64844C56.8984 6.17969 56.8125 6.72656 56.8125 7.28906C56.8125 7.85156 56.8906 8.40625 57.0469 8.95312C57.2188 9.5 57.5078 9.98438 57.9141 10.4062C58.3203 10.8125 58.8203 11.0312 59.4141 11.0625H67.1484C68.1328 11.1562 68.6719 11.6953 68.7656 12.6797C68.75 13.1172 68.5859 13.4844 68.2734 13.7812C67.9609 14.0625 67.5859 14.2031 67.1484 14.2031H59.6719H58.5938C57.5 14.1406 56.6016 13.7266 55.8984 12.9609C55.1953 12.1797 54.6875 11.2969 54.375 10.3125C54.0781 9.32812 53.9297 8.32031 53.9297 7.28906C53.9297 6.52344 54.0156 5.76562 54.1875 5.01562C54.3594 4.26562 54.625 3.55469 54.9844 2.88281C55.3594 2.19531 55.8516 1.60938 56.4609 1.125C57.0859 0.640625 57.7969 0.390625 58.5938 0.375H59.0391H67.1484C68.1328 0.46875 68.6719 1.00781 68.7656 1.99219C68.7656 2.42969 68.6016 2.79688 68.2734 3.09375C67.9609 3.375 67.5859 3.51562 67.1484 3.51562H59.4141ZM72.5391 0C72.9609 0.015625 73.3203 0.171875 73.6172 0.46875C73.9141 0.75 74.0703 1.10156 74.0859 1.52344V13.0078C73.9922 13.9453 73.4766 14.4531 72.5391 14.5312C72.1016 14.5312 71.7188 14.3906 71.3906 14.1094C71.0781 13.8125 70.9219 13.4453 70.9219 13.0078V1.52344C70.9375 1.08594 71.1016 0.726562 71.4141 0.445312C71.7266 0.148438 72.1016 0 72.5391 0ZM84.5391 14.6016C83.7266 14.6016 82.9219 14.5078 82.125 14.3203C81.3438 14.1328 80.5938 13.8594 79.875 13.5C79.1562 13.125 78.5234 12.6328 77.9766 12.0234C77.4297 11.4141 77.1328 10.6875 77.0859 9.84375V8.85938V4.85156C77.0859 4.41406 77.2422 4.05469 77.5547 3.77344C77.8828 3.47656 78.2656 3.32812 78.7031 3.32812C79.6406 3.40625 80.1484 3.91406 80.2266 4.85156V5.88281V9.11719C80.2578 9.60156 80.4375 10.0078 80.7656 10.3359C81.1094 10.6484 81.4844 10.8984 81.8906 11.0859C82.3125 11.2734 82.7422 11.4141 83.1797 11.5078C83.6328 11.6016 84.0859 11.6484 84.5391 11.6484C84.9922 11.6484 85.4375 11.6016 85.875 11.5078C86.3281 11.4141 86.7578 11.2734 87.1641 11.0859C87.5859 10.8984 87.9609 10.6484 88.2891 10.3359C88.6328 10.0078 88.8203 9.60156 88.8516 9.11719V5.88281V4.85156C88.8516 4.41406 89.0078 4.05469 89.3203 3.77344C89.6484 3.47656 90.0312 3.32812 90.4688 3.32812C91.4062 3.40625 91.9219 3.91406 92.0156 4.85156V8.85938V9.84375C91.9688 10.6875 91.6641 11.4141 91.1016 12.0234C90.5547 12.6328 89.9219 13.125 89.2031 13.5C88.4844 13.8594 87.7266 14.1328 86.9297 14.3203C86.1484 14.5078 85.3516 14.6016 84.5391 14.6016ZM109.898 4.92188C109.898 5.3125 109.742 5.64062 109.43 5.90625C109.133 6.15625 108.766 6.28125 108.328 6.28125H98.4141C98.2109 6.28125 98.0469 6.32031 97.9219 6.39844C97.7969 6.47656 97.7031 6.5625 97.6406 6.65625C97.5781 6.73438 97.5469 6.80469 97.5469 6.86719C97.5469 6.94531 97.5781 7.03125 97.6406 7.125C97.7031 7.20312 97.7969 7.28125 97.9219 7.35938C98.0469 7.42188 98.2109 7.46094 98.4141 7.47656H106.078C107.062 7.49219 107.875 7.6875 108.516 8.0625C109.156 8.42188 109.609 8.85156 109.875 9.35156C110.156 9.83594 110.297 10.3281 110.297 10.8281C110.297 11.3125 110.156 11.8047 109.875 12.3047C109.594 12.7891 109.133 13.2188 108.492 13.5938C107.867 13.9531 107.062 14.1328 106.078 14.1328C105.906 14.1484 105.781 14.1562 105.703 14.1562H96.6094C96.1719 14.1562 95.7969 14.0312 95.4844 13.7812C95.1875 13.5156 95.0391 13.1953 95.0391 12.8203C95.0391 12.4297 95.1953 12.1016 95.5078 11.8359C95.8047 11.5859 96.1719 11.4609 96.6094 11.4609H106.266C106.5 11.4766 106.688 11.4453 106.828 11.3672C106.984 11.2891 107.102 11.2031 107.18 11.1094C107.258 11.0156 107.297 10.9219 107.297 10.8281C107.297 10.7812 107.258 10.7031 107.18 10.5938C107.102 10.4688 106.984 10.375 106.828 10.3125C106.688 10.2344 106.5 10.1875 106.266 10.1719H98.5781C97.6719 10.1562 96.9219 9.96875 96.3281 9.60938C95.7344 9.23438 95.3125 8.80469 95.0625 8.32031C94.8125 7.83594 94.6875 7.35156 94.6875 6.86719C94.6875 6.38281 94.8125 5.90625 95.0625 5.4375C95.3281 4.95312 95.75 4.53906 96.3281 4.19531C96.9219 3.83594 97.6719 3.64062 98.5781 3.60938C98.7344 3.59375 98.8516 3.58594 98.9297 3.58594H108.328C108.766 3.58594 109.133 3.71875 109.43 3.98438C109.742 4.23438 109.898 4.54688 109.898 4.92188ZM117.984 0C118.422 0 118.797 0.148438 119.109 0.445312C119.422 0.726562 119.586 1.08594 119.602 1.52344V3.5625H127.57C128.008 3.5625 128.383 3.71094 128.695 4.00781C128.992 4.32031 129.141 4.69531 129.141 5.13281C129.141 5.57031 128.984 5.94531 128.672 6.25781C128.375 6.55469 128.008 6.70312 127.57 6.70312H119.602V7.17188C119.586 7.8125 119.625 8.40625 119.719 8.95312C119.828 9.48438 120.078 9.96094 120.469 10.3828C120.859 10.8047 121.352 11.0312 121.945 11.0625H127.664C128.102 11.0781 128.461 11.2422 128.742 11.5547C129.039 11.8672 129.188 12.2422 129.188 12.6797C129.172 13.1016 129.016 13.4609 128.719 13.7578C128.438 14.0391 128.086 14.1875 127.664 14.2031H121.148C120.055 14.1406 119.148 13.7734 118.43 13.1016C117.727 12.4141 117.219 11.5781 116.906 10.5938C116.609 9.60938 116.453 8.5625 116.438 7.45312V6.70312H113.742C113.305 6.70312 112.938 6.54688 112.641 6.23438C112.328 5.9375 112.172 5.57031 112.172 5.13281C112.172 4.69531 112.32 4.32812 112.617 4.03125C112.93 3.71875 113.305 3.5625 113.742 3.5625H116.438V1.52344C116.453 1.10156 116.609 0.75 116.906 0.46875C117.203 0.171875 117.562 0.015625 117.984 0ZM136.289 14.2031C134.914 14.1562 133.875 13.8359 133.172 13.2422C132.469 12.6328 131.961 11.9531 131.648 11.2031C131.336 10.4375 131.18 9.66406 131.18 8.88281C131.18 8.07031 131.328 7.28906 131.625 6.53906C131.938 5.77344 132.445 5.09375 133.148 4.5C133.867 3.89062 134.773 3.57812 135.867 3.5625H143.461C144.555 3.57812 145.453 3.89062 146.156 4.5C146.875 5.09375 147.383 5.77344 147.68 6.53906C147.992 7.28906 148.148 8.07031 148.148 8.88281C148.148 9.66406 147.992 10.4375 147.68 11.2031C147.367 11.9531 146.859 12.6328 146.156 13.2422C145.453 13.8359 144.414 14.1562 143.039 14.2031H136.289ZM135.773 6.70312C135.477 6.70312 135.219 6.82812 135 7.07812C134.781 7.3125 134.617 7.59375 134.508 7.92188C134.414 8.23438 134.367 8.54688 134.367 8.85938C134.367 9.1875 134.414 9.51562 134.508 9.84375C134.617 10.1562 134.781 10.4375 135 10.6875C135.219 10.9219 135.477 11.0469 135.773 11.0625H143.555C143.852 11.0469 144.109 10.9219 144.328 10.6875C144.547 10.4375 144.703 10.1562 144.797 9.84375C144.906 9.51562 144.961 9.1875 144.961 8.85938C144.961 8.54688 144.906 8.23438 144.797 7.92188C144.703 7.59375 144.547 7.3125 144.328 7.07812C144.109 6.82812 143.852 6.70312 143.555 6.70312H135.773ZM151.336 6.51562C151.633 5.76562 152.133 5.09375 152.836 4.5C153.555 3.89062 154.461 3.57812 155.555 3.5625H164.367C164.805 3.5625 165.172 3.71875 165.469 4.03125C165.781 4.32812 165.938 4.69531 165.938 5.13281C165.938 5.57031 165.781 5.94531 165.469 6.25781C165.172 6.55469 164.805 6.70312 164.367 6.70312H155.461C155.164 6.70312 154.906 6.82812 154.688 7.07812C154.469 7.3125 154.297 7.59375 154.172 7.92188C154.062 8.25 154.008 8.5625 154.008 8.85938V12.9609C153.914 13.8984 153.398 14.4062 152.461 14.4844C152.023 14.4844 151.641 14.3438 151.312 14.0625C151 13.7656 150.844 13.3984 150.844 12.9609V8.88281H150.867C150.867 8.07031 151.023 7.28125 151.336 6.51562Z" fill="black"/>
</svg>
