<svg width="628" height="1025" viewBox="0 0 628 1025" fill="none" xmlns="http://www.w3.org/2000/svg">
<rect width="628" height="1025" fill="#003259"/>
<path d="M246.125 199.664C248.472 199.664 250.531 200.123 252.301 201.04C254.093 201.957 255.469 203.269 256.429 204.976C257.411 206.661 257.901 208.624 257.901 210.864C257.901 213.104 257.411 215.067 256.429 216.752C255.469 218.416 254.093 219.707 252.301 220.624C250.531 221.541 248.472 222 246.125 222H238.317V199.664H246.125ZM245.965 218.192C248.312 218.192 250.125 217.552 251.405 216.272C252.685 214.992 253.325 213.189 253.325 210.864C253.325 208.539 252.685 206.725 251.405 205.424C250.125 204.101 248.312 203.44 245.965 203.44H242.797V218.192H245.965ZM269.127 222.288C267.42 222.288 265.884 221.915 264.519 221.168C263.154 220.4 262.076 219.323 261.287 217.936C260.519 216.549 260.135 214.949 260.135 213.136C260.135 211.323 260.53 209.723 261.319 208.336C262.13 206.949 263.228 205.883 264.615 205.136C266.002 204.368 267.548 203.984 269.255 203.984C270.962 203.984 272.508 204.368 273.895 205.136C275.282 205.883 276.37 206.949 277.159 208.336C277.97 209.723 278.375 211.323 278.375 213.136C278.375 214.949 277.959 216.549 277.127 217.936C276.316 219.323 275.207 220.4 273.799 221.168C272.412 221.915 270.855 222.288 269.127 222.288ZM269.127 218.384C269.938 218.384 270.695 218.192 271.399 217.808C272.124 217.403 272.7 216.805 273.127 216.016C273.554 215.227 273.767 214.267 273.767 213.136C273.767 211.451 273.319 210.16 272.423 209.264C271.548 208.347 270.471 207.888 269.191 207.888C267.911 207.888 266.834 208.347 265.959 209.264C265.106 210.16 264.679 211.451 264.679 213.136C264.679 214.821 265.095 216.123 265.927 217.04C266.78 217.936 267.847 218.384 269.127 218.384ZM291.485 204.016C293.597 204.016 295.304 204.688 296.605 206.032C297.906 207.355 298.557 209.211 298.557 211.6V222H294.077V212.208C294.077 210.8 293.725 209.723 293.021 208.976C292.317 208.208 291.357 207.824 290.141 207.824C288.904 207.824 287.922 208.208 287.197 208.976C286.493 209.723 286.141 210.8 286.141 212.208V222H281.661V204.272H286.141V206.48C286.738 205.712 287.496 205.115 288.413 204.688C289.352 204.24 290.376 204.016 291.485 204.016ZM303.713 199.664H308.417L304.961 207.728H301.889L303.713 199.664ZM316.846 207.952V216.528C316.846 217.125 316.985 217.563 317.262 217.84C317.561 218.096 318.051 218.224 318.734 218.224H320.814V222H317.998C314.222 222 312.334 220.165 312.334 216.496V207.952H310.222V204.272H312.334V199.888H316.846V204.272H320.814V207.952H316.846ZM361.517 199.664L355.277 222H349.997L345.805 206.096L341.421 222L336.173 222.032L330.157 199.664H334.957L338.893 217.008L343.437 199.664H348.429L352.717 216.912L356.685 199.664H361.517ZM372.314 222.288C370.608 222.288 369.072 221.915 367.706 221.168C366.341 220.4 365.264 219.323 364.474 217.936C363.706 216.549 363.322 214.949 363.322 213.136C363.322 211.323 363.717 209.723 364.506 208.336C365.317 206.949 366.416 205.883 367.802 205.136C369.189 204.368 370.736 203.984 372.442 203.984C374.149 203.984 375.696 204.368 377.082 205.136C378.469 205.883 379.557 206.949 380.346 208.336C381.157 209.723 381.562 211.323 381.562 213.136C381.562 214.949 381.146 216.549 380.314 217.936C379.504 219.323 378.394 220.4 376.986 221.168C375.6 221.915 374.042 222.288 372.314 222.288ZM372.314 218.384C373.125 218.384 373.882 218.192 374.586 217.808C375.312 217.403 375.888 216.805 376.314 216.016C376.741 215.227 376.954 214.267 376.954 213.136C376.954 211.451 376.506 210.16 375.61 209.264C374.736 208.347 373.658 207.888 372.378 207.888C371.098 207.888 370.021 208.347 369.146 209.264C368.293 210.16 367.866 211.451 367.866 213.136C367.866 214.821 368.282 216.123 369.114 217.04C369.968 217.936 371.034 218.384 372.314 218.384ZM389.329 207.024C389.905 206.085 390.651 205.349 391.569 204.816C392.507 204.283 393.574 204.016 394.769 204.016V208.72H393.585C392.177 208.72 391.11 209.051 390.385 209.712C389.681 210.373 389.329 211.525 389.329 213.168V222H384.849V204.272H389.329V207.024ZM402.266 207.024C402.842 206.085 403.589 205.349 404.506 204.816C405.445 204.283 406.511 204.016 407.706 204.016V208.72H406.522C405.114 208.72 404.047 209.051 403.322 209.712C402.618 210.373 402.266 211.525 402.266 213.168V222H397.786V204.272H402.266V207.024ZM427.684 204.272L416.708 230.384H411.94L415.78 221.552L408.676 204.272H413.7L418.276 216.656L422.916 204.272H427.684Z" fill="#BFBFBF"/>
<path d="M223.589 585.152V588.44H216.725V591.992H221.861V595.184H216.725V602H212.621V585.152H223.589ZM231.842 602.192C230.53 602.192 229.346 601.912 228.29 601.352C227.25 600.792 226.426 599.992 225.818 598.952C225.226 597.912 224.93 596.696 224.93 595.304C224.93 593.928 225.234 592.72 225.842 591.68C226.45 590.624 227.282 589.816 228.338 589.256C229.394 588.696 230.578 588.416 231.89 588.416C233.202 588.416 234.386 588.696 235.442 589.256C236.498 589.816 237.33 590.624 237.938 591.68C238.546 592.72 238.85 593.928 238.85 595.304C238.85 596.68 238.538 597.896 237.914 598.952C237.306 599.992 236.466 600.792 235.394 601.352C234.338 601.912 233.154 602.192 231.842 602.192ZM231.842 598.64C232.626 598.64 233.29 598.352 233.834 597.776C234.394 597.2 234.674 596.376 234.674 595.304C234.674 594.232 234.402 593.408 233.858 592.832C233.33 592.256 232.674 591.968 231.89 591.968C231.09 591.968 230.426 592.256 229.898 592.832C229.37 593.392 229.106 594.216 229.106 595.304C229.106 596.376 229.362 597.2 229.874 597.776C230.402 598.352 231.058 598.64 231.842 598.64ZM245.131 590.84C245.611 590.104 246.211 589.528 246.931 589.112C247.651 588.68 248.451 588.464 249.331 588.464V592.808H248.203C247.179 592.808 246.411 593.032 245.899 593.48C245.387 593.912 245.131 594.68 245.131 595.784V602H241.027V588.608H245.131V590.84ZM256.381 588.416C257.325 588.416 258.149 588.608 258.853 588.992C259.573 589.376 260.125 589.88 260.509 590.504V588.608H264.613V601.976C264.613 603.208 264.365 604.32 263.869 605.312C263.389 606.32 262.645 607.12 261.637 607.712C260.645 608.304 259.405 608.6 257.917 608.6C255.933 608.6 254.325 608.128 253.093 607.184C251.861 606.256 251.157 604.992 250.981 603.392H255.037C255.165 603.904 255.469 604.304 255.949 604.592C256.429 604.896 257.021 605.048 257.725 605.048C258.573 605.048 259.245 604.8 259.741 604.304C260.253 603.824 260.509 603.048 260.509 601.976V600.08C260.109 600.704 259.557 601.216 258.853 601.616C258.149 602 257.325 602.192 256.381 602.192C255.277 602.192 254.277 601.912 253.381 601.352C252.485 600.776 251.773 599.968 251.245 598.928C250.733 597.872 250.477 596.656 250.477 595.28C250.477 593.904 250.733 592.696 251.245 591.656C251.773 590.616 252.485 589.816 253.381 589.256C254.277 588.696 255.277 588.416 256.381 588.416ZM260.509 595.304C260.509 594.28 260.221 593.472 259.645 592.88C259.085 592.288 258.397 591.992 257.581 591.992C256.765 591.992 256.069 592.288 255.493 592.88C254.933 593.456 254.653 594.256 254.653 595.28C254.653 596.304 254.933 597.12 255.493 597.728C256.069 598.32 256.765 598.616 257.581 598.616C258.397 598.616 259.085 598.32 259.645 597.728C260.221 597.136 260.509 596.328 260.509 595.304ZM273.678 602.192C272.366 602.192 271.182 601.912 270.126 601.352C269.086 600.792 268.262 599.992 267.654 598.952C267.062 597.912 266.766 596.696 266.766 595.304C266.766 593.928 267.07 592.72 267.678 591.68C268.286 590.624 269.118 589.816 270.174 589.256C271.23 588.696 272.414 588.416 273.726 588.416C275.038 588.416 276.222 588.696 277.278 589.256C278.334 589.816 279.166 590.624 279.774 591.68C280.382 592.72 280.686 593.928 280.686 595.304C280.686 596.68 280.374 597.896 279.75 598.952C279.142 599.992 278.302 600.792 277.23 601.352C276.174 601.912 274.99 602.192 273.678 602.192ZM273.678 598.64C274.462 598.64 275.126 598.352 275.67 597.776C276.23 597.2 276.51 596.376 276.51 595.304C276.51 594.232 276.238 593.408 275.694 592.832C275.166 592.256 274.51 591.968 273.726 591.968C272.926 591.968 272.262 592.256 271.734 592.832C271.206 593.392 270.942 594.216 270.942 595.304C270.942 596.376 271.198 597.2 271.71 597.776C272.238 598.352 272.894 598.64 273.678 598.64ZM290.327 598.52V602H288.239C286.751 602 285.591 601.64 284.759 600.92C283.927 600.184 283.511 598.992 283.511 597.344V592.016H281.879V588.608H283.511V585.344H287.615V588.608H290.303V592.016H287.615V597.392C287.615 597.792 287.711 598.08 287.903 598.256C288.095 598.432 288.415 598.52 288.863 598.52H290.327ZM310.539 590.576C310.539 591.552 310.315 592.448 309.867 593.264C309.419 594.064 308.731 594.712 307.803 595.208C306.875 595.704 305.723 595.952 304.347 595.952H301.803V602H297.699V585.152H304.347C305.691 585.152 306.827 585.384 307.755 585.848C308.683 586.312 309.379 586.952 309.843 587.768C310.307 588.584 310.539 589.52 310.539 590.576ZM304.035 592.688C304.819 592.688 305.403 592.504 305.787 592.136C306.171 591.768 306.363 591.248 306.363 590.576C306.363 589.904 306.171 589.384 305.787 589.016C305.403 588.648 304.819 588.464 304.035 588.464H301.803V592.688H304.035ZM311.86 595.28C311.86 593.904 312.116 592.696 312.628 591.656C313.156 590.616 313.868 589.816 314.764 589.256C315.66 588.696 316.66 588.416 317.764 588.416C318.708 588.416 319.532 588.608 320.236 588.992C320.956 589.376 321.508 589.88 321.892 590.504V588.608H325.996V602H321.892V600.104C321.492 600.728 320.932 601.232 320.212 601.616C319.508 602 318.684 602.192 317.74 602.192C316.652 602.192 315.66 601.912 314.764 601.352C313.868 600.776 313.156 599.968 312.628 598.928C312.116 597.872 311.86 596.656 311.86 595.28ZM321.892 595.304C321.892 594.28 321.604 593.472 321.028 592.88C320.468 592.288 319.78 591.992 318.964 591.992C318.148 591.992 317.452 592.288 316.876 592.88C316.316 593.456 316.036 594.256 316.036 595.28C316.036 596.304 316.316 597.12 316.876 597.728C317.452 598.32 318.148 598.616 318.964 598.616C319.78 598.616 320.468 598.32 321.028 597.728C321.604 597.136 321.892 596.328 321.892 595.304ZM334.413 602.192C333.245 602.192 332.205 601.992 331.293 601.592C330.381 601.192 329.661 600.648 329.133 599.96C328.605 599.256 328.309 598.472 328.245 597.608H332.301C332.349 598.072 332.565 598.448 332.949 598.736C333.333 599.024 333.805 599.168 334.365 599.168C334.877 599.168 335.269 599.072 335.541 598.88C335.829 598.672 335.973 598.408 335.973 598.088C335.973 597.704 335.773 597.424 335.373 597.248C334.973 597.056 334.325 596.848 333.429 596.624C332.469 596.4 331.669 596.168 331.029 595.928C330.389 595.672 329.837 595.28 329.373 594.752C328.909 594.208 328.677 593.48 328.677 592.568C328.677 591.8 328.885 591.104 329.301 590.48C329.733 589.84 330.357 589.336 331.173 588.968C332.005 588.6 332.989 588.416 334.125 588.416C335.805 588.416 337.125 588.832 338.085 589.664C339.061 590.496 339.621 591.6 339.765 592.976H335.973C335.909 592.512 335.701 592.144 335.349 591.872C335.013 591.6 334.565 591.464 334.005 591.464C333.525 591.464 333.157 591.56 332.901 591.752C332.645 591.928 332.517 592.176 332.517 592.496C332.517 592.88 332.717 593.168 333.117 593.36C333.533 593.552 334.173 593.744 335.037 593.936C336.029 594.192 336.837 594.448 337.461 594.704C338.085 594.944 338.629 595.344 339.093 595.904C339.573 596.448 339.821 597.184 339.837 598.112C339.837 598.896 339.613 599.6 339.165 600.224C338.733 600.832 338.101 601.312 337.269 601.664C336.453 602.016 335.501 602.192 334.413 602.192ZM347.795 602.192C346.627 602.192 345.587 601.992 344.675 601.592C343.763 601.192 343.043 600.648 342.515 599.96C341.987 599.256 341.691 598.472 341.627 597.608H345.683C345.731 598.072 345.947 598.448 346.331 598.736C346.715 599.024 347.187 599.168 347.747 599.168C348.259 599.168 348.651 599.072 348.923 598.88C349.211 598.672 349.355 598.408 349.355 598.088C349.355 597.704 349.155 597.424 348.755 597.248C348.355 597.056 347.707 596.848 346.811 596.624C345.851 596.4 345.051 596.168 344.411 595.928C343.771 595.672 343.219 595.28 342.755 594.752C342.291 594.208 342.059 593.48 342.059 592.568C342.059 591.8 342.267 591.104 342.683 590.48C343.115 589.84 343.739 589.336 344.555 588.968C345.387 588.6 346.371 588.416 347.507 588.416C349.187 588.416 350.507 588.832 351.467 589.664C352.443 590.496 353.003 591.6 353.147 592.976H349.355C349.291 592.512 349.083 592.144 348.731 591.872C348.395 591.6 347.947 591.464 347.387 591.464C346.907 591.464 346.539 591.56 346.283 591.752C346.027 591.928 345.899 592.176 345.899 592.496C345.899 592.88 346.099 593.168 346.499 593.36C346.915 593.552 347.555 593.744 348.419 593.936C349.411 594.192 350.219 594.448 350.843 594.704C351.467 594.944 352.011 595.344 352.475 595.904C352.955 596.448 353.203 597.184 353.219 598.112C353.219 598.896 352.995 599.6 352.547 600.224C352.115 600.832 351.483 601.312 350.651 601.664C349.835 602.016 348.883 602.192 347.795 602.192ZM374.954 588.608L371.33 602H366.794L364.682 593.312L362.498 602H357.986L354.338 588.608H358.442L360.338 598.184L362.594 588.608H366.938L369.218 598.136L371.09 588.608H374.954ZM382.615 602.192C381.303 602.192 380.119 601.912 379.063 601.352C378.023 600.792 377.199 599.992 376.591 598.952C375.999 597.912 375.703 596.696 375.703 595.304C375.703 593.928 376.007 592.72 376.615 591.68C377.223 590.624 378.055 589.816 379.111 589.256C380.167 588.696 381.351 588.416 382.663 588.416C383.975 588.416 385.159 588.696 386.215 589.256C387.271 589.816 388.103 590.624 388.711 591.68C389.319 592.72 389.623 593.928 389.623 595.304C389.623 596.68 389.311 597.896 388.687 598.952C388.079 599.992 387.239 600.792 386.167 601.352C385.111 601.912 383.927 602.192 382.615 602.192ZM382.615 598.64C383.399 598.64 384.063 598.352 384.607 597.776C385.167 597.2 385.447 596.376 385.447 595.304C385.447 594.232 385.175 593.408 384.631 592.832C384.103 592.256 383.447 591.968 382.663 591.968C381.863 591.968 381.199 592.256 380.671 592.832C380.143 593.392 379.879 594.216 379.879 595.304C379.879 596.376 380.135 597.2 380.647 597.776C381.175 598.352 381.831 598.64 382.615 598.64ZM395.905 590.84C396.385 590.104 396.985 589.528 397.705 589.112C398.425 588.68 399.225 588.464 400.105 588.464V592.808H398.977C397.953 592.808 397.185 593.032 396.673 593.48C396.161 593.912 395.905 594.68 395.905 595.784V602H391.801V588.608H395.905V590.84ZM401.25 595.28C401.25 593.904 401.506 592.696 402.018 591.656C402.546 590.616 403.258 589.816 404.154 589.256C405.05 588.696 406.05 588.416 407.154 588.416C408.034 588.416 408.834 588.6 409.554 588.968C410.29 589.336 410.866 589.832 411.282 590.456V584.24H415.386V602H411.282V600.08C410.898 600.72 410.346 601.232 409.626 601.616C408.922 602 408.098 602.192 407.154 602.192C406.05 602.192 405.05 601.912 404.154 601.352C403.258 600.776 402.546 599.968 402.018 598.928C401.506 597.872 401.25 596.656 401.25 595.28ZM411.282 595.304C411.282 594.28 410.994 593.472 410.418 592.88C409.858 592.288 409.17 591.992 408.354 591.992C407.538 591.992 406.842 592.288 406.266 592.88C405.706 593.456 405.426 594.256 405.426 595.28C405.426 596.304 405.706 597.12 406.266 597.728C406.842 598.32 407.538 598.616 408.354 598.616C409.17 598.616 409.858 598.32 410.418 597.728C410.994 597.136 411.282 596.328 411.282 595.304Z" fill="white"/>
<path d="M90.5549 624.832C91.7282 624.832 92.7575 625.061 93.6429 625.52C94.5389 625.979 95.2269 626.635 95.7069 627.488C96.1975 628.331 96.4429 629.312 96.4429 630.432C96.4429 631.552 96.1975 632.533 95.7069 633.376C95.2269 634.208 94.5389 634.853 93.6429 635.312C92.7575 635.771 91.7282 636 90.5549 636H86.6509V624.832H90.5549ZM90.4749 634.096C91.6482 634.096 92.5549 633.776 93.1949 633.136C93.8349 632.496 94.1549 631.595 94.1549 630.432C94.1549 629.269 93.8349 628.363 93.1949 627.712C92.5549 627.051 91.6482 626.72 90.4749 626.72H88.8909V634.096H90.4749ZM102.056 636.144C101.202 636.144 100.434 635.957 99.7516 635.584C99.069 635.2 98.5303 634.661 98.1356 633.968C97.7516 633.275 97.5596 632.475 97.5596 631.568C97.5596 630.661 97.757 629.861 98.1516 629.168C98.557 628.475 99.1063 627.941 99.7996 627.568C100.493 627.184 101.266 626.992 102.12 626.992C102.973 626.992 103.746 627.184 104.44 627.568C105.133 627.941 105.677 628.475 106.072 629.168C106.477 629.861 106.68 630.661 106.68 631.568C106.68 632.475 106.472 633.275 106.056 633.968C105.65 634.661 105.096 635.2 104.392 635.584C103.698 635.957 102.92 636.144 102.056 636.144ZM102.056 634.192C102.461 634.192 102.84 634.096 103.192 633.904C103.554 633.701 103.842 633.403 104.056 633.008C104.269 632.613 104.376 632.133 104.376 631.568C104.376 630.725 104.152 630.08 103.704 629.632C103.266 629.173 102.728 628.944 102.088 628.944C101.448 628.944 100.909 629.173 100.472 629.632C100.045 630.08 99.8316 630.725 99.8316 631.568C99.8316 632.411 100.04 633.061 100.456 633.52C100.882 633.968 101.416 634.192 102.056 634.192ZM113.235 627.008C114.291 627.008 115.144 627.344 115.795 628.016C116.445 628.677 116.771 629.605 116.771 630.8V636H114.531V631.104C114.531 630.4 114.355 629.861 114.003 629.488C113.651 629.104 113.171 628.912 112.563 628.912C111.944 628.912 111.453 629.104 111.091 629.488C110.739 629.861 110.563 630.4 110.563 631.104V636H108.323V627.136H110.563V628.24C110.861 627.856 111.24 627.557 111.699 627.344C112.168 627.12 112.68 627.008 113.235 627.008ZM119.349 624.832H121.701L119.973 628.864H118.437L119.349 624.832ZM125.915 628.976V633.264C125.915 633.563 125.984 633.781 126.123 633.92C126.272 634.048 126.518 634.112 126.859 634.112H127.899V636H126.491C124.603 636 123.659 635.083 123.659 633.248V628.976H122.603V627.136H123.659V624.944H125.915V627.136H127.899V628.976H125.915ZM145.611 627.136L143.019 636H140.603L138.987 629.808L137.371 636H134.939L132.331 627.136H134.603L136.171 633.888L137.867 627.136H140.235L141.899 633.872L143.467 627.136H145.611ZM150.759 636.144C149.905 636.144 149.137 635.957 148.455 635.584C147.772 635.2 147.233 634.661 146.839 633.968C146.455 633.275 146.263 632.475 146.263 631.568C146.263 630.661 146.46 629.861 146.855 629.168C147.26 628.475 147.809 627.941 148.503 627.568C149.196 627.184 149.969 626.992 150.823 626.992C151.676 626.992 152.449 627.184 153.143 627.568C153.836 627.941 154.38 628.475 154.775 629.168C155.18 629.861 155.383 630.661 155.383 631.568C155.383 632.475 155.175 633.275 154.759 633.968C154.353 634.661 153.799 635.2 153.095 635.584C152.401 635.957 151.623 636.144 150.759 636.144ZM150.759 634.192C151.164 634.192 151.543 634.096 151.895 633.904C152.257 633.701 152.545 633.403 152.759 633.008C152.972 632.613 153.079 632.133 153.079 631.568C153.079 630.725 152.855 630.08 152.407 629.632C151.969 629.173 151.431 628.944 150.791 628.944C150.151 628.944 149.612 629.173 149.175 629.632C148.748 630.08 148.535 630.725 148.535 631.568C148.535 632.411 148.743 633.061 149.159 633.52C149.585 633.968 150.119 634.192 150.759 634.192ZM159.266 628.512C159.554 628.043 159.927 627.675 160.386 627.408C160.855 627.141 161.389 627.008 161.986 627.008V629.36H161.394C160.69 629.36 160.157 629.525 159.794 629.856C159.442 630.187 159.266 630.763 159.266 631.584V636H157.026V627.136H159.266V628.512ZM165.735 628.512C166.023 628.043 166.396 627.675 166.855 627.408C167.324 627.141 167.857 627.008 168.455 627.008V629.36H167.863C167.159 629.36 166.625 629.525 166.263 629.856C165.911 630.187 165.735 630.763 165.735 631.584V636H163.495V627.136H165.735V628.512ZM178.443 627.136L172.955 640.192H170.571L172.491 635.776L168.939 627.136H171.451L173.739 633.328L176.059 627.136H178.443ZM184.599 626.08C184.205 626.08 183.874 625.957 183.607 625.712C183.351 625.456 183.223 625.141 183.223 624.768C183.223 624.395 183.351 624.085 183.607 623.84C183.874 623.584 184.205 623.456 184.599 623.456C184.994 623.456 185.319 623.584 185.575 623.84C185.842 624.085 185.975 624.395 185.975 624.768C185.975 625.141 185.842 625.456 185.575 625.712C185.319 625.957 184.994 626.08 184.599 626.08ZM185.703 627.136V636H183.463V627.136H185.703ZM190.525 628.976V633.264C190.525 633.563 190.594 633.781 190.733 633.92C190.882 634.048 191.127 634.112 191.469 634.112H192.509V636H191.101C189.213 636 188.269 635.083 188.269 633.248V628.976H187.213V627.136H188.269V624.944H190.525V627.136H192.509V628.976H190.525ZM202.924 627.008C203.596 627.008 204.193 627.157 204.716 627.456C205.239 627.744 205.644 628.176 205.932 628.752C206.231 629.317 206.38 630 206.38 630.8V636H204.14V631.104C204.14 630.4 203.964 629.861 203.612 629.488C203.26 629.104 202.78 628.912 202.172 628.912C201.553 628.912 201.063 629.104 200.7 629.488C200.348 629.861 200.172 630.4 200.172 631.104V636H197.932V624.16H200.172V628.24C200.46 627.856 200.844 627.557 201.324 627.344C201.804 627.12 202.337 627.008 202.924 627.008ZM207.934 631.536C207.934 630.64 208.11 629.845 208.462 629.152C208.825 628.459 209.31 627.925 209.918 627.552C210.537 627.179 211.225 626.992 211.982 626.992C212.644 626.992 213.22 627.125 213.71 627.392C214.212 627.659 214.612 627.995 214.91 628.4V627.136H217.166V636H214.91V634.704C214.622 635.12 214.222 635.467 213.71 635.744C213.209 636.011 212.628 636.144 211.966 636.144C211.22 636.144 210.537 635.952 209.918 635.568C209.31 635.184 208.825 634.645 208.462 633.952C208.11 633.248 207.934 632.443 207.934 631.536ZM214.91 631.568C214.91 631.024 214.804 630.56 214.59 630.176C214.377 629.781 214.089 629.483 213.726 629.28C213.364 629.067 212.974 628.96 212.558 628.96C212.142 628.96 211.758 629.061 211.406 629.264C211.054 629.467 210.766 629.765 210.542 630.16C210.329 630.544 210.222 631.003 210.222 631.536C210.222 632.069 210.329 632.539 210.542 632.944C210.766 633.339 211.054 633.643 211.406 633.856C211.769 634.069 212.153 634.176 212.558 634.176C212.974 634.176 213.364 634.075 213.726 633.872C214.089 633.659 214.377 633.36 214.59 632.976C214.804 632.581 214.91 632.112 214.91 631.568ZM221.594 628.416C221.882 628.011 222.277 627.675 222.778 627.408C223.29 627.131 223.871 626.992 224.522 626.992C225.279 626.992 225.962 627.179 226.57 627.552C227.189 627.925 227.674 628.459 228.026 629.152C228.389 629.835 228.57 630.629 228.57 631.536C228.57 632.443 228.389 633.248 228.026 633.952C227.674 634.645 227.189 635.184 226.57 635.568C225.962 635.952 225.279 636.144 224.522 636.144C223.871 636.144 223.295 636.011 222.794 635.744C222.303 635.477 221.903 635.141 221.594 634.736V640.224H219.354V627.136H221.594V628.416ZM226.282 631.536C226.282 631.003 226.17 630.544 225.946 630.16C225.733 629.765 225.445 629.467 225.082 629.264C224.73 629.061 224.346 628.96 223.93 628.96C223.525 628.96 223.141 629.067 222.778 629.28C222.426 629.483 222.138 629.781 221.914 630.176C221.701 630.571 221.594 631.035 221.594 631.568C221.594 632.101 221.701 632.565 221.914 632.96C222.138 633.355 222.426 633.659 222.778 633.872C223.141 634.075 223.525 634.176 223.93 634.176C224.346 634.176 224.73 634.069 225.082 633.856C225.445 633.643 225.733 633.339 225.946 632.944C226.17 632.549 226.282 632.08 226.282 631.536ZM232.438 628.416C232.726 628.011 233.12 627.675 233.622 627.408C234.134 627.131 234.715 626.992 235.366 626.992C236.123 626.992 236.806 627.179 237.414 627.552C238.032 627.925 238.518 628.459 238.87 629.152C239.232 629.835 239.414 630.629 239.414 631.536C239.414 632.443 239.232 633.248 238.87 633.952C238.518 634.645 238.032 635.184 237.414 635.568C236.806 635.952 236.123 636.144 235.366 636.144C234.715 636.144 234.139 636.011 233.638 635.744C233.147 635.477 232.747 635.141 232.438 634.736V640.224H230.198V627.136H232.438V628.416ZM237.126 631.536C237.126 631.003 237.014 630.544 236.79 630.16C236.576 629.765 236.288 629.467 235.926 629.264C235.574 629.061 235.19 628.96 234.774 628.96C234.368 628.96 233.984 629.067 233.622 629.28C233.27 629.483 232.982 629.781 232.758 630.176C232.544 630.571 232.438 631.035 232.438 631.568C232.438 632.101 232.544 632.565 232.758 632.96C232.982 633.355 233.27 633.659 233.622 633.872C233.984 634.075 234.368 634.176 234.774 634.176C235.19 634.176 235.574 634.069 235.926 633.856C236.288 633.643 236.576 633.339 236.79 632.944C237.014 632.549 237.126 632.08 237.126 631.536ZM249.282 631.376C249.282 631.696 249.26 631.984 249.218 632.24H242.738C242.791 632.88 243.015 633.381 243.41 633.744C243.804 634.107 244.29 634.288 244.866 634.288C245.698 634.288 246.29 633.931 246.642 633.216H249.058C248.802 634.069 248.311 634.773 247.586 635.328C246.86 635.872 245.97 636.144 244.914 636.144C244.06 636.144 243.292 635.957 242.61 635.584C241.938 635.2 241.41 634.661 241.026 633.968C240.652 633.275 240.465 632.475 240.465 631.568C240.465 630.651 240.652 629.845 241.026 629.152C241.399 628.459 241.922 627.925 242.594 627.552C243.266 627.179 244.039 626.992 244.914 626.992C245.756 626.992 246.508 627.173 247.17 627.536C247.842 627.899 248.359 628.416 248.722 629.088C249.095 629.749 249.282 630.512 249.282 631.376ZM246.962 630.736C246.951 630.16 246.743 629.701 246.338 629.36C245.932 629.008 245.436 628.832 244.85 628.832C244.295 628.832 243.826 629.003 243.442 629.344C243.068 629.675 242.839 630.139 242.754 630.736H246.962ZM255.829 627.008C256.885 627.008 257.738 627.344 258.389 628.016C259.039 628.677 259.365 629.605 259.365 630.8V636H257.125V631.104C257.125 630.4 256.949 629.861 256.597 629.488C256.245 629.104 255.765 628.912 255.157 628.912C254.538 628.912 254.047 629.104 253.685 629.488C253.333 629.861 253.157 630.4 253.157 631.104V636H250.917V627.136H253.157V628.24C253.455 627.856 253.834 627.557 254.293 627.344C254.762 627.12 255.274 627.008 255.829 627.008ZM264.887 636.144C264.161 636.144 263.511 636.016 262.935 635.76C262.359 635.493 261.9 635.136 261.559 634.688C261.228 634.24 261.047 633.744 261.015 633.2H263.271C263.313 633.541 263.479 633.824 263.767 634.048C264.065 634.272 264.433 634.384 264.871 634.384C265.297 634.384 265.628 634.299 265.863 634.128C266.108 633.957 266.231 633.739 266.231 633.472C266.231 633.184 266.081 632.971 265.783 632.832C265.495 632.683 265.031 632.523 264.391 632.352C263.729 632.192 263.185 632.027 262.759 631.856C262.343 631.685 261.98 631.424 261.671 631.072C261.372 630.72 261.223 630.245 261.223 629.648C261.223 629.157 261.361 628.709 261.639 628.304C261.927 627.899 262.332 627.579 262.855 627.344C263.388 627.109 264.012 626.992 264.727 626.992C265.783 626.992 266.625 627.259 267.255 627.792C267.884 628.315 268.231 629.024 268.295 629.92H266.151C266.119 629.568 265.969 629.291 265.703 629.088C265.447 628.875 265.1 628.768 264.663 628.768C264.257 628.768 263.943 628.843 263.719 628.992C263.505 629.141 263.399 629.349 263.399 629.616C263.399 629.915 263.548 630.144 263.847 630.304C264.145 630.453 264.609 630.608 265.239 630.768C265.879 630.928 266.407 631.093 266.823 631.264C267.239 631.435 267.596 631.701 267.895 632.064C268.204 632.416 268.364 632.885 268.375 633.472C268.375 633.984 268.231 634.443 267.943 634.848C267.665 635.253 267.26 635.573 266.727 635.808C266.204 636.032 265.591 636.144 264.887 636.144ZM276.634 628.976V633.264C276.634 633.563 276.703 633.781 276.842 633.92C276.991 634.048 277.237 634.112 277.578 634.112H278.618V636H277.21C275.322 636 274.378 635.083 274.378 633.248V628.976H273.322V627.136H274.378V624.944H276.634V627.136H278.618V628.976H276.634ZM284.165 636.144C283.312 636.144 282.544 635.957 281.861 635.584C281.178 635.2 280.64 634.661 280.245 633.968C279.861 633.275 279.669 632.475 279.669 631.568C279.669 630.661 279.866 629.861 280.261 629.168C280.666 628.475 281.216 627.941 281.909 627.568C282.602 627.184 283.376 626.992 284.229 626.992C285.082 626.992 285.856 627.184 286.549 627.568C287.242 627.941 287.786 628.475 288.181 629.168C288.586 629.861 288.789 630.661 288.789 631.568C288.789 632.475 288.581 633.275 288.165 633.968C287.76 634.661 287.205 635.2 286.501 635.584C285.808 635.957 285.029 636.144 284.165 636.144ZM284.165 634.192C284.57 634.192 284.949 634.096 285.301 633.904C285.664 633.701 285.952 633.403 286.165 633.008C286.378 632.613 286.485 632.133 286.485 631.568C286.485 630.725 286.261 630.08 285.813 629.632C285.376 629.173 284.837 628.944 284.197 628.944C283.557 628.944 283.018 629.173 282.581 629.632C282.154 630.08 281.941 630.725 281.941 631.568C281.941 632.411 282.149 633.061 282.565 633.52C282.992 633.968 283.525 634.192 284.165 634.192ZM296.853 628.976V633.264C296.853 633.563 296.922 633.781 297.061 633.92C297.21 634.048 297.455 634.112 297.797 634.112H298.837V636H297.429C295.541 636 294.597 635.083 294.597 633.248V628.976H293.541V627.136H294.597V624.944H296.853V627.136H298.837V628.976H296.853ZM305.44 627.008C306.112 627.008 306.709 627.157 307.232 627.456C307.754 627.744 308.16 628.176 308.448 628.752C308.746 629.317 308.896 630 308.896 630.8V636H306.656V631.104C306.656 630.4 306.48 629.861 306.128 629.488C305.776 629.104 305.296 628.912 304.688 628.912C304.069 628.912 303.578 629.104 303.216 629.488C302.864 629.861 302.688 630.4 302.688 631.104V636H300.448V624.16H302.688V628.24C302.976 627.856 303.36 627.557 303.84 627.344C304.32 627.12 304.853 627.008 305.44 627.008ZM319.266 631.376C319.266 631.696 319.245 631.984 319.202 632.24H312.722C312.775 632.88 312.999 633.381 313.394 633.744C313.789 634.107 314.274 634.288 314.85 634.288C315.682 634.288 316.274 633.931 316.626 633.216H319.042C318.786 634.069 318.295 634.773 317.57 635.328C316.845 635.872 315.954 636.144 314.898 636.144C314.045 636.144 313.277 635.957 312.594 635.584C311.922 635.2 311.394 634.661 311.01 633.968C310.637 633.275 310.45 632.475 310.45 631.568C310.45 630.651 310.637 629.845 311.01 629.152C311.383 628.459 311.906 627.925 312.578 627.552C313.25 627.179 314.023 626.992 314.898 626.992C315.741 626.992 316.493 627.173 317.154 627.536C317.826 627.899 318.343 628.416 318.706 629.088C319.079 629.749 319.266 630.512 319.266 631.376ZM316.946 630.736C316.935 630.16 316.727 629.701 316.322 629.36C315.917 629.008 315.421 628.832 314.834 628.832C314.279 628.832 313.81 629.003 313.426 629.344C313.053 629.675 312.823 630.139 312.738 630.736H316.946ZM326.953 628.432C327.241 628.005 327.636 627.659 328.137 627.392C328.649 627.125 329.231 626.992 329.881 626.992C330.639 626.992 331.321 627.179 331.929 627.552C332.548 627.925 333.033 628.459 333.385 629.152C333.748 629.835 333.929 630.629 333.929 631.536C333.929 632.443 333.748 633.248 333.385 633.952C333.033 634.645 332.548 635.184 331.929 635.568C331.321 635.952 330.639 636.144 329.881 636.144C329.22 636.144 328.639 636.016 328.137 635.76C327.647 635.493 327.252 635.152 326.953 634.736V636H324.713V624.16H326.953V628.432ZM331.641 631.536C331.641 631.003 331.529 630.544 331.305 630.16C331.092 629.765 330.804 629.467 330.441 629.264C330.089 629.061 329.705 628.96 329.289 628.96C328.884 628.96 328.5 629.067 328.137 629.28C327.785 629.483 327.497 629.781 327.273 630.176C327.06 630.571 326.953 631.035 326.953 631.568C326.953 632.101 327.06 632.565 327.273 632.96C327.497 633.355 327.785 633.659 328.137 633.872C328.5 634.075 328.884 634.176 329.289 634.176C329.705 634.176 330.089 634.069 330.441 633.856C330.804 633.643 331.092 633.339 331.305 632.944C331.529 632.549 331.641 632.08 331.641 631.536ZM343.797 631.376C343.797 631.696 343.776 631.984 343.733 632.24H337.253C337.306 632.88 337.53 633.381 337.925 633.744C338.32 634.107 338.805 634.288 339.381 634.288C340.213 634.288 340.805 633.931 341.157 633.216H343.573C343.317 634.069 342.826 634.773 342.101 635.328C341.376 635.872 340.485 636.144 339.429 636.144C338.576 636.144 337.808 635.957 337.125 635.584C336.453 635.2 335.925 634.661 335.541 633.968C335.168 633.275 334.981 632.475 334.981 631.568C334.981 630.651 335.168 629.845 335.541 629.152C335.914 628.459 336.437 627.925 337.109 627.552C337.781 627.179 338.554 626.992 339.429 626.992C340.272 626.992 341.024 627.173 341.685 627.536C342.357 627.899 342.874 628.416 343.237 629.088C343.61 629.749 343.797 630.512 343.797 631.376ZM341.477 630.736C341.466 630.16 341.258 629.701 340.853 629.36C340.448 629.008 339.952 628.832 339.365 628.832C338.81 628.832 338.341 629.003 337.957 629.344C337.584 629.675 337.354 630.139 337.269 630.736H341.477ZM348.824 636.144C348.099 636.144 347.448 636.016 346.872 635.76C346.296 635.493 345.837 635.136 345.496 634.688C345.165 634.24 344.984 633.744 344.952 633.2H347.208C347.251 633.541 347.416 633.824 347.704 634.048C348.003 634.272 348.371 634.384 348.808 634.384C349.235 634.384 349.565 634.299 349.8 634.128C350.045 633.957 350.168 633.739 350.168 633.472C350.168 633.184 350.019 632.971 349.72 632.832C349.432 632.683 348.968 632.523 348.328 632.352C347.667 632.192 347.123 632.027 346.696 631.856C346.28 631.685 345.917 631.424 345.608 631.072C345.309 630.72 345.16 630.245 345.16 629.648C345.16 629.157 345.299 628.709 345.576 628.304C345.864 627.899 346.269 627.579 346.792 627.344C347.325 627.109 347.949 626.992 348.664 626.992C349.72 626.992 350.563 627.259 351.192 627.792C351.821 628.315 352.168 629.024 352.232 629.92H350.088C350.056 629.568 349.907 629.291 349.64 629.088C349.384 628.875 349.037 628.768 348.6 628.768C348.195 628.768 347.88 628.843 347.656 628.992C347.443 629.141 347.336 629.349 347.336 629.616C347.336 629.915 347.485 630.144 347.784 630.304C348.083 630.453 348.547 630.608 349.176 630.768C349.816 630.928 350.344 631.093 350.76 631.264C351.176 631.435 351.533 631.701 351.832 632.064C352.141 632.416 352.301 632.885 352.312 633.472C352.312 633.984 352.168 634.443 351.88 634.848C351.603 635.253 351.197 635.573 350.664 635.808C350.141 636.032 349.528 636.144 348.824 636.144ZM356.759 628.976V633.264C356.759 633.563 356.828 633.781 356.967 633.92C357.116 634.048 357.362 634.112 357.703 634.112H358.743V636H357.335C355.447 636 354.503 635.083 354.503 633.248V628.976H353.447V627.136H354.503V624.944H356.759V627.136H358.743V628.976H356.759ZM368.103 636.144C367.249 636.144 366.481 635.957 365.799 635.584C365.116 635.2 364.577 634.661 364.183 633.968C363.799 633.275 363.607 632.475 363.607 631.568C363.607 630.661 363.804 629.861 364.199 629.168C364.604 628.475 365.153 627.941 365.847 627.568C366.54 627.184 367.313 626.992 368.167 626.992C369.02 626.992 369.793 627.184 370.487 627.568C371.18 627.941 371.724 628.475 372.119 629.168C372.524 629.861 372.727 630.661 372.727 631.568C372.727 632.475 372.519 633.275 372.102 633.968C371.697 634.661 371.143 635.2 370.439 635.584C369.745 635.957 368.967 636.144 368.103 636.144ZM368.103 634.192C368.508 634.192 368.887 634.096 369.239 633.904C369.601 633.701 369.889 633.403 370.103 633.008C370.316 632.613 370.423 632.133 370.423 631.568C370.423 630.725 370.199 630.08 369.751 629.632C369.313 629.173 368.775 628.944 368.135 628.944C367.495 628.944 366.956 629.173 366.519 629.632C366.092 630.08 365.879 630.725 365.879 631.568C365.879 632.411 366.087 633.061 366.503 633.52C366.929 633.968 367.463 634.192 368.103 634.192ZM378.434 628.976H376.882V636H374.61V628.976H373.602V627.136H374.61V626.688C374.61 625.6 374.919 624.8 375.538 624.288C376.156 623.776 377.09 623.536 378.338 623.568V625.456C377.794 625.445 377.415 625.536 377.202 625.728C376.988 625.92 376.882 626.267 376.882 626.768V627.136H378.434V628.976ZM392.066 627.136V636H389.81V634.88C389.522 635.264 389.143 635.568 388.674 635.792C388.215 636.005 387.714 636.112 387.17 636.112C386.476 636.112 385.863 635.968 385.33 635.68C384.796 635.381 384.375 634.949 384.066 634.384C383.767 633.808 383.618 633.125 383.618 632.336V627.136H385.858V632.016C385.858 632.72 386.034 633.264 386.386 633.648C386.738 634.021 387.218 634.208 387.826 634.208C388.444 634.208 388.93 634.021 389.282 633.648C389.634 633.264 389.81 632.72 389.81 632.016V627.136H392.066ZM397.668 636.144C396.943 636.144 396.292 636.016 395.716 635.76C395.14 635.493 394.681 635.136 394.34 634.688C394.009 634.24 393.828 633.744 393.796 633.2H396.052C396.095 633.541 396.26 633.824 396.548 634.048C396.847 634.272 397.215 634.384 397.652 634.384C398.079 634.384 398.409 634.299 398.644 634.128C398.889 633.957 399.012 633.739 399.012 633.472C399.012 633.184 398.863 632.971 398.564 632.832C398.276 632.683 397.812 632.523 397.172 632.352C396.511 632.192 395.967 632.027 395.54 631.856C395.124 631.685 394.761 631.424 394.452 631.072C394.153 630.72 394.004 630.245 394.004 629.648C394.004 629.157 394.143 628.709 394.42 628.304C394.708 627.899 395.113 627.579 395.636 627.344C396.169 627.109 396.793 626.992 397.508 626.992C398.564 626.992 399.407 627.259 400.036 627.792C400.665 628.315 401.012 629.024 401.076 629.92H398.932C398.9 629.568 398.751 629.291 398.484 629.088C398.228 628.875 397.881 628.768 397.444 628.768C397.039 628.768 396.724 628.843 396.5 628.992C396.287 629.141 396.18 629.349 396.18 629.616C396.18 629.915 396.329 630.144 396.628 630.304C396.927 630.453 397.391 630.608 398.02 630.768C398.66 630.928 399.188 631.093 399.604 631.264C400.02 631.435 400.377 631.701 400.676 632.064C400.985 632.416 401.145 632.885 401.156 633.472C401.156 633.984 401.012 634.443 400.724 634.848C400.447 635.253 400.041 635.573 399.508 635.808C398.985 636.032 398.372 636.144 397.668 636.144ZM403.987 636.112C403.581 636.112 403.245 635.989 402.979 635.744C402.723 635.488 402.595 635.173 402.595 634.8C402.595 634.427 402.723 634.117 402.979 633.872C403.245 633.616 403.581 633.488 403.987 633.488C404.381 633.488 404.707 633.616 404.963 633.872C405.219 634.117 405.347 634.427 405.347 634.8C405.347 635.173 405.219 635.488 404.963 635.744C404.707 635.989 404.381 636.112 403.987 636.112ZM413.203 626.64V629.44H416.963V631.216H413.203V634.176H417.443V636H410.963V624.816H417.443V626.64H413.203ZM424.391 627.008C425.447 627.008 426.3 627.344 426.951 628.016C427.602 628.677 427.927 629.605 427.927 630.8V636H425.687V631.104C425.687 630.4 425.511 629.861 425.159 629.488C424.807 629.104 424.327 628.912 423.719 628.912C423.1 628.912 422.61 629.104 422.247 629.488C421.895 629.861 421.719 630.4 421.719 631.104V636H419.479V627.136H421.719V628.24C422.018 627.856 422.396 627.557 422.855 627.344C423.324 627.12 423.836 627.008 424.391 627.008ZM432.665 628.976V633.264C432.665 633.563 432.734 633.781 432.873 633.92C433.022 634.048 433.268 634.112 433.609 634.112H434.649V636H433.241C431.353 636 430.409 635.083 430.409 633.248V628.976H429.353V627.136H430.409V624.944H432.665V627.136H434.649V628.976H432.665ZM444.5 631.376C444.5 631.696 444.479 631.984 444.436 632.24H437.956C438.01 632.88 438.234 633.381 438.628 633.744C439.023 634.107 439.508 634.288 440.084 634.288C440.916 634.288 441.508 633.931 441.86 633.216H444.276C444.02 634.069 443.53 634.773 442.804 635.328C442.079 635.872 441.188 636.144 440.132 636.144C439.279 636.144 438.511 635.957 437.828 635.584C437.156 635.2 436.628 634.661 436.244 633.968C435.871 633.275 435.684 632.475 435.684 631.568C435.684 630.651 435.871 629.845 436.244 629.152C436.618 628.459 437.14 627.925 437.812 627.552C438.484 627.179 439.258 626.992 440.132 626.992C440.975 626.992 441.727 627.173 442.388 627.536C443.06 627.899 443.578 628.416 443.94 629.088C444.314 629.749 444.5 630.512 444.5 631.376ZM442.18 630.736C442.17 630.16 441.962 629.701 441.556 629.36C441.151 629.008 440.655 628.832 440.068 628.832C439.514 628.832 439.044 629.003 438.66 629.344C438.287 629.675 438.058 630.139 437.972 630.736H442.18ZM448.375 628.512C448.663 628.043 449.037 627.675 449.495 627.408C449.965 627.141 450.498 627.008 451.095 627.008V629.36H450.503C449.799 629.36 449.266 629.525 448.903 629.856C448.551 630.187 448.375 630.763 448.375 631.584V636H446.135V627.136H448.375V628.512ZM464.897 627.136L459.409 640.192H457.025L458.945 635.776L455.393 627.136H457.905L460.193 633.328L462.513 627.136H464.897ZM470.04 636.144C469.187 636.144 468.419 635.957 467.736 635.584C467.053 635.2 466.515 634.661 466.12 633.968C465.736 633.275 465.544 632.475 465.544 631.568C465.544 630.661 465.741 629.861 466.136 629.168C466.541 628.475 467.091 627.941 467.784 627.568C468.477 627.184 469.251 626.992 470.104 626.992C470.957 626.992 471.731 627.184 472.424 627.568C473.117 627.941 473.661 628.475 474.056 629.168C474.461 629.861 474.664 630.661 474.664 631.568C474.664 632.475 474.456 633.275 474.04 633.968C473.635 634.661 473.08 635.2 472.376 635.584C471.683 635.957 470.904 636.144 470.04 636.144ZM470.04 634.192C470.445 634.192 470.824 634.096 471.176 633.904C471.539 633.701 471.827 633.403 472.04 633.008C472.253 632.613 472.36 632.133 472.36 631.568C472.36 630.725 472.136 630.08 471.688 629.632C471.251 629.173 470.712 628.944 470.072 628.944C469.432 628.944 468.893 629.173 468.456 629.632C468.029 630.08 467.816 630.725 467.816 631.568C467.816 632.411 468.024 633.061 468.44 633.52C468.867 633.968 469.4 634.192 470.04 634.192ZM484.675 627.136V636H482.419V634.88C482.131 635.264 481.752 635.568 481.283 635.792C480.824 636.005 480.323 636.112 479.779 636.112C479.086 636.112 478.472 635.968 477.939 635.68C477.406 635.381 476.984 634.949 476.675 634.384C476.376 633.808 476.227 633.125 476.227 632.336V627.136H478.467V632.016C478.467 632.72 478.643 633.264 478.995 633.648C479.347 634.021 479.827 634.208 480.435 634.208C481.054 634.208 481.539 634.021 481.891 633.648C482.243 633.264 482.419 632.72 482.419 632.016V627.136H484.675ZM489.125 628.512C489.413 628.043 489.787 627.675 490.245 627.408C490.715 627.141 491.248 627.008 491.845 627.008V629.36H491.253C490.549 629.36 490.016 629.525 489.653 629.856C489.301 630.187 489.125 630.763 489.125 631.584V636H486.885V627.136H489.125V628.512ZM505.407 631.376C505.407 631.696 505.385 631.984 505.343 632.24H498.863C498.916 632.88 499.14 633.381 499.535 633.744C499.929 634.107 500.415 634.288 500.991 634.288C501.823 634.288 502.415 633.931 502.767 633.216H505.183C504.927 634.069 504.436 634.773 503.711 635.328C502.985 635.872 502.095 636.144 501.039 636.144C500.185 636.144 499.417 635.957 498.735 635.584C498.063 635.2 497.535 634.661 497.151 633.968C496.777 633.275 496.59 632.475 496.59 631.568C496.59 630.651 496.777 629.845 497.151 629.152C497.524 628.459 498.047 627.925 498.719 627.552C499.391 627.179 500.164 626.992 501.039 626.992C501.881 626.992 502.633 627.173 503.295 627.536C503.967 627.899 504.484 628.416 504.847 629.088C505.22 629.749 505.407 630.512 505.407 631.376ZM503.087 630.736C503.076 630.16 502.868 629.701 502.463 629.36C502.057 629.008 501.561 628.832 500.975 628.832C500.42 628.832 499.951 629.003 499.567 629.344C499.193 629.675 498.964 630.139 498.879 630.736H503.087ZM518.05 627.008C519.138 627.008 520.012 627.344 520.674 628.016C521.346 628.677 521.682 629.605 521.682 630.8V636H519.442V631.104C519.442 630.411 519.266 629.883 518.914 629.52C518.562 629.147 518.082 628.96 517.474 628.96C516.866 628.96 516.38 629.147 516.018 629.52C515.666 629.883 515.49 630.411 515.49 631.104V636H513.25V631.104C513.25 630.411 513.074 629.883 512.722 629.52C512.37 629.147 511.89 628.96 511.282 628.96C510.663 628.96 510.172 629.147 509.81 629.52C509.458 629.883 509.282 630.411 509.282 631.104V636H507.042V627.136H509.282V628.208C509.57 627.835 509.938 627.541 510.386 627.328C510.844 627.115 511.346 627.008 511.89 627.008C512.583 627.008 513.202 627.157 513.746 627.456C514.29 627.744 514.711 628.16 515.01 628.704C515.298 628.192 515.714 627.781 516.258 627.472C516.812 627.163 517.41 627.008 518.05 627.008ZM523.231 631.536C523.231 630.64 523.407 629.845 523.759 629.152C524.122 628.459 524.607 627.925 525.215 627.552C525.834 627.179 526.522 626.992 527.279 626.992C527.94 626.992 528.516 627.125 529.007 627.392C529.508 627.659 529.908 627.995 530.207 628.4V627.136H532.463V636H530.207V634.704C529.919 635.12 529.519 635.467 529.007 635.744C528.506 636.011 527.924 636.144 527.263 636.144C526.516 636.144 525.834 635.952 525.215 635.568C524.607 635.184 524.122 634.645 523.759 633.952C523.407 633.248 523.231 632.443 523.231 631.536ZM530.207 631.568C530.207 631.024 530.1 630.56 529.887 630.176C529.674 629.781 529.386 629.483 529.023 629.28C528.66 629.067 528.271 628.96 527.855 628.96C527.439 628.96 527.055 629.061 526.703 629.264C526.351 629.467 526.063 629.765 525.839 630.16C525.626 630.544 525.519 631.003 525.519 631.536C525.519 632.069 525.626 632.539 525.839 632.944C526.063 633.339 526.351 633.643 526.703 633.856C527.066 634.069 527.45 634.176 527.855 634.176C528.271 634.176 528.66 634.075 529.023 633.872C529.386 633.659 529.674 633.36 529.887 632.976C530.1 632.581 530.207 632.112 530.207 631.568ZM535.787 626.08C535.392 626.08 535.062 625.957 534.795 625.712C534.539 625.456 534.411 625.141 534.411 624.768C534.411 624.395 534.539 624.085 534.795 623.84C535.062 623.584 535.392 623.456 535.787 623.456C536.182 623.456 536.507 623.584 536.763 623.84C537.03 624.085 537.163 624.395 537.163 624.768C537.163 625.141 537.03 625.456 536.763 625.712C536.507 625.957 536.182 626.08 535.787 626.08ZM536.891 627.136V636H534.651V627.136H536.891ZM541.344 624.16V636H539.104V624.16H541.344ZM172.887 655.536C172.887 654.64 173.063 653.845 173.415 653.152C173.778 652.459 174.263 651.925 174.871 651.552C175.49 651.179 176.178 650.992 176.935 650.992C177.597 650.992 178.173 651.125 178.663 651.392C179.165 651.659 179.565 651.995 179.863 652.4V651.136H182.119V660H179.863V658.704C179.575 659.12 179.175 659.467 178.663 659.744C178.162 660.011 177.581 660.144 176.919 660.144C176.173 660.144 175.49 659.952 174.871 659.568C174.263 659.184 173.778 658.645 173.415 657.952C173.063 657.248 172.887 656.443 172.887 655.536ZM179.863 655.568C179.863 655.024 179.757 654.56 179.543 654.176C179.33 653.781 179.042 653.483 178.679 653.28C178.317 653.067 177.927 652.96 177.511 652.96C177.095 652.96 176.711 653.061 176.359 653.264C176.007 653.467 175.719 653.765 175.495 654.16C175.282 654.544 175.175 655.003 175.175 655.536C175.175 656.069 175.282 656.539 175.495 656.944C175.719 657.339 176.007 657.643 176.359 657.856C176.722 658.069 177.106 658.176 177.511 658.176C177.927 658.176 178.317 658.075 178.679 657.872C179.042 657.659 179.33 657.36 179.543 656.976C179.757 656.581 179.863 656.112 179.863 655.568ZM189.219 651.008C190.275 651.008 191.128 651.344 191.779 652.016C192.43 652.677 192.755 653.605 192.755 654.8V660H190.515V655.104C190.515 654.4 190.339 653.861 189.987 653.488C189.635 653.104 189.155 652.912 188.547 652.912C187.928 652.912 187.438 653.104 187.075 653.488C186.723 653.861 186.547 654.4 186.547 655.104V660H184.307V651.136H186.547V652.24C186.846 651.856 187.224 651.557 187.683 651.344C188.152 651.12 188.664 651.008 189.219 651.008ZM194.309 655.536C194.309 654.64 194.485 653.845 194.837 653.152C195.2 652.459 195.691 651.925 196.309 651.552C196.928 651.179 197.616 650.992 198.373 650.992C198.949 650.992 199.499 651.12 200.021 651.376C200.544 651.621 200.96 651.952 201.269 652.368V648.16H203.541V660H201.269V658.688C200.992 659.125 200.603 659.477 200.101 659.744C199.6 660.011 199.019 660.144 198.357 660.144C197.611 660.144 196.928 659.952 196.309 659.568C195.691 659.184 195.2 658.645 194.837 657.952C194.485 657.248 194.309 656.443 194.309 655.536ZM201.285 655.568C201.285 655.024 201.179 654.56 200.965 654.176C200.752 653.781 200.464 653.483 200.101 653.28C199.739 653.067 199.349 652.96 198.933 652.96C198.517 652.96 198.133 653.061 197.781 653.264C197.429 653.467 197.141 653.765 196.917 654.16C196.704 654.544 196.597 655.003 196.597 655.536C196.597 656.069 196.704 656.539 196.917 656.944C197.141 657.339 197.429 657.643 197.781 657.856C198.144 658.069 198.528 658.176 198.933 658.176C199.349 658.176 199.739 658.075 200.101 657.872C200.464 657.659 200.752 657.36 200.965 656.976C201.179 656.581 201.285 656.112 201.285 655.568ZM221.83 651.136L219.238 660H216.822L215.206 653.808L213.59 660H211.158L208.55 651.136H210.822L212.39 657.888L214.086 651.136H216.454L218.118 657.872L219.686 651.136H221.83ZM231.282 655.376C231.282 655.696 231.26 655.984 231.218 656.24H224.738C224.791 656.88 225.015 657.381 225.41 657.744C225.804 658.107 226.29 658.288 226.866 658.288C227.698 658.288 228.29 657.931 228.642 657.216H231.058C230.802 658.069 230.311 658.773 229.586 659.328C228.86 659.872 227.97 660.144 226.914 660.144C226.06 660.144 225.292 659.957 224.61 659.584C223.938 659.2 223.41 658.661 223.026 657.968C222.652 657.275 222.465 656.475 222.465 655.568C222.465 654.651 222.652 653.845 223.026 653.152C223.399 652.459 223.922 651.925 224.594 651.552C225.266 651.179 226.039 650.992 226.914 650.992C227.756 650.992 228.508 651.173 229.17 651.536C229.842 651.899 230.359 652.416 230.722 653.088C231.095 653.749 231.282 654.512 231.282 655.376ZM228.962 654.736C228.951 654.16 228.743 653.701 228.338 653.36C227.932 653.008 227.436 652.832 226.85 652.832C226.295 652.832 225.826 653.003 225.442 653.344C225.068 653.675 224.839 654.139 224.754 654.736H228.962ZM233.365 648.832H235.717L233.989 652.864H232.453L233.365 648.832ZM239.563 648.16V660H237.323V648.16H239.563ZM244.016 648.16V660H241.776V648.16H244.016ZM255.034 651.008C255.706 651.008 256.303 651.157 256.826 651.456C257.348 651.744 257.754 652.176 258.042 652.752C258.34 653.317 258.49 654 258.49 654.8V660H256.25V655.104C256.25 654.4 256.074 653.861 255.722 653.488C255.37 653.104 254.89 652.912 254.282 652.912C253.663 652.912 253.172 653.104 252.81 653.488C252.458 653.861 252.282 654.4 252.282 655.104V660H250.042V648.16H252.282V652.24C252.57 651.856 252.954 651.557 253.434 651.344C253.914 651.12 254.447 651.008 255.034 651.008ZM268.86 655.376C268.86 655.696 268.838 655.984 268.796 656.24H262.316C262.369 656.88 262.593 657.381 262.988 657.744C263.382 658.107 263.868 658.288 264.444 658.288C265.276 658.288 265.868 657.931 266.22 657.216H268.636C268.38 658.069 267.889 658.773 267.164 659.328C266.438 659.872 265.548 660.144 264.492 660.144C263.638 660.144 262.87 659.957 262.188 659.584C261.516 659.2 260.988 658.661 260.604 657.968C260.23 657.275 260.044 656.475 260.044 655.568C260.044 654.651 260.23 653.845 260.604 653.152C260.977 652.459 261.5 651.925 262.172 651.552C262.844 651.179 263.617 650.992 264.492 650.992C265.334 650.992 266.086 651.173 266.748 651.536C267.42 651.899 267.937 652.416 268.3 653.088C268.673 653.749 268.86 654.512 268.86 655.376ZM266.54 654.736C266.529 654.16 266.321 653.701 265.916 653.36C265.51 653.008 265.014 652.832 264.428 652.832C263.873 652.832 263.404 653.003 263.02 653.344C262.646 653.675 262.417 654.139 262.332 654.736H266.54ZM272.735 648.16V660H270.495V648.16H272.735ZM277.188 652.416C277.476 652.011 277.87 651.675 278.372 651.408C278.884 651.131 279.465 650.992 280.116 650.992C280.873 650.992 281.556 651.179 282.164 651.552C282.782 651.925 283.268 652.459 283.62 653.152C283.982 653.835 284.164 654.629 284.164 655.536C284.164 656.443 283.982 657.248 283.62 657.952C283.268 658.645 282.782 659.184 282.164 659.568C281.556 659.952 280.873 660.144 280.116 660.144C279.465 660.144 278.889 660.011 278.388 659.744C277.897 659.477 277.497 659.141 277.188 658.736V664.224H274.948V651.136H277.188V652.416ZM281.876 655.536C281.876 655.003 281.764 654.544 281.54 654.16C281.326 653.765 281.038 653.467 280.676 653.264C280.324 653.061 279.94 652.96 279.524 652.96C279.118 652.96 278.734 653.067 278.372 653.28C278.02 653.483 277.732 653.781 277.508 654.176C277.294 654.571 277.188 655.035 277.188 655.568C277.188 656.101 277.294 656.565 277.508 656.96C277.732 657.355 278.02 657.659 278.372 657.872C278.734 658.075 279.118 658.176 279.524 658.176C279.94 658.176 280.324 658.069 280.676 657.856C281.038 657.643 281.326 657.339 281.54 656.944C281.764 656.549 281.876 656.08 281.876 655.536ZM298.084 651.136L292.596 664.192H290.212L292.132 659.776L288.58 651.136H291.092L293.38 657.328L295.7 651.136H298.084ZM303.228 660.144C302.374 660.144 301.606 659.957 300.924 659.584C300.241 659.2 299.702 658.661 299.308 657.968C298.924 657.275 298.732 656.475 298.732 655.568C298.732 654.661 298.929 653.861 299.324 653.168C299.729 652.475 300.278 651.941 300.972 651.568C301.665 651.184 302.438 650.992 303.292 650.992C304.145 650.992 304.918 651.184 305.612 651.568C306.305 651.941 306.849 652.475 307.244 653.168C307.649 653.861 307.852 654.661 307.852 655.568C307.852 656.475 307.644 657.275 307.227 657.968C306.822 658.661 306.268 659.2 305.564 659.584C304.87 659.957 304.092 660.144 303.228 660.144ZM303.228 658.192C303.633 658.192 304.012 658.096 304.364 657.904C304.726 657.701 305.014 657.403 305.228 657.008C305.441 656.613 305.548 656.133 305.548 655.568C305.548 654.725 305.324 654.08 304.876 653.632C304.438 653.173 303.9 652.944 303.26 652.944C302.62 652.944 302.081 653.173 301.644 653.632C301.217 654.08 301.004 654.725 301.004 655.568C301.004 656.411 301.212 657.061 301.628 657.52C302.054 657.968 302.588 658.192 303.228 658.192ZM317.863 651.136V660H315.607V658.88C315.319 659.264 314.94 659.568 314.471 659.792C314.012 660.005 313.511 660.112 312.967 660.112C312.273 660.112 311.66 659.968 311.127 659.68C310.593 659.381 310.172 658.949 309.863 658.384C309.564 657.808 309.415 657.125 309.415 656.336V651.136H311.655V656.016C311.655 656.72 311.831 657.264 312.183 657.648C312.535 658.021 313.015 658.208 313.623 658.208C314.241 658.208 314.727 658.021 315.079 657.648C315.431 657.264 315.607 656.72 315.607 656.016V651.136H317.863ZM327.277 660.144C326.552 660.144 325.901 660.016 325.325 659.76C324.749 659.493 324.291 659.136 323.949 658.688C323.619 658.24 323.437 657.744 323.405 657.2H325.661C325.704 657.541 325.869 657.824 326.157 658.048C326.456 658.272 326.824 658.384 327.261 658.384C327.688 658.384 328.019 658.299 328.253 658.128C328.499 657.957 328.621 657.739 328.621 657.472C328.621 657.184 328.472 656.971 328.173 656.832C327.885 656.683 327.421 656.523 326.781 656.352C326.12 656.192 325.576 656.027 325.149 655.856C324.733 655.685 324.371 655.424 324.061 655.072C323.763 654.72 323.613 654.245 323.613 653.648C323.613 653.157 323.752 652.709 324.029 652.304C324.317 651.899 324.723 651.579 325.245 651.344C325.779 651.109 326.403 650.992 327.117 650.992C328.173 650.992 329.016 651.259 329.645 651.792C330.275 652.315 330.621 653.024 330.685 653.92H328.541C328.509 653.568 328.36 653.291 328.093 653.088C327.837 652.875 327.491 652.768 327.053 652.768C326.648 652.768 326.333 652.843 326.109 652.992C325.896 653.141 325.789 653.349 325.789 653.616C325.789 653.915 325.939 654.144 326.237 654.304C326.536 654.453 327 654.608 327.629 654.768C328.269 654.928 328.797 655.093 329.213 655.264C329.629 655.435 329.987 655.701 330.285 656.064C330.595 656.416 330.755 656.885 330.765 657.472C330.765 657.984 330.621 658.443 330.333 658.848C330.056 659.253 329.651 659.573 329.117 659.808C328.595 660.032 327.981 660.144 327.277 660.144ZM340.844 655.376C340.844 655.696 340.823 655.984 340.78 656.24H334.3C334.353 656.88 334.577 657.381 334.972 657.744C335.367 658.107 335.852 658.288 336.428 658.288C337.26 658.288 337.852 657.931 338.204 657.216H340.62C340.364 658.069 339.873 658.773 339.148 659.328C338.423 659.872 337.532 660.144 336.476 660.144C335.623 660.144 334.855 659.957 334.172 659.584C333.5 659.2 332.972 658.661 332.588 657.968C332.215 657.275 332.028 656.475 332.028 655.568C332.028 654.651 332.215 653.845 332.588 653.152C332.961 652.459 333.484 651.925 334.156 651.552C334.828 651.179 335.601 650.992 336.476 650.992C337.319 650.992 338.071 651.173 338.732 651.536C339.404 651.899 339.921 652.416 340.284 653.088C340.657 653.749 340.844 654.512 340.844 655.376ZM338.524 654.736C338.513 654.16 338.305 653.701 337.9 653.36C337.495 653.008 336.999 652.832 336.412 652.832C335.857 652.832 335.388 653.003 335.004 653.344C334.631 653.675 334.401 654.139 334.316 654.736H338.524ZM341.903 655.568C341.903 654.651 342.09 653.851 342.463 653.168C342.836 652.475 343.354 651.941 344.015 651.568C344.676 651.184 345.434 650.992 346.287 650.992C347.386 650.992 348.292 651.269 349.007 651.824C349.732 652.368 350.218 653.136 350.463 654.128H348.047C347.919 653.744 347.7 653.445 347.391 653.232C347.092 653.008 346.719 652.896 346.271 652.896C345.631 652.896 345.124 653.131 344.751 653.6C344.378 654.059 344.191 654.715 344.191 655.568C344.191 656.411 344.378 657.067 344.751 657.536C345.124 657.995 345.631 658.224 346.271 658.224C347.178 658.224 347.77 657.819 348.047 657.008H350.463C350.218 657.968 349.732 658.731 349.007 659.296C348.282 659.861 347.375 660.144 346.287 660.144C345.434 660.144 344.676 659.957 344.015 659.584C343.354 659.2 342.836 658.667 342.463 657.984C342.09 657.291 341.903 656.485 341.903 655.568ZM360.472 651.136V660H358.216V658.88C357.928 659.264 357.549 659.568 357.08 659.792C356.621 660.005 356.12 660.112 355.576 660.112C354.883 660.112 354.269 659.968 353.736 659.68C353.203 659.381 352.781 658.949 352.472 658.384C352.173 657.808 352.024 657.125 352.024 656.336V651.136H354.264V656.016C354.264 656.72 354.44 657.264 354.792 657.648C355.144 658.021 355.624 658.208 356.232 658.208C356.851 658.208 357.336 658.021 357.688 657.648C358.04 657.264 358.216 656.72 358.216 656.016V651.136H360.472ZM364.922 652.512C365.21 652.043 365.583 651.675 366.042 651.408C366.511 651.141 367.045 651.008 367.642 651.008V653.36H367.05C366.346 653.36 365.813 653.525 365.45 653.856C365.098 654.187 364.922 654.763 364.922 655.584V660H362.682V651.136H364.922V652.512ZM377.391 655.376C377.391 655.696 377.37 655.984 377.327 656.24H370.847C370.9 656.88 371.124 657.381 371.519 657.744C371.914 658.107 372.399 658.288 372.975 658.288C373.807 658.288 374.399 657.931 374.751 657.216H377.167C376.911 658.069 376.42 658.773 375.695 659.328C374.97 659.872 374.079 660.144 373.023 660.144C372.17 660.144 371.402 659.957 370.719 659.584C370.047 659.2 369.519 658.661 369.135 657.968C368.762 657.275 368.575 656.475 368.575 655.568C368.575 654.651 368.762 653.845 369.135 653.152C369.508 652.459 370.031 651.925 370.703 651.552C371.375 651.179 372.148 650.992 373.023 650.992C373.866 650.992 374.618 651.173 375.279 651.536C375.951 651.899 376.468 652.416 376.831 653.088C377.204 653.749 377.391 654.512 377.391 655.376ZM375.071 654.736C375.06 654.16 374.852 653.701 374.447 653.36C374.042 653.008 373.546 652.832 372.959 652.832C372.404 652.832 371.935 653.003 371.551 653.344C371.178 653.675 370.948 654.139 370.863 654.736H375.071ZM381.266 648.16V660H379.026V648.16H381.266ZM391.959 651.136L386.471 664.192H384.087L386.007 659.776L382.455 651.136H384.967L387.255 657.328L389.575 651.136H391.959ZM399.219 652.512C399.507 652.043 399.88 651.675 400.339 651.408C400.808 651.141 401.342 651.008 401.939 651.008V653.36H401.347C400.643 653.36 400.11 653.525 399.747 653.856C399.395 654.187 399.219 654.763 399.219 655.584V660H396.979V651.136H399.219V652.512ZM411.688 655.376C411.688 655.696 411.666 655.984 411.624 656.24H405.144C405.197 656.88 405.421 657.381 405.816 657.744C406.21 658.107 406.696 658.288 407.272 658.288C408.104 658.288 408.696 657.931 409.048 657.216H411.464C411.208 658.069 410.717 658.773 409.992 659.328C409.266 659.872 408.376 660.144 407.32 660.144C406.466 660.144 405.698 659.957 405.016 659.584C404.344 659.2 403.816 658.661 403.432 657.968C403.058 657.275 402.872 656.475 402.872 655.568C402.872 654.651 403.058 653.845 403.432 653.152C403.805 652.459 404.328 651.925 405 651.552C405.672 651.179 406.445 650.992 407.32 650.992C408.162 650.992 408.914 651.173 409.576 651.536C410.248 651.899 410.765 652.416 411.128 653.088C411.501 653.749 411.688 654.512 411.688 655.376ZM409.368 654.736C409.357 654.16 409.149 653.701 408.744 653.36C408.338 653.008 407.842 652.832 407.256 652.832C406.701 652.832 406.232 653.003 405.848 653.344C405.474 653.675 405.245 654.139 405.16 654.736H409.368ZM416.715 660.144C415.989 660.144 415.339 660.016 414.763 659.76C414.187 659.493 413.728 659.136 413.387 658.688C413.056 658.24 412.875 657.744 412.843 657.2H415.099C415.141 657.541 415.307 657.824 415.595 658.048C415.893 658.272 416.261 658.384 416.699 658.384C417.125 658.384 417.456 658.299 417.691 658.128C417.936 657.957 418.059 657.739 418.059 657.472C418.059 657.184 417.909 656.971 417.611 656.832C417.323 656.683 416.859 656.523 416.219 656.352C415.557 656.192 415.013 656.027 414.587 655.856C414.171 655.685 413.808 655.424 413.499 655.072C413.2 654.72 413.051 654.245 413.051 653.648C413.051 653.157 413.189 652.709 413.467 652.304C413.755 651.899 414.16 651.579 414.683 651.344C415.216 651.109 415.84 650.992 416.555 650.992C417.611 650.992 418.453 651.259 419.083 651.792C419.712 652.315 420.059 653.024 420.123 653.92H417.979C417.947 653.568 417.797 653.291 417.531 653.088C417.275 652.875 416.928 652.768 416.491 652.768C416.085 652.768 415.771 652.843 415.547 652.992C415.333 653.141 415.227 653.349 415.227 653.616C415.227 653.915 415.376 654.144 415.675 654.304C415.973 654.453 416.437 654.608 417.067 654.768C417.707 654.928 418.235 655.093 418.651 655.264C419.067 655.435 419.424 655.701 419.723 656.064C420.032 656.416 420.192 656.885 420.203 657.472C420.203 657.984 420.059 658.443 419.771 658.848C419.493 659.253 419.088 659.573 418.555 659.808C418.032 660.032 417.419 660.144 416.715 660.144ZM430.282 655.376C430.282 655.696 430.26 655.984 430.218 656.24H423.738C423.791 656.88 424.015 657.381 424.41 657.744C424.804 658.107 425.29 658.288 425.866 658.288C426.698 658.288 427.29 657.931 427.642 657.216H430.058C429.802 658.069 429.311 658.773 428.586 659.328C427.86 659.872 426.97 660.144 425.914 660.144C425.06 660.144 424.292 659.957 423.61 659.584C422.938 659.2 422.41 658.661 422.026 657.968C421.652 657.275 421.465 656.475 421.465 655.568C421.465 654.651 421.652 653.845 422.026 653.152C422.399 652.459 422.922 651.925 423.594 651.552C424.266 651.179 425.039 650.992 425.914 650.992C426.756 650.992 427.508 651.173 428.17 651.536C428.842 651.899 429.359 652.416 429.722 653.088C430.095 653.749 430.282 654.512 430.282 655.376ZM427.962 654.736C427.951 654.16 427.743 653.701 427.338 653.36C426.932 653.008 426.436 652.832 425.85 652.832C425.295 652.832 424.826 653.003 424.442 653.344C424.068 653.675 423.839 654.139 423.754 654.736H427.962ZM434.525 652.976V657.264C434.525 657.563 434.594 657.781 434.733 657.92C434.882 658.048 435.127 658.112 435.469 658.112H436.509V660H435.101C433.213 660 432.269 659.083 432.269 657.248V652.976H431.213V651.136H432.269V648.944H434.525V651.136H436.509V652.976H434.525ZM443.068 650.08C442.673 650.08 442.343 649.957 442.076 649.712C441.82 649.456 441.692 649.141 441.692 648.768C441.692 648.395 441.82 648.085 442.076 647.84C442.343 647.584 442.673 647.456 443.068 647.456C443.463 647.456 443.788 647.584 444.044 647.84C444.311 648.085 444.444 648.395 444.444 648.768C444.444 649.141 444.311 649.456 444.044 649.712C443.788 649.957 443.463 650.08 443.068 650.08ZM444.172 651.136V660H441.932V651.136H444.172ZM448.993 652.976V657.264C448.993 657.563 449.063 657.781 449.201 657.92C449.351 658.048 449.596 658.112 449.937 658.112H450.977V660H449.569C447.681 660 446.737 659.083 446.737 657.248V652.976H445.681V651.136H446.737V648.944H448.993V651.136H450.977V652.976H448.993ZM453.58 660.112C453.175 660.112 452.839 659.989 452.572 659.744C452.316 659.488 452.188 659.173 452.188 658.8C452.188 658.427 452.316 658.117 452.572 657.872C452.839 657.616 453.175 657.488 453.58 657.488C453.975 657.488 454.3 657.616 454.556 657.872C454.812 658.117 454.94 658.427 454.94 658.8C454.94 659.173 454.812 659.488 454.556 659.744C454.3 659.989 453.975 660.112 453.58 660.112Z" fill="white"/>
<path d="M65.8248 54L70.7248 58.9C70.9248 59.1 71.0208 59.3334 71.0128 59.6C71.0048 59.8667 70.9005 60.1 70.6998 60.3C70.4998 60.4834 70.2665 60.5794 69.9998 60.588C69.7332 60.5967 69.4998 60.5007 69.2998 60.3L62.6998 53.7C62.5998 53.6 62.5288 53.4917 62.4868 53.375C62.4448 53.2584 62.4245 53.1334 62.4258 53C62.4272 52.8667 62.4482 52.7417 62.4888 52.625C62.5295 52.5084 62.6002 52.4 62.7008 52.3L69.3008 45.7C69.4842 45.5167 69.7135 45.425 69.9888 45.425C70.2642 45.425 70.5015 45.5167 70.7008 45.7C70.9008 45.9 71.0008 46.1377 71.0008 46.413C71.0008 46.6884 70.9008 46.9257 70.7008 47.125L65.8248 52H76.9998C77.2832 52 77.5208 52.096 77.7128 52.288C77.9048 52.48 78.0005 52.7174 77.9998 53C77.9992 53.2827 77.9032 53.5204 77.7118 53.713C77.5205 53.9057 77.2832 54.0014 76.9998 54H65.8248Z" fill="white"/>
<path d="M504.147 512.575H123V512.765H504.147V512.575Z" fill="#EBEBEB"/>
<path d="M363.634 517.766H344.226V517.957H363.634V517.766Z" fill="#EBEBEB"/>
<path d="M470.179 521.89H424.189V522.081H470.179V521.89Z" fill="#EBEBEB"/>
<path d="M340.094 517.858H292.58V518.048H340.094V517.858Z" fill="#EBEBEB"/>
<path d="M261.768 523.56H251.828V523.75H261.768V523.56Z" fill="#EBEBEB"/>
<path d="M316.691 523.56H271.426V523.75H316.691V523.56Z" fill="#EBEBEB"/>
<path d="M192.3 520.343H162.99V520.533H192.3V520.343Z" fill="#EBEBEB"/>
<path d="M303.663 478.577H156.472C155.319 478.575 154.214 478.115 153.399 477.299C152.584 476.483 152.127 475.377 152.127 474.224V267.315C152.137 266.168 152.599 265.072 153.413 264.264C154.226 263.456 155.326 263.002 156.472 263H303.663C304.818 263 305.925 263.459 306.741 264.275C307.557 265.091 308.016 266.198 308.016 267.353V474.224C308.016 475.378 307.557 476.485 306.741 477.302C305.925 478.118 304.818 478.577 303.663 478.577ZM156.472 263.152C155.369 263.154 154.313 263.594 153.534 264.374C152.755 265.155 152.318 266.212 152.318 267.315V474.224C152.318 475.326 152.755 476.384 153.534 477.164C154.313 477.945 155.369 478.384 156.472 478.386H303.663C304.767 478.384 305.824 477.945 306.604 477.165C307.384 476.385 307.823 475.327 307.825 474.224V267.315C307.823 266.211 307.384 265.154 306.604 264.374C305.824 263.594 304.767 263.154 303.663 263.152H156.472Z" fill="#EBEBEB"/>
<path d="M468.555 478.577H321.357C320.203 478.575 319.097 478.115 318.281 477.299C317.465 476.484 317.006 475.378 317.004 474.224V267.315C317.016 266.167 317.48 265.071 318.294 264.264C319.109 263.456 320.209 263.002 321.357 263H468.555C469.701 263.004 470.798 263.459 471.61 264.267C472.422 265.074 472.883 266.169 472.893 267.315V474.224C472.893 475.376 472.436 476.48 471.623 477.296C470.81 478.112 469.707 478.573 468.555 478.577ZM321.357 263.152C320.253 263.154 319.196 263.594 318.416 264.374C317.636 265.154 317.196 266.211 317.194 267.315V474.224C317.196 475.327 317.636 476.385 318.416 477.165C319.196 477.945 320.253 478.384 321.357 478.386H468.555C469.659 478.384 470.716 477.945 471.496 477.165C472.276 476.385 472.716 475.327 472.718 474.224V267.315C472.716 266.211 472.276 265.154 471.496 264.374C470.716 263.594 469.659 263.154 468.555 263.152H321.357Z" fill="#EBEBEB"/>
<path d="M272.379 446.461H221.762L218.69 411.014H269.307L272.379 446.461Z" fill="#E6E6E6"/>
<path d="M275.002 446.461H224.386L221.313 411.014H271.93L275.002 446.461Z" fill="#F0F0F0"/>
<path d="M231.307 438.846L229.614 418.622H265.008L266.7 438.846H231.307Z" fill="white"/>
<path d="M283.76 446.461H277.821V512.575H283.76V446.461Z" fill="#E6E6E6"/>
<path d="M285.636 446.461H281.512V512.575H285.636V446.461Z" fill="#F0F0F0"/>
<path d="M228.151 453.756H285.636V446.461H228.151V453.756Z" fill="#F0F0F0"/>
<path d="M230.179 453.756H224.24V512.575H230.179V453.756Z" fill="#E6E6E6"/>
<path d="M232.054 453.756H227.93V512.575H232.054V453.756Z" fill="#F0F0F0"/>
<path d="M187.909 453.756H181.971V512.575H187.909V453.756Z" fill="#E6E6E6"/>
<path d="M189.784 453.756H185.66V512.575H189.784V453.756Z" fill="#F0F0F0"/>
<path d="M246.178 453.756H240.24V512.575H246.178V453.756Z" fill="#E6E6E6"/>
<path d="M248.047 453.756H243.923V512.575H248.047V453.756Z" fill="#F0F0F0"/>
<path d="M228.15 446.461H181.971V453.756H228.15V446.461Z" fill="#E6E6E6"/>
<path d="M400.353 281.608H221.725V381.056H400.353V281.608Z" fill="#E0E0E0"/>
<path d="M410.163 281.608H222.624V381.056H410.163V281.608Z" fill="#F5F5F5"/>
<path d="M407.1 377.992V284.672H225.689V377.992H407.1Z" fill="white"/>
<path d="M299.143 377.992L333.393 284.672H276.869L242.619 377.992H299.143Z" fill="#F5F5F5"/>
<path d="M353.548 377.992L387.798 284.672H345.155L310.905 377.992H353.548Z" fill="#F5F5F5"/>
<path d="M456.968 417.593H441.783V512.575H456.968V417.593Z" fill="#E6E6E6"/>
<path d="M452.974 512.575H456.968V505.265H448.789L452.974 512.575Z" fill="#FAFAFA"/>
<path d="M316.965 417.593H301.78V512.575H316.965V417.593Z" fill="#E6E6E6"/>
<path d="M456.969 417.593H313.482V510.6H456.969V417.593Z" fill="#FAFAFA"/>
<path d="M454.254 447.605H316.203V421.336H454.254V447.605ZM316.965 446.842H453.492V422.098H316.965V446.842Z" fill="#E6E6E6"/>
<path d="M429.953 434.089H343.181C339.156 434.089 335.276 430.842 332.509 425.17L332.25 424.629H440.877L440.618 425.17C437.828 430.842 434.016 434.089 429.953 434.089ZM333.5 425.368C336.077 430.422 339.599 433.304 343.181 433.304H429.953C433.551 433.304 437.058 430.422 439.634 425.368H333.5Z" fill="#E6E6E6"/>
<path d="M317.477 512.575H313.482V505.265H321.662L317.477 512.575Z" fill="#FAFAFA"/>
<path d="M454.254 477.204H316.203V450.966H454.254V477.204ZM316.965 476.442H453.492V451.729H316.965V476.442Z" fill="#E6E6E6"/>
<path d="M429.953 463.72H343.181C339.156 463.72 335.276 460.465 332.509 454.801L332.25 454.252H440.877L440.618 454.801C437.828 460.434 434.016 463.72 429.953 463.72ZM333.5 455.014C336.077 460.068 339.599 462.957 343.181 462.957H429.953C433.551 462.957 437.058 460.068 439.634 455.014H333.5Z" fill="#E6E6E6"/>
<path d="M454.254 506.858H316.203V480.589H454.254V506.858ZM316.965 506.095H453.492V481.351H316.965V506.095Z" fill="#E6E6E6"/>
<path d="M429.953 493.342H343.181C339.156 493.342 335.276 490.095 332.509 484.431L332.25 483.882H440.877L440.618 484.431C437.828 490.095 434.016 493.342 429.953 493.342ZM333.5 484.644C336.077 489.699 339.599 492.58 343.181 492.58H429.953C433.551 492.58 437.058 489.699 439.634 484.644H333.5Z" fill="#E6E6E6"/>
<path d="M215.222 430.156V432H214.049L213.073 446.461H198.711L197.743 432H196.562V430.156H215.222Z" fill="#E6E6E6"/>
<path d="M210.497 394.275C209.323 385.661 197.698 383.206 182.947 382.886C168.914 382.589 164.416 377.626 164.416 377.626C164.416 377.626 164.462 397.728 184.685 405.015C203.888 411.922 211.678 402.904 210.497 394.275Z" fill="#E6E6E6"/>
<path d="M203.33 413.797C203.574 410.26 209.231 403.75 222.837 406.707C232.671 408.85 236.33 403.75 236.33 403.75C236.33 403.75 235.415 418.142 220.627 422.464C206.578 426.573 202.896 420.032 203.33 413.797Z" fill="#E6E6E6"/>
<path d="M206.433 435.583C206.51 435.584 206.586 435.568 206.655 435.536C206.725 435.505 206.787 435.458 206.837 435.4C207.82 434.234 207.012 431.444 205.899 427.579C204.466 422.624 202.683 416.45 204.192 411.975C205.029 409.611 206.006 407.3 207.119 405.053C209.254 400.541 211.098 396.668 209.558 392.567C209.534 392.502 209.498 392.442 209.45 392.391C209.403 392.34 209.346 392.299 209.283 392.27C209.22 392.241 209.151 392.225 209.082 392.223C209.012 392.221 208.943 392.232 208.878 392.257C208.813 392.282 208.754 392.319 208.703 392.367C208.653 392.415 208.612 392.472 208.584 392.536C208.556 392.599 208.541 392.668 208.539 392.737C208.537 392.807 208.55 392.876 208.575 392.941C209.955 396.592 208.285 400.129 206.166 404.611C205.039 406.894 204.046 409.241 203.193 411.64C201.585 416.427 203.414 422.777 204.886 427.869C205.755 430.918 206.654 433.967 206.037 434.729C205.988 434.782 205.95 434.844 205.926 434.912C205.903 434.98 205.894 435.052 205.899 435.124C205.905 435.196 205.926 435.265 205.96 435.329C205.994 435.392 206.041 435.448 206.098 435.492C206.195 435.561 206.314 435.594 206.433 435.583Z" fill="#E6E6E6"/>
<path d="M313.574 547C395.202 547 461.375 543.137 461.375 538.371C461.375 533.605 395.202 529.742 313.574 529.742C231.945 529.742 165.772 533.605 165.772 538.371C165.772 543.137 231.945 547 313.574 547Z" fill="#F5F5F5"/>
<path d="M313.543 496.3H205.297L199.374 322.215H307.62L313.543 496.3Z" fill="#407BFF"/>
<path d="M318.947 490.895H210.701L204.771 316.81H313.016L318.947 490.895Z" fill="#407BFF"/>
<path opacity="0.3" d="M318.947 490.895H210.701L204.771 316.81H313.016L318.947 490.895Z" fill="white"/>
<path d="M282.679 388.446C294.269 376.656 293.776 357.377 281.578 345.386C269.379 333.395 250.095 333.231 238.505 345.021C226.915 356.811 227.408 376.09 239.607 388.081C251.805 400.073 271.089 400.236 282.679 388.446Z" fill="#407BFF"/>
<path d="M285.727 366.741C285.883 370.889 284.977 375.008 283.097 378.709C281.067 382.697 277.966 386.04 274.142 388.364C270.318 390.688 265.922 391.901 261.448 391.866C256.868 391.841 252.375 390.612 248.42 388.303C244.465 385.994 241.187 382.685 238.914 378.709C236.795 375.065 235.612 370.953 235.469 366.741C235.328 363.474 235.853 360.213 237.012 357.156C238.17 354.099 239.938 351.309 242.208 348.956C244.478 346.604 247.203 344.737 250.217 343.47C253.231 342.203 256.471 341.561 259.74 341.585C266.475 341.633 272.933 344.273 277.772 348.957C282.611 353.642 285.46 360.011 285.727 366.741Z" fill="white"/>
<path opacity="0.6" d="M283.081 378.709C281.051 382.697 277.95 386.04 274.126 388.364C270.302 390.688 265.907 391.901 261.432 391.866C256.852 391.841 252.359 390.612 248.404 388.303C244.449 385.994 241.171 382.685 238.898 378.709C245.345 374.313 252.974 371.977 260.776 372.008C268.705 372.025 276.456 374.354 283.081 378.709Z" fill="#407BFF"/>
<path opacity="0.6" d="M268.424 366.114C272.685 361.778 272.504 354.689 268.019 350.28C263.533 345.871 256.442 345.811 252.181 350.146C247.919 354.481 248.1 361.57 252.585 365.98C257.071 370.389 264.162 370.449 268.424 366.114Z" fill="#407BFF"/>
<path d="M297.199 427.854H228.151L227.686 414.132H296.734L297.199 427.854Z" fill="white"/>
<path d="M298.038 452.377H228.982L228.517 438.655H297.573L298.038 452.377Z" fill="white"/>
<path d="M271.388 440.546L254.747 442.833C254.588 442.851 254.435 442.902 254.297 442.982C254.159 443.062 254.039 443.17 253.944 443.299C253.85 443.428 253.783 443.575 253.748 443.731C253.713 443.886 253.711 444.048 253.741 444.205L255.929 455.357C256 455.684 256.192 455.973 256.465 456.166C256.739 456.36 257.075 456.444 257.408 456.402L274.048 454.115C274.207 454.095 274.36 454.042 274.497 453.961C274.634 453.879 274.753 453.771 274.847 453.641C274.941 453.512 275.007 453.365 275.041 453.209C275.076 453.053 275.078 452.892 275.047 452.735L272.867 441.583C272.795 441.256 272.604 440.968 272.33 440.776C272.056 440.584 271.72 440.502 271.388 440.546ZM266.608 451.843L263.559 452.247L263.262 448.649C262.948 448.513 262.671 448.304 262.455 448.038C262.238 447.773 262.089 447.46 262.019 447.124C261.963 446.865 261.963 446.596 262.017 446.336C262.071 446.076 262.179 445.831 262.335 445.615C262.49 445.399 262.688 445.219 262.918 445.085C263.147 444.951 263.402 444.867 263.666 444.838C264.207 444.768 264.755 444.904 265.201 445.219C265.647 445.533 265.959 446.004 266.075 446.537C266.141 446.86 266.121 447.194 266.016 447.505C265.912 447.817 265.727 448.096 265.48 448.314L266.608 451.843Z" fill="#407BFF"/>
<path d="M269.741 439.944C269.447 439.981 269.149 439.907 268.906 439.737C268.664 439.566 268.494 439.311 268.43 439.021L268.216 437.931C267.912 436.444 267.078 435.117 265.869 434.197C264.661 433.278 263.16 432.828 261.645 432.931C260.881 432.974 260.135 433.182 259.457 433.539C258.78 433.897 258.188 434.396 257.721 435.003C257.254 435.609 256.923 436.309 256.75 437.055C256.577 437.802 256.567 438.576 256.721 439.326L256.965 440.584C256.993 440.723 256.992 440.867 256.962 441.006C256.931 441.145 256.872 441.276 256.788 441.391C256.704 441.506 256.597 441.602 256.474 441.673C256.351 441.744 256.214 441.788 256.073 441.804C255.778 441.845 255.479 441.772 255.235 441.601C254.992 441.43 254.823 441.173 254.762 440.881L254.556 439.822C254.347 438.831 254.34 437.809 254.535 436.816C254.731 435.823 255.126 434.88 255.696 434.043C256.265 433.206 256.998 432.494 257.85 431.947C258.702 431.401 259.656 431.033 260.654 430.865C262.818 430.501 265.039 430.985 266.856 432.216C268.673 433.446 269.946 435.329 270.412 437.474L270.655 438.724C270.684 438.865 270.682 439.011 270.651 439.151C270.619 439.291 270.558 439.424 270.471 439.539C270.385 439.654 270.275 439.75 270.149 439.819C270.023 439.889 269.884 439.931 269.741 439.944Z" fill="#407BFF"/>
<path d="M286.641 471.594H241.689L241.392 462.66H286.336L286.641 471.594Z" fill="#407BFF"/>
<path d="M264.954 420.993C264.968 421.319 264.915 421.644 264.799 421.949C264.683 422.254 264.506 422.532 264.279 422.766C264.053 423.001 263.781 423.187 263.48 423.313C263.18 423.439 262.856 423.503 262.53 423.501C261.858 423.496 261.214 423.233 260.73 422.766C260.246 422.299 259.96 421.665 259.931 420.993C259.917 420.667 259.97 420.342 260.086 420.037C260.202 419.732 260.379 419.454 260.606 419.22C260.832 418.985 261.104 418.799 261.405 418.673C261.706 418.547 262.029 418.483 262.355 418.485C263.028 418.488 263.673 418.751 264.157 419.218C264.641 419.685 264.927 420.321 264.954 420.993Z" fill="#263238"/>
<path d="M254.114 420.993C254.128 421.319 254.076 421.645 253.96 421.95C253.845 422.255 253.668 422.534 253.441 422.769C253.214 423.003 252.942 423.189 252.641 423.315C252.34 423.441 252.016 423.504 251.69 423.501C251.018 423.496 250.375 423.232 249.892 422.765C249.41 422.298 249.125 421.664 249.098 420.993C249.084 420.667 249.137 420.342 249.253 420.037C249.369 419.732 249.546 419.454 249.773 419.22C249.999 418.985 250.271 418.799 250.572 418.673C250.872 418.547 251.196 418.483 251.522 418.485C252.194 418.488 252.838 418.751 253.321 419.219C253.804 419.686 254.088 420.322 254.114 420.993Z" fill="#263238"/>
<path d="M243.343 420.993C243.357 421.319 243.304 421.644 243.188 421.949C243.072 422.254 242.895 422.532 242.668 422.766C242.442 423.001 242.17 423.187 241.869 423.313C241.568 423.439 241.245 423.503 240.919 423.501C240.247 423.497 239.602 423.235 239.12 422.767C238.637 422.3 238.353 421.664 238.327 420.993C238.314 420.667 238.367 420.342 238.483 420.037C238.599 419.732 238.775 419.454 239.002 419.22C239.229 418.985 239.501 418.799 239.801 418.673C240.102 418.547 240.425 418.483 240.751 418.485C241.423 418.488 242.068 418.751 242.551 419.219C243.034 419.686 243.318 420.322 243.343 420.993Z" fill="#263238"/>
<path d="M275.756 420.993C275.769 421.319 275.716 421.644 275.6 421.949C275.484 422.254 275.308 422.532 275.081 422.766C274.854 423.001 274.582 423.187 274.282 423.313C273.981 423.439 273.658 423.503 273.332 423.501C272.66 423.498 272.015 423.235 271.532 422.768C271.049 422.3 270.765 421.665 270.74 420.993C270.728 420.668 270.783 420.344 270.901 420.041C271.018 419.738 271.196 419.462 271.423 419.23C271.651 418.997 271.923 418.813 272.223 418.689C272.524 418.565 272.846 418.504 273.171 418.508C273.838 418.513 274.478 418.774 274.959 419.236C275.439 419.698 275.724 420.327 275.756 420.993Z" fill="#263238"/>
<path d="M286.557 420.993C286.572 421.319 286.519 421.645 286.404 421.95C286.288 422.255 286.112 422.534 285.885 422.769C285.658 423.003 285.385 423.189 285.084 423.315C284.783 423.441 284.459 423.504 284.133 423.501C283.462 423.496 282.818 423.232 282.335 422.765C281.853 422.298 281.568 421.664 281.541 420.993C281.528 420.667 281.581 420.342 281.697 420.037C281.813 419.732 281.989 419.454 282.216 419.22C282.443 418.985 282.714 418.799 283.015 418.673C283.316 418.547 283.639 418.483 283.965 418.485C284.637 418.488 285.282 418.751 285.765 419.219C286.248 419.686 286.531 420.322 286.557 420.993Z" fill="#263238"/>
<path d="M377.538 353.926C378.552 355.558 379.398 357.113 380.267 358.736C381.136 360.36 381.921 361.991 382.691 363.661C384.262 367.041 385.562 370.541 386.579 374.127C386.716 374.577 386.815 375.057 386.929 375.522L387.097 376.231L387.181 376.582L387.28 377.161C387.452 378.475 387.372 379.81 387.044 381.095C386.517 383.088 385.717 385 384.665 386.774C382.784 389.997 380.51 392.975 377.896 395.639L374.687 393.215C376.298 390.254 377.731 387.199 378.979 384.067C379.534 382.688 379.926 381.247 380.145 379.776C380.215 379.326 380.194 378.868 380.084 378.426L379.779 377.497C379.657 377.115 379.543 376.734 379.398 376.345C378.238 373.201 376.897 370.126 375.381 367.137C373.856 364.088 372.217 361.039 370.578 358.127L377.538 353.926Z" fill="#FF8B7B"/>
<path d="M375.503 392.155L371.996 394.008L376.021 398.719C376.021 398.719 378.537 397.019 378.651 394.427L375.503 392.155Z" fill="#FF8B7B"/>
<path d="M367.292 396.912L371.599 400.335L376.02 398.719L371.995 394.008L367.292 396.912Z" fill="#FF8B7B"/>
<path d="M352.565 328.984C352.481 329.411 352.184 329.708 351.909 329.655C351.635 329.602 351.475 329.205 351.558 328.786C351.642 328.367 351.94 328.024 352.222 328.115C352.504 328.207 352.649 328.557 352.565 328.984Z" fill="#263238"/>
<path d="M352.221 329.716C351.454 330.91 350.525 331.992 349.462 332.933C349.713 333.193 350.017 333.396 350.354 333.528C350.691 333.659 351.052 333.716 351.413 333.695L352.221 329.716Z" fill="#FF5652"/>
<path d="M350.85 344.672V339.671L357.466 340.434C357.466 340.434 357.36 344.733 353.655 345.998L350.85 344.672Z" fill="#FF8B7B"/>
<path d="M352.755 336.073L357.413 337.415L357.497 340.472L350.88 339.672L352.755 336.073Z" fill="#FF8B7B"/>
<path opacity="0.2" d="M357.413 337.415L352.756 336.073L351.849 337.812C351.898 339.181 352.326 340.51 353.085 341.651C353.844 342.792 354.904 343.701 356.148 344.276C356.948 343.158 357.416 341.837 357.497 340.464L357.413 337.415Z" fill="black"/>
<path d="M354.593 326.949C354.642 326.947 354.689 326.932 354.73 326.905C354.77 326.878 354.803 326.84 354.823 326.795C354.842 326.751 354.849 326.701 354.842 326.653C354.835 326.605 354.815 326.559 354.783 326.522C354.516 326.219 354.179 325.986 353.803 325.84C353.426 325.694 353.02 325.64 352.618 325.683C352.553 325.694 352.494 325.731 352.456 325.786C352.417 325.84 352.402 325.907 352.413 325.973C352.424 326.039 352.46 326.098 352.514 326.138C352.568 326.178 352.636 326.195 352.702 326.186C353.02 326.155 353.341 326.2 353.638 326.318C353.935 326.437 354.2 326.624 354.41 326.865C354.433 326.89 354.461 326.911 354.493 326.925C354.524 326.94 354.558 326.948 354.593 326.949Z" fill="#263238"/>
<path d="M364.335 336.698C363.573 340.624 363.1 346.059 365.859 348.674C365.859 348.674 364.792 352.653 357.474 352.653C349.463 352.653 353.625 349.162 353.625 349.162C356.956 348.125 356.925 344.337 356.163 341.287L364.335 336.698Z" fill="#FF8B7B"/>
<path d="M367.346 351.296C368.062 350.29 368.032 347.096 367.269 346.532C366.042 345.625 360.775 345.412 353.693 347.043C354.455 350.138 352.816 351.754 352.816 351.754L367.346 351.296Z" fill="#407BFF"/>
<path d="M391.175 532.273C390.957 532.349 390.727 532.382 390.496 532.369C390.266 532.356 390.041 532.297 389.833 532.196C389.755 532.123 389.701 532.027 389.679 531.922C389.657 531.817 389.668 531.708 389.711 531.609C389.735 531.527 389.777 531.451 389.834 531.386C389.89 531.322 389.96 531.27 390.039 531.236C390.763 530.885 392.425 531.564 392.501 531.594C392.524 531.603 392.543 531.619 392.557 531.64C392.571 531.66 392.578 531.684 392.578 531.708C392.577 531.733 392.571 531.757 392.559 531.778C392.547 531.8 392.53 531.818 392.509 531.83C392.079 532.019 391.632 532.167 391.175 532.273ZM390.298 531.411C390.248 531.423 390.199 531.441 390.153 531.465C390.106 531.482 390.063 531.51 390.029 531.547C389.994 531.585 389.969 531.629 389.955 531.678C389.887 531.907 389.955 531.983 390.001 532.006C390.291 532.25 391.358 532.006 392.113 531.724C391.538 531.486 390.919 531.379 390.298 531.411Z" fill="#407BFF"/>
<path d="M392.478 531.838H392.417C391.807 531.663 390.511 530.74 390.496 530.138C390.496 530.042 390.528 529.949 390.587 529.874C390.647 529.799 390.73 529.747 390.824 529.726C390.914 529.693 391.011 529.679 391.107 529.687C391.203 529.695 391.297 529.724 391.38 529.772C392.097 530.138 392.554 531.617 392.57 531.685C392.58 531.704 392.586 531.725 392.586 531.746C392.586 531.768 392.58 531.789 392.57 531.807C392.558 531.819 392.543 531.828 392.527 531.834C392.512 531.839 392.495 531.84 392.478 531.838ZM390.953 529.94H390.892C390.74 529.993 390.74 530.069 390.74 530.108C390.74 530.466 391.609 531.19 392.265 531.48C392.105 531.053 391.754 530.207 391.289 529.955C391.186 529.908 391.068 529.903 390.961 529.94H390.953Z" fill="#407BFF"/>
<path d="M351.582 533.172C350.896 533.172 350.233 533.073 350.012 532.768C349.954 532.687 349.923 532.589 349.923 532.49C349.923 532.39 349.954 532.293 350.012 532.211C350.055 532.137 350.113 532.072 350.183 532.021C350.252 531.97 350.332 531.934 350.416 531.914C351.308 531.67 353.183 532.737 353.259 532.783C353.282 532.795 353.301 532.814 353.312 532.837C353.323 532.861 353.326 532.887 353.32 532.913C353.317 532.939 353.306 532.963 353.288 532.983C353.27 533.002 353.247 533.015 353.221 533.019C352.68 533.119 352.132 533.17 351.582 533.172ZM350.736 532.128C350.655 532.114 350.573 532.114 350.492 532.128C350.44 532.138 350.391 532.159 350.348 532.189C350.305 532.22 350.268 532.258 350.24 532.303C350.149 532.463 350.187 532.539 350.24 532.585C350.492 532.936 351.841 532.943 352.84 532.798C352.188 532.442 351.474 532.214 350.736 532.128Z" fill="#407BFF"/>
<path d="M353.213 533.02H353.159C352.511 532.73 351.231 531.571 351.33 530.961C351.33 530.817 351.452 530.641 351.802 530.611C351.928 530.596 352.055 530.607 352.175 530.644C352.296 530.681 352.408 530.742 352.504 530.824C352.992 531.408 353.285 532.131 353.342 532.89C353.342 532.912 353.337 532.933 353.328 532.953C353.319 532.973 353.305 532.99 353.289 533.004C353.265 533.016 353.239 533.022 353.213 533.02ZM351.901 530.847H351.825C351.596 530.847 351.581 530.954 351.581 530.984C351.52 531.35 352.389 532.265 353.052 532.661C352.994 532.05 352.746 531.471 352.343 531.007C352.218 530.9 352.058 530.843 351.894 530.847H351.901Z" fill="#407BFF"/>
<path d="M359.098 532.898H353.739L353.205 520.48H358.564L359.098 532.898Z" fill="#FF8B7B"/>
<path d="M398.455 530.413L393.218 531.548L387.95 519.984L393.195 518.849L398.455 530.413Z" fill="#FF8B7B"/>
<path d="M392.707 531.022L398.599 529.749C398.702 529.728 398.81 529.741 398.904 529.788C398.998 529.835 399.073 529.913 399.118 530.009L401.161 534.445C401.215 534.553 401.243 534.671 401.243 534.792C401.242 534.912 401.214 535.031 401.159 535.138C401.103 535.245 401.024 535.337 400.926 535.408C400.828 535.478 400.716 535.524 400.597 535.543C398.538 535.947 397.509 536.046 394.925 536.602C393.332 536.953 389.734 537.83 387.531 538.302C385.328 538.775 384.573 536.663 385.435 536.275C389.284 534.514 390.885 532.966 391.929 531.526C392.118 531.268 392.395 531.089 392.707 531.022Z" fill="#263238"/>
<path d="M353.777 532.272H359.632C359.738 532.273 359.841 532.31 359.924 532.376C360.007 532.442 360.065 532.535 360.089 532.638L361.149 537.403C361.18 537.518 361.183 537.639 361.159 537.755C361.135 537.872 361.084 537.982 361.01 538.075C360.936 538.169 360.841 538.243 360.732 538.293C360.624 538.343 360.505 538.367 360.386 538.363C358.275 538.325 355.226 538.203 352.573 538.203C349.463 538.203 346.787 538.371 343.143 538.371C340.94 538.371 340.33 536.145 341.253 535.939C345.445 535.024 348.876 534.925 352.497 532.692C352.877 532.437 353.32 532.292 353.777 532.272Z" fill="#263238"/>
<path d="M375.449 349.901C380.472 351.052 384.596 363.882 384.596 363.882L374.557 371.558C371.951 368.772 370.113 365.357 369.221 361.648C367.445 354.925 370.311 348.712 375.449 349.901Z" fill="#407BFF"/>
<path opacity="0.4" d="M375.449 349.901C380.472 351.052 384.596 363.882 384.596 363.882L374.557 371.558C371.951 368.772 370.113 365.357 369.221 361.648C367.445 354.925 370.311 348.712 375.449 349.901Z" fill="black"/>
<path d="M349.02 365.201C347.77 366.55 346.52 367.754 345.209 369.012C344.561 369.622 343.905 370.232 343.234 370.819L342.221 371.711L341.969 371.932L341.535 372.282C341.087 372.64 340.592 372.932 340.063 373.151C339.475 373.401 338.843 373.531 338.203 373.533C337.657 373.535 337.115 373.439 336.602 373.251C336.034 373.034 335.516 372.705 335.078 372.282C334.519 371.737 334.11 371.057 333.889 370.308C333.773 369.939 333.699 369.558 333.668 369.172C333.628 368.721 333.628 368.267 333.668 367.815C333.706 367.45 333.751 367.129 333.812 366.832C334.021 365.793 334.317 364.773 334.697 363.783C335.04 362.842 335.434 361.921 335.878 361.023C336.366 360.055 336.831 359.346 337.296 358.538C339.185 355.444 341.34 352.521 343.738 349.802C346.111 347.1 348.726 344.62 351.551 342.393L354.356 345.282C352.39 347.92 350.453 350.748 348.662 353.53C346.879 356.297 345.25 359.16 343.783 362.106C343.456 362.822 343.021 363.63 342.815 364.21C342.542 364.883 342.306 365.57 342.106 366.268C341.914 366.897 341.769 367.539 341.672 368.189C341.667 368.291 341.667 368.392 341.672 368.494C341.672 368.555 341.672 368.585 341.672 368.425C341.659 368.254 341.626 368.085 341.573 367.922C341.408 367.382 341.106 366.893 340.696 366.504C340.331 366.169 339.904 365.91 339.438 365.742C339.029 365.587 338.595 365.507 338.158 365.506C337.737 365.501 337.319 365.581 336.93 365.742C336.799 365.796 336.671 365.859 336.549 365.933L336.839 365.666L337.761 364.827L339.583 363.12C340.787 361.984 342 360.772 343.143 359.644L349.02 365.201Z" fill="#FF8B7B"/>
<path opacity="0.2" d="M371.142 359.323C373.871 362.022 374.763 366.946 374.953 371.215L374.511 371.558C371.905 368.772 370.067 365.358 369.175 361.648C369.076 361.252 368.985 360.886 368.916 360.452L371.142 359.323Z" fill="black"/>
<path d="M343.692 355.238C342.594 361.031 341.908 372.93 345.087 396.485H373.795C373.993 392.087 371.226 370.605 375.472 349.863C372.299 349.254 369.091 348.849 365.867 348.651C361.805 348.418 357.733 348.418 353.67 348.651C352.329 348.773 351.002 348.972 349.859 349.177C348.338 349.444 346.934 350.166 345.833 351.249C344.732 352.331 343.985 353.722 343.692 355.238Z" fill="#407BFF"/>
<path opacity="0.4" d="M343.692 355.238C342.594 361.031 341.908 372.93 345.087 396.485H373.795C373.993 392.087 371.226 370.605 375.472 349.863C372.299 349.254 369.091 348.849 365.867 348.651C361.805 348.418 357.733 348.418 353.67 348.651C352.329 348.773 351.002 348.972 349.859 349.177C348.338 349.444 346.934 350.166 345.833 351.249C344.732 352.331 343.985 353.722 343.692 355.238Z" fill="black"/>
<path opacity="0.2" d="M348.082 363.829L342.899 362.586C342.739 365.727 342.723 369.614 342.952 374.424C345.338 371.711 348.387 367.472 348.082 363.829Z" fill="black"/>
<path opacity="0.2" d="M353.205 520.48L353.48 526.883H358.846L358.572 520.48H353.205Z" fill="black"/>
<path opacity="0.2" d="M393.195 518.849L387.95 519.984L390.664 525.946L395.909 524.81L393.195 518.849Z" fill="black"/>
<path d="M366.88 330.966C365.508 336.104 364.959 339.184 361.788 341.318C357.024 344.565 351.078 340.845 350.926 335.418C350.758 330.516 353.037 322.932 358.549 321.895C359.76 321.667 361.009 321.752 362.178 322.141C363.347 322.53 364.398 323.211 365.232 324.118C366.065 325.026 366.654 326.131 366.943 327.329C367.231 328.527 367.21 329.779 366.88 330.966Z" fill="#FF8B7B"/>
<path d="M354.852 331.157C354.593 330.471 353.411 325.157 354.524 323.778C355.637 322.398 368.329 323.396 370.204 325.241C373.322 328.29 371.157 331.035 367.75 334.564C365.189 337.217 365.089 340.205 363.794 340.662C361.507 341.425 358.015 340.708 357.314 338.292C356.613 335.875 354.852 331.157 354.852 331.157Z" fill="#263238"/>
<path d="M368.664 319.196C364.182 317.291 355.774 319.402 351.231 318.304C351.173 319.994 351.728 321.647 352.795 322.959C353.861 324.27 355.366 325.151 357.032 325.44C360.801 326.158 364.63 326.513 368.466 326.499C373.452 326.27 372.476 320.82 368.664 319.196Z" fill="#263238"/>
<path d="M369.366 325.401C371.004 325.563 372.653 325.248 374.115 324.494C374.954 326.522 370.342 327.078 369.366 325.401Z" fill="#263238"/>
<path d="M357.292 331.37C357.189 332.692 356.653 333.943 355.767 334.93C354.593 336.218 353.373 335.41 353.168 333.848C352.985 332.43 353.366 330.036 354.799 329.35C356.232 328.664 357.391 329.777 357.292 331.37Z" fill="#FF8B7B"/>
<path d="M355.264 396.508C355.264 396.508 361.362 437.481 364.693 452.834C368.345 469.642 387.966 525.252 387.966 525.252L397.563 523.171C397.563 523.171 383.842 477.845 380.793 454.343C378.43 436.292 373.787 396.493 373.787 396.493L355.264 396.508Z" fill="#407BFF"/>
<path d="M385.664 522.058C385.626 522.058 387.455 525.534 387.455 525.534L398.249 523.194L397.342 519.946L385.664 522.058Z" fill="#263238"/>
<path opacity="0.3" d="M359.113 411.106C366.149 412.486 365.402 438.724 364.556 452.224C362.528 442.68 359.555 424.324 357.527 411.296C358.019 411.054 358.578 410.987 359.113 411.106Z" fill="black"/>
<path d="M345.087 396.508C345.087 396.508 344.325 436.597 344.935 452.918C345.545 469.925 351.483 525.61 351.483 525.61H360.569C360.569 525.61 360.897 470.915 361.332 454.214C361.774 436.01 363.969 396.478 363.969 396.478L345.087 396.508Z" fill="#407BFF"/>
<path d="M349.737 522.027C349.691 522.027 350.248 525.793 350.248 525.793H361.293L361.598 522.431L349.737 522.027Z" fill="#263238"/>
<path d="M354.928 357.021C357.497 363.951 342.396 372.115 342.396 372.115L335.855 363.73C335.855 363.73 340.254 355.024 345.59 351.106C352.184 346.273 352.969 351.746 354.928 357.021Z" fill="#407BFF"/>
<path opacity="0.4" d="M354.928 357.021C357.497 363.951 342.396 372.115 342.396 372.115L335.855 363.73C335.855 363.73 340.254 355.024 345.59 351.106C352.184 346.273 352.969 351.746 354.928 357.021Z" fill="black"/>
<path d="M414.097 304.415C429.291 304.415 441.608 296.566 441.608 286.883C441.608 277.2 429.291 269.35 414.097 269.35C398.903 269.35 386.586 277.2 386.586 286.883C386.586 296.566 398.903 304.415 414.097 304.415Z" fill="#407BFF"/>
<path d="M404.171 295.71C402.359 295.704 400.607 295.06 399.222 293.89C397.838 292.72 396.91 291.1 396.602 289.314C396.299 287.38 396.735 285.402 397.824 283.775C398.913 282.147 400.575 280.99 402.479 280.533C404.042 280.173 405.678 280.311 407.157 280.929C408.637 281.547 409.885 282.614 410.727 283.978L428.389 280.334C429.068 280.186 429.778 280.299 430.377 280.65C430.976 281.002 431.421 281.567 431.622 282.233C431.714 282.582 431.734 282.947 431.681 283.305C431.627 283.663 431.502 284.006 431.311 284.313C431.121 284.621 430.869 284.886 430.573 285.093C430.276 285.301 429.941 285.445 429.586 285.518L429.129 285.609C429.061 285.622 428.997 285.649 428.941 285.69C428.886 285.731 428.84 285.784 428.809 285.846C428.781 285.908 428.766 285.976 428.766 286.044C428.766 286.112 428.781 286.18 428.809 286.242L429.121 287.05C429.226 287.312 429.236 287.602 429.15 287.871C429.064 288.139 428.886 288.37 428.649 288.521C428.461 288.637 428.303 288.794 428.185 288.98C428.068 289.167 427.994 289.377 427.97 289.596C427.948 289.848 427.846 290.085 427.681 290.276C427.515 290.466 427.294 290.599 427.048 290.656L426.69 290.732C426.441 290.778 426.185 290.744 425.957 290.634C425.73 290.524 425.543 290.345 425.424 290.122C425.266 289.856 425.029 289.646 424.745 289.522C424.462 289.397 424.147 289.364 423.844 289.427C423.541 289.49 423.266 289.646 423.056 289.873C422.845 290.1 422.711 290.387 422.672 290.694C422.651 290.944 422.551 291.18 422.387 291.369C422.222 291.558 422.002 291.69 421.757 291.746L421.399 291.822C421.151 291.867 420.895 291.832 420.668 291.722C420.44 291.613 420.254 291.434 420.134 291.212C420.02 291.023 419.866 290.861 419.683 290.738C419.5 290.614 419.292 290.531 419.074 290.496C418.781 290.461 418.511 290.319 418.314 290.099C418.118 289.879 418.009 289.594 418.007 289.299V288.43C418.004 288.362 417.986 288.295 417.955 288.235C417.924 288.174 417.88 288.121 417.826 288.079C417.773 288.037 417.711 288.008 417.645 287.992C417.578 287.976 417.51 287.975 417.443 287.988L411.81 289.147C411.58 290.707 410.875 292.159 409.79 293.305C408.706 294.451 407.295 295.235 405.749 295.55C405.23 295.656 404.701 295.71 404.171 295.71ZM402.647 281.226C400.918 281.63 399.406 282.674 398.416 284.148C397.426 285.622 397.031 287.416 397.311 289.169C397.611 290.801 398.484 292.271 399.774 293.314C401.063 294.357 402.684 294.904 404.341 294.856C405.999 294.808 407.585 294.168 408.812 293.053C410.04 291.937 410.827 290.419 411.032 288.773V288.499L417.245 287.241C417.423 287.198 417.609 287.195 417.788 287.232C417.967 287.27 418.136 287.347 418.282 287.458C418.428 287.569 418.548 287.711 418.632 287.874C418.716 288.037 418.763 288.216 418.769 288.399V289.268C418.771 289.372 418.808 289.472 418.875 289.551C418.942 289.63 419.034 289.684 419.135 289.703C419.468 289.751 419.786 289.874 420.065 290.063C420.344 290.251 420.576 290.501 420.744 290.793C420.784 290.875 420.849 290.943 420.93 290.987C421.01 291.03 421.102 291.048 421.193 291.037L421.544 290.961C421.633 290.938 421.712 290.887 421.77 290.816C421.827 290.744 421.861 290.656 421.864 290.564C421.912 290.09 422.11 289.643 422.429 289.288C422.747 288.933 423.171 288.689 423.637 288.591C424.104 288.492 424.59 288.545 425.025 288.74C425.46 288.936 425.821 289.265 426.057 289.68C426.096 289.762 426.16 289.829 426.239 289.873C426.318 289.917 426.409 289.935 426.499 289.924L426.865 289.848C426.952 289.824 427.03 289.772 427.086 289.701C427.142 289.629 427.174 289.542 427.177 289.451C427.215 289.117 427.329 288.795 427.51 288.511C427.691 288.227 427.934 287.988 428.222 287.813C428.306 287.752 428.367 287.665 428.396 287.566C428.425 287.466 428.42 287.36 428.382 287.264L428.069 286.456C428.005 286.289 427.977 286.11 427.989 285.932C428 285.754 428.051 285.58 428.136 285.423C428.222 285.267 428.341 285.13 428.485 285.024C428.628 284.918 428.794 284.845 428.969 284.809L429.434 284.71C429.685 284.656 429.924 284.552 430.134 284.405C430.345 284.257 430.523 284.068 430.659 283.849C430.795 283.631 430.886 283.387 430.925 283.133C430.965 282.879 430.953 282.619 430.89 282.37C430.741 281.89 430.416 281.484 429.981 281.234C429.545 280.984 429.031 280.907 428.542 281.02L410.384 284.794L410.247 284.558C409.517 283.259 408.385 282.233 407.021 281.635C405.656 281.036 404.134 280.898 402.685 281.242L402.647 281.226ZM404.171 292.874C403.224 292.885 402.295 292.62 401.496 292.112C400.55 291.491 399.85 290.562 399.513 289.483C399.176 288.403 399.224 287.24 399.649 286.192C400.073 285.144 400.848 284.276 401.842 283.735C402.835 283.195 403.985 283.015 405.095 283.228C406.206 283.44 407.209 284.031 407.932 284.9C408.656 285.769 409.056 286.862 409.064 287.993C409.071 289.124 408.687 290.222 407.976 291.101C407.264 291.98 406.27 292.585 405.162 292.813C404.838 292.872 404.509 292.897 404.179 292.889L404.171 292.874ZM404.171 283.871C403.887 283.873 403.604 283.901 403.325 283.955C402.794 284.068 402.291 284.285 401.843 284.593C401.396 284.901 401.014 285.293 400.718 285.749C400.422 286.204 400.22 286.714 400.121 287.248C400.022 287.781 400.03 288.33 400.143 288.861C400.256 289.392 400.472 289.895 400.78 290.343C401.088 290.79 401.481 291.172 401.936 291.468C402.392 291.763 402.901 291.966 403.435 292.065C403.969 292.164 404.517 292.156 405.048 292.043C405.845 291.877 406.576 291.479 407.147 290.899C407.718 290.318 408.105 289.582 408.258 288.782C408.411 287.982 408.324 287.155 408.008 286.405C407.692 285.654 407.161 285.014 406.481 284.565C405.806 284.116 405.012 283.88 404.202 283.887L404.171 283.871Z" fill="white"/>
<path opacity="0.6" d="M391.708 314.699C396.701 314.699 400.749 312.118 400.749 308.936C400.749 305.753 396.701 303.173 391.708 303.173C386.715 303.173 382.667 305.753 382.667 308.936C382.667 312.118 386.715 314.699 391.708 314.699Z" fill="#407BFF"/>
<path opacity="0.3" d="M377.324 317.062C379.374 317.062 381.036 316.004 381.036 314.699C381.036 313.393 379.374 312.335 377.324 312.335C375.273 312.335 373.611 313.393 373.611 314.699C373.611 316.004 375.273 317.062 377.324 317.062Z" fill="#407BFF"/>
</svg>
