<svg width="464" height="480" viewBox="0 0 464 480" fill="none" xmlns="http://www.w3.org/2000/svg">
<path d="M146.125 12.664C148.472 12.664 150.531 13.1227 152.301 14.04C154.093 14.9573 155.469 16.2693 156.429 17.976C157.411 19.6613 157.901 21.624 157.901 23.864C157.901 26.104 157.411 28.0667 156.429 29.752C155.469 31.416 154.093 32.7067 152.301 33.624C150.531 34.5413 148.472 35 146.125 35H138.317V12.664H146.125ZM145.965 31.192C148.312 31.192 150.125 30.552 151.405 29.272C152.685 27.992 153.325 26.1893 153.325 23.864C153.325 21.5387 152.685 19.7253 151.405 18.424C150.125 17.1013 148.312 16.44 145.965 16.44H142.797V31.192H145.965ZM169.127 35.288C167.42 35.288 165.884 34.9147 164.519 34.168C163.154 33.4 162.076 32.3227 161.287 30.936C160.519 29.5493 160.135 27.9493 160.135 26.136C160.135 24.3227 160.53 22.7227 161.319 21.336C162.13 19.9493 163.228 18.8827 164.615 18.136C166.002 17.368 167.548 16.984 169.255 16.984C170.962 16.984 172.508 17.368 173.895 18.136C175.282 18.8827 176.37 19.9493 177.159 21.336C177.97 22.7227 178.375 24.3227 178.375 26.136C178.375 27.9493 177.959 29.5493 177.127 30.936C176.316 32.3227 175.207 33.4 173.799 34.168C172.412 34.9147 170.855 35.288 169.127 35.288ZM169.127 31.384C169.938 31.384 170.695 31.192 171.399 30.808C172.124 30.4027 172.7 29.8053 173.127 29.016C173.554 28.2267 173.767 27.2667 173.767 26.136C173.767 24.4507 173.319 23.16 172.423 22.264C171.548 21.3467 170.471 20.888 169.191 20.888C167.911 20.888 166.834 21.3467 165.959 22.264C165.106 23.16 164.679 24.4507 164.679 26.136C164.679 27.8213 165.095 29.1227 165.927 30.04C166.78 30.936 167.847 31.384 169.127 31.384ZM191.485 17.016C193.597 17.016 195.304 17.688 196.605 19.032C197.906 20.3547 198.557 22.2107 198.557 24.6V35H194.077V25.208C194.077 23.8 193.725 22.7227 193.021 21.976C192.317 21.208 191.357 20.824 190.141 20.824C188.904 20.824 187.922 21.208 187.197 21.976C186.493 22.7227 186.141 23.8 186.141 25.208V35H181.661V17.272H186.141V19.48C186.738 18.712 187.496 18.1147 188.413 17.688C189.352 17.24 190.376 17.016 191.485 17.016ZM203.713 12.664H208.417L204.961 20.728H201.889L203.713 12.664ZM216.846 20.952V29.528C216.846 30.1253 216.985 30.5627 217.262 30.84C217.561 31.096 218.051 31.224 218.734 31.224H220.814V35H217.998C214.222 35 212.334 33.1653 212.334 29.496V20.952H210.222V17.272H212.334V12.888H216.846V17.272H220.814V20.952H216.846ZM261.517 12.664L255.277 35H249.997L245.805 19.096L241.421 35L236.173 35.032L230.157 12.664H234.957L238.893 30.008L243.437 12.664H248.429L252.717 29.912L256.685 12.664H261.517ZM272.314 35.288C270.608 35.288 269.072 34.9147 267.706 34.168C266.341 33.4 265.264 32.3227 264.474 30.936C263.706 29.5493 263.322 27.9493 263.322 26.136C263.322 24.3227 263.717 22.7227 264.506 21.336C265.317 19.9493 266.416 18.8827 267.802 18.136C269.189 17.368 270.736 16.984 272.442 16.984C274.149 16.984 275.696 17.368 277.082 18.136C278.469 18.8827 279.557 19.9493 280.346 21.336C281.157 22.7227 281.562 24.3227 281.562 26.136C281.562 27.9493 281.146 29.5493 280.314 30.936C279.504 32.3227 278.394 33.4 276.986 34.168C275.6 34.9147 274.042 35.288 272.314 35.288ZM272.314 31.384C273.125 31.384 273.882 31.192 274.586 30.808C275.312 30.4027 275.888 29.8053 276.314 29.016C276.741 28.2267 276.954 27.2667 276.954 26.136C276.954 24.4507 276.506 23.16 275.61 22.264C274.736 21.3467 273.658 20.888 272.378 20.888C271.098 20.888 270.021 21.3467 269.146 22.264C268.293 23.16 267.866 24.4507 267.866 26.136C267.866 27.8213 268.282 29.1227 269.114 30.04C269.968 30.936 271.034 31.384 272.314 31.384ZM289.329 20.024C289.905 19.0853 290.651 18.3493 291.569 17.816C292.507 17.2827 293.574 17.016 294.769 17.016V21.72H293.585C292.177 21.72 291.11 22.0507 290.385 22.712C289.681 23.3733 289.329 24.5253 289.329 26.168V35H284.849V17.272H289.329V20.024ZM302.266 20.024C302.842 19.0853 303.589 18.3493 304.506 17.816C305.445 17.2827 306.511 17.016 307.706 17.016V21.72H306.522C305.114 21.72 304.047 22.0507 303.322 22.712C302.618 23.3733 302.266 24.5253 302.266 26.168V35H297.786V17.272H302.266V20.024ZM327.684 17.272L316.708 43.384H311.94L315.78 34.552L308.676 17.272H313.7L318.276 29.656L322.916 17.272H327.684Z" fill="#BFBFBF"/>
<path d="M422.573 326.575H41.4268V326.765H422.573V326.575Z" fill="#EBEBEB"/>
<path d="M282.06 331.766H262.652V331.957H282.06V331.766Z" fill="#EBEBEB"/>
<path d="M388.605 335.89H342.616V336.081H388.605V335.89Z" fill="#EBEBEB"/>
<path d="M258.521 331.858H211.007V332.048H258.521V331.858Z" fill="#EBEBEB"/>
<path d="M180.195 337.56H170.255V337.75H180.195V337.56Z" fill="#EBEBEB"/>
<path d="M235.118 337.56H189.853V337.75H235.118V337.56Z" fill="#EBEBEB"/>
<path d="M110.727 334.343H81.417V334.533H110.727V334.343Z" fill="#EBEBEB"/>
<path d="M222.09 292.577H74.8988C73.7457 292.575 72.6405 292.115 71.8259 291.299C71.0112 290.483 70.5537 289.377 70.5537 288.224V81.3146C70.5637 80.1681 71.0257 79.0719 71.8393 78.264C72.6528 77.4562 73.7523 77.002 74.8988 77H222.09C223.244 77 224.352 77.4586 225.168 78.2749C225.984 79.0912 226.443 80.1983 226.443 81.3527V288.224C226.443 289.378 225.984 290.485 225.168 291.302C224.352 292.118 223.244 292.577 222.09 292.577ZM74.8988 77.1525C73.7962 77.1545 72.7395 77.5939 71.9606 78.3742C71.1817 79.1545 70.7443 80.212 70.7443 81.3146V288.224C70.7443 289.326 71.1817 290.384 71.9606 291.164C72.7395 291.945 73.7962 292.384 74.8988 292.386H222.09C223.193 292.384 224.251 291.945 225.031 291.165C225.811 290.385 226.25 289.327 226.252 288.224V81.3146C226.25 80.2113 225.811 79.1539 225.031 78.3737C224.251 77.5936 223.193 77.1545 222.09 77.1525H74.8988Z" fill="#EBEBEB"/>
<path d="M386.982 292.577H239.783C238.63 292.575 237.524 292.115 236.708 291.299C235.892 290.484 235.433 289.378 235.431 288.224V81.3146C235.443 80.1674 235.906 79.0712 236.721 78.2636C237.536 77.4559 238.636 77.0019 239.783 77H386.982C388.127 77.004 389.225 77.4591 390.037 78.2667C390.849 79.0744 391.31 80.1694 391.32 81.3146V288.224C391.32 289.376 390.863 290.48 390.05 291.296C389.237 292.112 388.134 292.573 386.982 292.577ZM239.783 77.1525C238.68 77.1545 237.623 77.5936 236.843 78.3737C236.062 79.1539 235.623 80.2113 235.621 81.3146V288.224C235.623 289.327 236.062 290.385 236.843 291.165C237.623 291.945 238.68 292.384 239.783 292.386H386.982C388.085 292.384 389.143 291.945 389.923 291.165C390.703 290.385 391.142 289.327 391.144 288.224V81.3146C391.142 80.2113 390.703 79.1539 389.923 78.3737C389.143 77.5936 388.085 77.1545 386.982 77.1525H239.783Z" fill="#EBEBEB"/>
<path d="M190.806 260.461H140.189L137.117 225.014H187.733L190.806 260.461Z" fill="#E6E6E6"/>
<path d="M193.429 260.461H142.812L139.74 225.014H190.357L193.429 260.461Z" fill="#F0F0F0"/>
<path d="M149.733 252.846L148.041 232.622H183.434L185.127 252.846H149.733Z" fill="white"/>
<path d="M202.186 260.461H196.248V326.575H202.186V260.461Z" fill="#E6E6E6"/>
<path d="M204.062 260.461H199.938V326.575H204.062V260.461Z" fill="#F0F0F0"/>
<path d="M146.578 267.756H204.062V260.461H146.578V267.756Z" fill="#F0F0F0"/>
<path d="M148.605 267.756H142.667V326.575H148.605V267.756Z" fill="#E6E6E6"/>
<path d="M150.48 267.756H146.356V326.575H150.48V267.756Z" fill="#F0F0F0"/>
<path d="M106.336 267.756H100.397V326.575H106.336V267.756Z" fill="#E6E6E6"/>
<path d="M108.211 267.756H104.087V326.575H108.211V267.756Z" fill="#F0F0F0"/>
<path d="M164.605 267.756H158.667V326.575H164.605V267.756Z" fill="#E6E6E6"/>
<path d="M166.474 267.756H162.35V326.575H166.474V267.756Z" fill="#F0F0F0"/>
<path d="M146.577 260.461H100.397V267.756H146.577V260.461Z" fill="#E6E6E6"/>
<path d="M318.78 95.6074H140.151V195.056H318.78V95.6074Z" fill="#E0E0E0"/>
<path d="M328.59 95.6074H141.051V195.056H328.59V95.6074Z" fill="#F5F5F5"/>
<path d="M325.526 191.992V98.6721L144.116 98.6721V191.992H325.526Z" fill="white"/>
<path d="M217.57 191.992L251.82 98.6721H195.296L161.046 191.992H217.57Z" fill="#F5F5F5"/>
<path d="M271.975 191.992L306.225 98.6721H263.582L229.332 191.992H271.975Z" fill="#F5F5F5"/>
<path d="M375.395 231.593H360.21V326.575H375.395V231.593Z" fill="#E6E6E6"/>
<path d="M371.401 326.575H375.395V319.264H367.216L371.401 326.575Z" fill="#FAFAFA"/>
<path d="M235.392 231.593H220.207V326.575H235.392V231.593Z" fill="#E6E6E6"/>
<path d="M375.395 231.593H231.908V324.6H375.395V231.593Z" fill="#FAFAFA"/>
<path d="M372.681 261.605H234.63V235.336H372.681V261.605ZM235.392 260.842H371.919V236.098H235.392V260.842Z" fill="#E6E6E6"/>
<path d="M348.38 248.089H261.608C257.583 248.089 253.703 244.842 250.936 239.17L250.677 238.629H359.304L359.044 239.17C356.254 244.842 352.443 248.089 348.38 248.089ZM251.927 239.369C254.503 244.423 258.025 247.304 261.608 247.304H348.38C351.978 247.304 355.484 244.423 358.061 239.369H251.927Z" fill="#E6E6E6"/>
<path d="M235.903 326.575H231.908V319.264H240.088L235.903 326.575Z" fill="#FAFAFA"/>
<path d="M372.681 291.204H234.63V264.966H372.681V291.204ZM235.392 290.442H371.919V265.729H235.392V290.442Z" fill="#E6E6E6"/>
<path d="M348.38 277.719H261.608C257.583 277.719 253.703 274.464 250.936 268.801L250.677 268.252H359.304L359.044 268.801C356.254 274.434 352.443 277.719 348.38 277.719ZM251.927 269.014C254.503 274.068 258.025 276.957 261.608 276.957H348.38C351.978 276.957 355.484 274.068 358.061 269.014H251.927Z" fill="#E6E6E6"/>
<path d="M372.681 320.858H234.63V294.589H372.681V320.858ZM235.392 320.095H371.919V295.351H235.392V320.095Z" fill="#E6E6E6"/>
<path d="M348.38 307.342H261.608C257.583 307.342 253.703 304.095 250.936 298.431L250.677 297.882H359.304L359.044 298.431C356.254 304.095 352.443 307.342 348.38 307.342ZM251.927 298.644C254.503 303.698 258.025 306.58 261.608 306.58H348.38C351.978 306.58 355.484 303.698 358.061 298.644H251.927Z" fill="#E6E6E6"/>
<path d="M133.649 244.156V246.001H132.475L131.5 260.461H117.138L116.17 246.001H114.988V244.156H133.649Z" fill="#E6E6E6"/>
<path d="M128.923 208.275C127.749 199.661 116.125 197.206 101.374 196.886C87.3403 196.589 82.8428 191.626 82.8428 191.626C82.8428 191.626 82.8885 211.728 103.112 219.015C122.314 225.922 130.105 216.904 128.923 208.275Z" fill="#E6E6E6"/>
<path d="M121.757 227.797C122.001 224.26 127.657 217.75 141.264 220.707C151.098 222.85 154.757 217.75 154.757 217.75C154.757 217.75 153.842 232.142 139.054 236.464C125.005 240.573 121.323 234.032 121.757 227.797Z" fill="#E6E6E6"/>
<path d="M124.86 249.583C124.936 249.584 125.012 249.568 125.082 249.536C125.152 249.505 125.214 249.458 125.264 249.4C126.247 248.234 125.439 245.444 124.326 241.579C122.893 236.624 121.109 230.45 122.619 225.975C123.455 223.611 124.433 221.3 125.546 219.053C127.68 214.541 129.525 210.668 127.985 206.567C127.961 206.502 127.924 206.442 127.877 206.391C127.83 206.34 127.773 206.299 127.71 206.27C127.646 206.241 127.578 206.225 127.509 206.223C127.439 206.221 127.37 206.232 127.305 206.257C127.24 206.282 127.18 206.319 127.13 206.367C127.079 206.415 127.039 206.472 127.011 206.535C126.983 206.599 126.967 206.668 126.966 206.737C126.964 206.807 126.977 206.876 127.002 206.94C128.382 210.592 126.712 214.129 124.593 218.611C123.466 220.894 122.473 223.241 121.62 225.639C120.012 230.427 121.841 236.777 123.312 241.869C124.181 244.918 125.081 247.967 124.463 248.729C124.414 248.782 124.377 248.844 124.353 248.912C124.33 248.98 124.32 249.052 124.326 249.124C124.332 249.196 124.352 249.265 124.387 249.329C124.421 249.392 124.468 249.447 124.524 249.492C124.622 249.561 124.741 249.593 124.86 249.583Z" fill="#E6E6E6"/>
<path d="M232 361C313.629 361 379.801 357.137 379.801 352.371C379.801 347.605 313.629 343.742 232 343.742C150.372 343.742 84.1992 347.605 84.1992 352.371C84.1992 357.137 150.372 361 232 361Z" fill="#F5F5F5"/>
<path d="M231.969 310.3H123.724L117.801 136.215H226.046L231.969 310.3Z" fill="#407BFF"/>
<path d="M237.374 304.895H129.128L123.197 130.81H231.443L237.374 304.895Z" fill="#407BFF"/>
<path opacity="0.3" d="M237.374 304.895H129.128L123.197 130.81H231.443L237.374 304.895Z" fill="white"/>
<path d="M201.106 202.446C212.696 190.656 212.203 171.377 200.005 159.386C187.806 147.395 168.522 147.231 156.932 159.021C145.342 170.811 145.835 190.09 158.033 202.081C170.232 214.073 189.516 214.236 201.106 202.446Z" fill="#407BFF"/>
<path d="M204.153 180.741C204.309 184.889 203.404 189.008 201.523 192.709C199.494 196.697 196.393 200.04 192.569 202.364C188.745 204.688 184.349 205.901 179.874 205.866C175.295 205.841 170.802 204.612 166.847 202.303C162.892 199.994 159.613 196.685 157.341 192.709C155.222 189.065 154.038 184.953 153.895 180.741C153.755 177.474 154.28 174.213 155.438 171.156C156.597 168.099 158.365 165.309 160.635 162.956C162.905 160.604 165.63 158.737 168.644 157.47C171.657 156.202 174.897 155.561 178.167 155.585C184.902 155.633 191.36 158.273 196.199 162.957C201.038 167.642 203.887 174.011 204.153 180.741Z" fill="white"/>
<path opacity="0.6" d="M201.508 192.709C199.478 196.697 196.377 200.04 192.553 202.364C188.729 204.688 184.333 205.901 179.859 205.866C175.279 205.841 170.786 204.612 166.831 202.303C162.876 199.994 159.598 196.685 157.325 192.709C163.772 188.313 171.4 185.977 179.203 186.008C187.131 186.025 194.883 188.354 201.508 192.709Z" fill="#407BFF"/>
<path opacity="0.6" d="M186.85 180.114C191.112 175.778 190.931 168.689 186.445 164.28C181.96 159.871 174.869 159.811 170.607 164.146C166.345 168.481 166.527 175.57 171.012 179.98C175.498 184.389 182.589 184.449 186.85 180.114Z" fill="#407BFF"/>
<path d="M215.626 241.854H146.577L146.112 228.132H215.161L215.626 241.854Z" fill="white"/>
<path d="M216.465 266.377H147.408L146.943 252.655H216L216.465 266.377Z" fill="white"/>
<path d="M189.815 254.546L173.174 256.833C173.015 256.851 172.862 256.902 172.724 256.982C172.585 257.062 172.465 257.17 172.371 257.299C172.276 257.428 172.209 257.575 172.175 257.731C172.14 257.886 172.137 258.048 172.168 258.205L174.356 269.357C174.427 269.684 174.619 269.973 174.892 270.166C175.166 270.36 175.502 270.444 175.834 270.402L192.475 268.115C192.634 268.095 192.786 268.042 192.924 267.961C193.061 267.879 193.18 267.771 193.274 267.641C193.367 267.512 193.433 267.365 193.468 267.209C193.502 267.053 193.504 266.892 193.474 266.735L191.294 255.583C191.222 255.256 191.03 254.968 190.756 254.776C190.482 254.584 190.146 254.502 189.815 254.546ZM185.035 265.843L181.986 266.247L181.689 262.649C181.375 262.513 181.098 262.304 180.881 262.038C180.665 261.773 180.516 261.46 180.446 261.124C180.39 260.865 180.389 260.596 180.444 260.336C180.498 260.076 180.606 259.831 180.761 259.615C180.916 259.399 181.115 259.219 181.345 259.085C181.574 258.951 181.829 258.867 182.093 258.838C182.634 258.768 183.182 258.904 183.628 259.219C184.074 259.533 184.386 260.004 184.502 260.537C184.568 260.86 184.548 261.194 184.443 261.505C184.339 261.817 184.154 262.096 183.907 262.314L185.035 265.843Z" fill="#407BFF"/>
<path d="M188.168 253.944C187.873 253.981 187.576 253.907 187.333 253.737C187.091 253.566 186.921 253.311 186.856 253.021L186.643 251.931C186.338 250.444 185.504 249.117 184.296 248.197C183.088 247.278 181.587 246.828 180.072 246.931C179.307 246.974 178.561 247.182 177.884 247.539C177.207 247.897 176.615 248.396 176.148 249.003C175.68 249.609 175.349 250.309 175.177 251.055C175.004 251.802 174.994 252.576 175.148 253.326L175.391 254.584C175.42 254.723 175.419 254.867 175.389 255.006C175.358 255.145 175.299 255.276 175.215 255.391C175.131 255.506 175.024 255.602 174.901 255.673C174.778 255.744 174.641 255.788 174.5 255.804C174.205 255.845 173.905 255.772 173.662 255.601C173.419 255.43 173.249 255.173 173.188 254.881L172.983 253.822C172.773 252.831 172.766 251.809 172.962 250.816C173.158 249.823 173.553 248.88 174.122 248.043C174.692 247.206 175.425 246.494 176.277 245.947C177.129 245.401 178.083 245.033 179.081 244.865C181.245 244.501 183.466 244.985 185.283 246.216C187.1 247.446 188.373 249.329 188.838 251.474L189.082 252.724C189.111 252.865 189.109 253.011 189.077 253.151C189.046 253.291 188.984 253.424 188.898 253.539C188.812 253.654 188.702 253.75 188.576 253.819C188.45 253.889 188.311 253.931 188.168 253.944Z" fill="#407BFF"/>
<path d="M205.068 285.594H160.116L159.818 276.66H204.763L205.068 285.594Z" fill="#407BFF"/>
<path d="M183.381 234.993C183.394 235.319 183.342 235.644 183.226 235.949C183.11 236.254 182.933 236.532 182.706 236.766C182.48 237.001 182.208 237.187 181.907 237.313C181.606 237.439 181.283 237.503 180.957 237.501C180.285 237.496 179.64 237.233 179.157 236.766C178.673 236.299 178.387 235.665 178.358 234.993C178.344 234.667 178.397 234.342 178.513 234.037C178.629 233.732 178.806 233.454 179.032 233.22C179.259 232.985 179.531 232.799 179.832 232.673C180.132 232.547 180.455 232.483 180.782 232.485C181.454 232.489 182.1 232.751 182.584 233.218C183.068 233.685 183.354 234.321 183.381 234.993Z" fill="#263238"/>
<path d="M172.54 234.993C172.555 235.319 172.503 235.645 172.387 235.95C172.272 236.256 172.095 236.534 171.868 236.769C171.641 237.004 171.369 237.19 171.068 237.315C170.766 237.441 170.443 237.504 170.116 237.501C169.445 237.496 168.801 237.232 168.319 236.765C167.836 236.299 167.552 235.664 167.525 234.993C167.511 234.667 167.564 234.342 167.68 234.037C167.796 233.732 167.973 233.454 168.199 233.22C168.426 232.985 168.698 232.799 168.999 232.673C169.299 232.547 169.622 232.483 169.949 232.485C170.621 232.489 171.265 232.751 171.748 233.219C172.231 233.686 172.515 234.322 172.54 234.993Z" fill="#263238"/>
<path d="M161.77 234.993C161.783 235.319 161.73 235.644 161.614 235.949C161.498 236.254 161.322 236.532 161.095 236.766C160.868 237.001 160.597 237.187 160.296 237.313C159.995 237.439 159.672 237.503 159.346 237.501C158.674 237.498 158.029 237.235 157.546 236.768C157.063 236.3 156.78 235.665 156.754 234.993C156.741 234.667 156.793 234.342 156.909 234.037C157.025 233.732 157.202 233.454 157.429 233.22C157.655 232.985 157.927 232.799 158.228 232.673C158.529 232.547 158.852 232.483 159.178 232.485C159.85 232.489 160.495 232.751 160.978 233.219C161.461 233.686 161.744 234.322 161.77 234.993Z" fill="#263238"/>
<path d="M194.182 234.993C194.196 235.319 194.143 235.644 194.027 235.949C193.911 236.254 193.734 236.532 193.508 236.766C193.281 237.001 193.009 237.187 192.708 237.313C192.408 237.439 192.084 237.503 191.758 237.501C191.086 237.498 190.442 237.235 189.959 236.768C189.476 236.3 189.192 235.665 189.167 234.993C189.155 234.668 189.21 234.344 189.327 234.041C189.445 233.738 189.623 233.462 189.85 233.23C190.077 232.997 190.35 232.813 190.65 232.689C190.951 232.565 191.273 232.504 191.598 232.508C192.265 232.513 192.905 232.774 193.385 233.236C193.866 233.698 194.151 234.327 194.182 234.993Z" fill="#263238"/>
<path d="M204.984 234.993C204.998 235.319 204.946 235.645 204.831 235.95C204.715 236.256 204.538 236.534 204.311 236.769C204.085 237.004 203.812 237.19 203.511 237.315C203.21 237.441 202.886 237.504 202.56 237.501C201.888 237.496 201.245 237.232 200.762 236.765C200.28 236.299 199.995 235.664 199.968 234.993C199.954 234.667 200.007 234.342 200.123 234.037C200.239 233.732 200.416 233.454 200.643 233.22C200.869 232.985 201.141 232.799 201.442 232.673C201.743 232.547 202.066 232.483 202.392 232.485C203.064 232.489 203.709 232.751 204.191 233.219C204.674 233.686 204.958 234.322 204.984 234.993Z" fill="#263238"/>
<path d="M295.965 167.926C296.978 169.558 297.825 171.113 298.694 172.736C299.563 174.36 300.348 175.991 301.118 177.661C302.689 181.041 303.989 184.541 305.005 188.127C305.143 188.577 305.242 189.057 305.356 189.522L305.524 190.231L305.608 190.582L305.707 191.161C305.879 192.475 305.798 193.81 305.47 195.094C304.944 197.088 304.144 199 303.092 200.773C301.211 203.997 298.937 206.975 296.323 209.639L293.114 207.215C294.725 204.254 296.158 201.199 297.405 198.067C297.961 196.688 298.353 195.247 298.572 193.776C298.642 193.326 298.621 192.868 298.511 192.426L298.206 191.496C298.084 191.115 297.969 190.734 297.825 190.345C296.665 187.201 295.324 184.126 293.807 181.137C292.283 178.088 290.644 175.038 289.005 172.127L295.965 167.926Z" fill="#FF8B7B"/>
<path d="M293.929 206.155L290.423 208.008L294.448 212.719C294.448 212.719 296.963 211.019 297.078 208.427L293.929 206.155Z" fill="#FF8B7B"/>
<path d="M285.719 210.912L290.026 214.335L294.447 212.719L290.422 208.008L285.719 210.912Z" fill="#FF8B7B"/>
<path d="M270.991 142.984C270.908 143.411 270.61 143.708 270.336 143.655C270.061 143.602 269.901 143.205 269.985 142.786C270.069 142.367 270.366 142.024 270.648 142.115C270.93 142.207 271.075 142.557 270.991 142.984Z" fill="#263238"/>
<path d="M270.648 143.716C269.881 144.91 268.952 145.992 267.889 146.933C268.14 147.193 268.444 147.396 268.781 147.527C269.118 147.659 269.479 147.716 269.84 147.695L270.648 143.716Z" fill="#FF5652"/>
<path d="M269.276 158.672V153.671L275.893 154.434C275.893 154.434 275.786 158.733 272.082 159.998L269.276 158.672Z" fill="#FF8B7B"/>
<path d="M271.182 150.073L275.84 151.415L275.923 154.472L269.307 153.672L271.182 150.073Z" fill="#FF8B7B"/>
<path opacity="0.2" d="M275.84 151.415L271.183 150.073L270.275 151.812C270.325 153.181 270.753 154.51 271.512 155.651C272.271 156.792 273.331 157.701 274.575 158.276C275.375 157.158 275.843 155.837 275.924 154.464L275.84 151.415Z" fill="black"/>
<path d="M273.02 140.949C273.068 140.948 273.116 140.932 273.157 140.905C273.197 140.878 273.229 140.84 273.249 140.795C273.269 140.751 273.276 140.701 273.269 140.653C273.262 140.605 273.242 140.559 273.21 140.522C272.942 140.22 272.606 139.986 272.229 139.84C271.853 139.694 271.447 139.64 271.045 139.683C270.98 139.695 270.921 139.731 270.882 139.786C270.844 139.84 270.828 139.907 270.839 139.973C270.851 140.039 270.887 140.098 270.941 140.138C270.995 140.178 271.063 140.195 271.129 140.187C271.447 140.155 271.768 140.201 272.065 140.319C272.362 140.437 272.627 140.624 272.837 140.865C272.86 140.89 272.888 140.911 272.92 140.925C272.951 140.94 272.985 140.948 273.02 140.949Z" fill="#263238"/>
<path d="M282.762 150.698C281.999 154.624 281.527 160.059 284.286 162.674C284.286 162.674 283.219 166.653 275.901 166.653C267.889 166.653 272.051 163.162 272.051 163.162C275.383 162.125 275.352 158.337 274.59 155.287L282.762 150.698Z" fill="#FF8B7B"/>
<path d="M285.772 165.296C286.489 164.29 286.459 161.096 285.696 160.532C284.469 159.625 279.202 159.412 272.12 161.043C272.882 164.138 271.243 165.754 271.243 165.754L285.772 165.296Z" fill="#407BFF"/>
<path d="M309.602 346.273C309.384 346.349 309.153 346.382 308.923 346.369C308.693 346.356 308.468 346.297 308.26 346.196C308.181 346.123 308.127 346.027 308.106 345.922C308.084 345.817 308.095 345.708 308.138 345.609C308.162 345.527 308.204 345.451 308.26 345.386C308.317 345.322 308.387 345.27 308.466 345.236C309.19 344.885 310.852 345.564 310.928 345.594C310.951 345.603 310.97 345.619 310.984 345.64C310.997 345.66 311.005 345.684 311.004 345.708C311.004 345.733 310.998 345.757 310.986 345.778C310.974 345.8 310.956 345.818 310.936 345.83C310.506 346.019 310.059 346.167 309.602 346.273ZM308.725 345.411C308.675 345.423 308.626 345.441 308.58 345.465C308.533 345.482 308.49 345.51 308.455 345.547C308.421 345.585 308.396 345.629 308.382 345.678C308.313 345.907 308.382 345.983 308.428 346.006C308.717 346.25 309.785 346.006 310.539 345.724C309.965 345.486 309.345 345.379 308.725 345.411Z" fill="#407BFF"/>
<path d="M310.905 345.838H310.844C310.234 345.663 308.938 344.74 308.923 344.138C308.922 344.042 308.954 343.949 309.014 343.874C309.074 343.799 309.157 343.747 309.251 343.726C309.341 343.693 309.438 343.679 309.534 343.687C309.63 343.695 309.723 343.724 309.807 343.772C310.524 344.138 310.981 345.617 310.996 345.685C311.007 345.704 311.013 345.725 311.013 345.746C311.013 345.768 311.007 345.789 310.996 345.807C310.985 345.819 310.97 345.828 310.954 345.834C310.938 345.839 310.921 345.84 310.905 345.838ZM309.38 343.94H309.319C309.167 343.993 309.167 344.069 309.167 344.108C309.167 344.466 310.036 345.19 310.691 345.48C310.531 345.053 310.181 344.207 309.716 343.955C309.612 343.908 309.495 343.903 309.388 343.94H309.38Z" fill="#407BFF"/>
<path d="M270.009 347.172C269.323 347.172 268.659 347.073 268.438 346.768C268.381 346.687 268.35 346.589 268.35 346.49C268.35 346.39 268.381 346.293 268.438 346.211C268.482 346.137 268.54 346.072 268.61 346.021C268.679 345.97 268.758 345.934 268.842 345.914C269.734 345.67 271.61 346.737 271.686 346.783C271.709 346.795 271.728 346.814 271.739 346.837C271.75 346.861 271.753 346.887 271.747 346.913C271.744 346.939 271.733 346.963 271.715 346.983C271.697 347.002 271.673 347.015 271.648 347.019C271.107 347.119 270.558 347.17 270.009 347.172ZM269.163 346.128C269.082 346.114 268.999 346.114 268.919 346.128C268.867 346.138 268.818 346.159 268.775 346.189C268.732 346.22 268.695 346.258 268.667 346.303C268.576 346.463 268.614 346.539 268.667 346.585C268.919 346.936 270.268 346.943 271.267 346.798C270.615 346.442 269.9 346.214 269.163 346.128Z" fill="#407BFF"/>
<path d="M271.639 347.02H271.586C270.938 346.73 269.657 345.571 269.756 344.961C269.756 344.817 269.878 344.641 270.229 344.611C270.354 344.596 270.481 344.607 270.602 344.644C270.723 344.681 270.834 344.742 270.93 344.824C271.419 345.408 271.712 346.131 271.769 346.89C271.769 346.912 271.764 346.933 271.755 346.953C271.745 346.973 271.732 346.99 271.716 347.004C271.692 347.016 271.666 347.022 271.639 347.02ZM270.328 344.847H270.252C270.023 344.847 270.008 344.954 270.008 344.984C269.947 345.35 270.816 346.265 271.479 346.661C271.421 346.05 271.173 345.471 270.77 345.007C270.645 344.9 270.485 344.843 270.321 344.847H270.328Z" fill="#407BFF"/>
<path d="M277.524 346.898H272.165L271.632 334.48H276.991L277.524 346.898Z" fill="#FF8B7B"/>
<path d="M316.881 344.413L311.644 345.548L306.377 333.984L311.622 332.849L316.881 344.413Z" fill="#FF8B7B"/>
<path d="M311.134 345.022L317.026 343.749C317.129 343.728 317.236 343.741 317.331 343.788C317.425 343.835 317.5 343.913 317.544 344.009L319.587 348.445C319.642 348.553 319.67 348.671 319.67 348.792C319.669 348.912 319.64 349.031 319.585 349.138C319.53 349.245 319.451 349.337 319.353 349.408C319.255 349.478 319.142 349.524 319.023 349.543C316.965 349.947 315.936 350.046 313.352 350.602C311.759 350.953 308.161 351.83 305.958 352.302C303.755 352.775 303 350.663 303.861 350.275C307.711 348.514 309.312 346.966 310.356 345.526C310.545 345.268 310.822 345.089 311.134 345.022Z" fill="#263238"/>
<path d="M272.204 346.272H278.058C278.165 346.273 278.268 346.31 278.351 346.376C278.434 346.442 278.492 346.535 278.516 346.638L279.575 351.403C279.606 351.518 279.61 351.639 279.586 351.755C279.562 351.872 279.511 351.982 279.436 352.075C279.362 352.169 279.267 352.243 279.159 352.293C279.051 352.343 278.932 352.367 278.813 352.363C276.701 352.325 273.652 352.203 271 352.203C267.889 352.203 265.214 352.371 261.57 352.371C259.367 352.371 258.757 350.145 259.679 349.939C263.872 349.024 267.302 348.925 270.923 346.692C271.304 346.437 271.747 346.292 272.204 346.272Z" fill="#263238"/>
<path d="M293.876 163.901C298.899 165.053 303.023 177.882 303.023 177.882L292.984 185.558C290.378 182.772 288.539 179.358 287.648 175.648C285.872 168.925 288.738 162.712 293.876 163.901Z" fill="#407BFF"/>
<path opacity="0.4" d="M293.876 163.901C298.899 165.053 303.023 177.882 303.023 177.882L292.984 185.558C290.378 182.772 288.539 179.358 287.648 175.648C285.872 168.925 288.738 162.712 293.876 163.901Z" fill="black"/>
<path d="M267.447 179.201C266.197 180.55 264.947 181.754 263.636 183.012C262.988 183.622 262.332 184.232 261.661 184.819L260.647 185.711L260.396 185.932L259.961 186.282C259.514 186.64 259.019 186.932 258.49 187.151C257.902 187.401 257.269 187.531 256.63 187.533C256.084 187.535 255.542 187.439 255.029 187.25C254.461 187.034 253.942 186.705 253.505 186.282C252.946 185.737 252.537 185.057 252.315 184.308C252.2 183.939 252.126 183.558 252.094 183.172C252.054 182.721 252.054 182.267 252.094 181.815C252.133 181.449 252.178 181.129 252.239 180.832C252.448 179.793 252.744 178.773 253.124 177.783C253.466 176.842 253.861 175.921 254.305 175.023C254.793 174.055 255.258 173.346 255.723 172.538C257.612 169.444 259.767 166.521 262.164 163.802C264.538 161.1 267.153 158.619 269.978 156.393L272.783 159.282C270.816 161.919 268.88 164.748 267.089 167.53C265.306 170.297 263.677 173.159 262.21 176.106C261.882 176.822 261.448 177.63 261.242 178.21C260.969 178.883 260.733 179.57 260.533 180.268C260.341 180.897 260.196 181.539 260.098 182.189C260.093 182.29 260.093 182.392 260.098 182.494C260.098 182.555 260.098 182.585 260.098 182.425C260.086 182.254 260.053 182.085 259.999 181.922C259.835 181.382 259.533 180.893 259.123 180.504C258.758 180.169 258.331 179.91 257.865 179.742C257.456 179.587 257.022 179.507 256.584 179.506C256.163 179.5 255.746 179.581 255.357 179.742C255.225 179.796 255.098 179.859 254.976 179.932L255.266 179.666L256.188 178.827L258.01 177.12C259.214 175.984 260.426 174.772 261.57 173.644L267.447 179.201Z" fill="#FF8B7B"/>
<path opacity="0.2" d="M289.569 173.323C292.298 176.022 293.19 180.946 293.38 185.215L292.938 185.558C290.332 182.772 288.494 179.358 287.602 175.648C287.503 175.252 287.411 174.886 287.343 174.452L289.569 173.323Z" fill="black"/>
<path d="M262.119 169.237C261.021 175.031 260.335 186.93 263.514 210.485H292.222C292.42 206.087 289.653 184.605 293.899 163.863C290.726 163.254 287.518 162.849 284.294 162.651C280.232 162.418 276.159 162.418 272.097 162.651C270.755 162.773 269.429 162.971 268.286 163.177C266.765 163.444 265.361 164.166 264.26 165.248C263.159 166.331 262.412 167.722 262.119 169.237Z" fill="#407BFF"/>
<path opacity="0.4" d="M262.119 169.237C261.021 175.031 260.335 186.93 263.514 210.485H292.222C292.42 206.087 289.653 184.605 293.899 163.863C290.726 163.254 287.518 162.849 284.294 162.651C280.232 162.418 276.159 162.418 272.097 162.651C270.755 162.773 269.429 162.971 268.286 163.177C266.765 163.444 265.361 164.166 264.26 165.248C263.159 166.331 262.412 167.722 262.119 169.237Z" fill="black"/>
<path opacity="0.2" d="M266.509 177.828L261.326 176.586C261.165 179.727 261.15 183.614 261.379 188.424C263.765 185.711 266.814 181.472 266.509 177.828Z" fill="black"/>
<path opacity="0.2" d="M271.632 334.48L271.906 340.883H277.273L276.998 334.48H271.632Z" fill="black"/>
<path opacity="0.2" d="M311.622 332.849L306.377 333.984L309.091 339.946L314.335 338.81L311.622 332.849Z" fill="black"/>
<path d="M285.307 144.966C283.935 150.104 283.386 153.184 280.215 155.318C275.451 158.565 269.505 154.845 269.352 149.418C269.185 144.516 271.464 136.932 276.975 135.895C278.186 135.667 279.435 135.752 280.605 136.141C281.774 136.53 282.825 137.211 283.659 138.118C284.492 139.026 285.081 140.131 285.369 141.329C285.658 142.527 285.636 143.779 285.307 144.966Z" fill="#FF8B7B"/>
<path d="M273.279 145.157C273.019 144.47 271.838 139.157 272.951 137.778C274.064 136.398 286.756 137.396 288.631 139.241C291.749 142.29 289.584 145.035 286.177 148.564C283.615 151.217 283.516 154.205 282.22 154.662C279.933 155.425 276.442 154.708 275.741 152.292C275.04 149.875 273.279 145.157 273.279 145.157Z" fill="#263238"/>
<path d="M287.091 133.196C282.609 131.291 274.201 133.402 269.657 132.304C269.6 133.994 270.155 135.647 271.221 136.959C272.288 138.27 273.793 139.151 275.458 139.44C279.227 140.158 283.056 140.513 286.893 140.499C291.878 140.27 290.903 134.82 287.091 133.196Z" fill="#263238"/>
<path d="M287.793 139.402C289.43 139.563 291.079 139.248 292.542 138.494C293.381 140.522 288.769 141.079 287.793 139.402Z" fill="#263238"/>
<path d="M275.718 145.37C275.615 146.692 275.08 147.943 274.194 148.93C273.02 150.218 271.8 149.41 271.594 147.848C271.411 146.43 271.793 144.036 273.226 143.35C274.659 142.664 275.817 143.777 275.718 145.37Z" fill="#FF8B7B"/>
<path d="M273.69 210.508C273.69 210.508 279.789 251.481 283.12 266.834C286.771 283.643 306.393 339.252 306.393 339.252L315.99 337.171C315.99 337.171 302.269 291.845 299.22 268.343C296.857 250.292 292.214 210.493 292.214 210.493L273.69 210.508Z" fill="#407BFF"/>
<path d="M304.09 336.058C304.052 336.058 305.882 339.534 305.882 339.534L316.676 337.194L315.769 333.946L304.09 336.058Z" fill="#263238"/>
<path opacity="0.3" d="M277.54 225.106C284.576 226.486 283.829 252.724 282.982 266.224C280.955 256.68 277.982 238.324 275.954 225.296C276.445 225.054 277.005 224.987 277.54 225.106Z" fill="black"/>
<path d="M263.514 210.508C263.514 210.508 262.752 250.597 263.361 266.918C263.971 283.925 269.91 339.61 269.91 339.61H278.996C278.996 339.61 279.324 284.915 279.758 268.214C280.201 250.01 282.396 210.478 282.396 210.478L263.514 210.508Z" fill="#407BFF"/>
<path d="M268.164 336.027C268.118 336.027 268.675 339.793 268.675 339.793H279.72L280.025 336.431L268.164 336.027Z" fill="#263238"/>
<path d="M273.355 171.021C275.924 177.951 260.823 186.115 260.823 186.115L254.282 177.729C254.282 177.729 258.681 169.024 264.017 165.106C270.611 160.273 271.396 165.746 273.355 171.021Z" fill="#407BFF"/>
<path opacity="0.4" d="M273.355 171.021C275.924 177.951 260.823 186.115 260.823 186.115L254.282 177.729C254.282 177.729 258.681 169.024 264.017 165.106C270.611 160.273 271.396 165.746 273.355 171.021Z" fill="black"/>
<path d="M332.524 118.415C347.718 118.415 360.035 110.566 360.035 100.883C360.035 91.1995 347.718 83.3499 332.524 83.3499C317.33 83.3499 305.013 91.1995 305.013 100.883C305.013 110.566 317.33 118.415 332.524 118.415Z" fill="#407BFF"/>
<path d="M322.598 109.71C320.786 109.704 319.033 109.06 317.649 107.89C316.265 106.72 315.337 105.1 315.029 103.314C314.725 101.38 315.162 99.402 316.251 97.7747C317.34 96.1474 319.002 94.9899 320.906 94.5326C322.468 94.1726 324.104 94.3113 325.584 94.9294C327.063 95.5474 328.312 96.6137 329.154 97.9782L346.816 94.3344C347.495 94.1858 348.205 94.2986 348.804 94.6505C349.403 95.0024 349.847 95.5673 350.048 96.2325C350.141 96.5823 350.161 96.9472 350.108 97.3049C350.054 97.6627 349.928 98.0058 349.738 98.3133C349.547 98.6209 349.296 98.8863 349 99.0934C348.703 99.3005 348.367 99.445 348.013 99.518L347.556 99.6095C347.488 99.6217 347.423 99.6493 347.368 99.6903C347.312 99.7313 347.267 99.7845 347.235 99.8458C347.207 99.9081 347.193 99.9756 347.193 100.044C347.193 100.112 347.207 100.18 347.235 100.242L347.548 101.05C347.653 101.312 347.663 101.602 347.577 101.871C347.49 102.139 347.313 102.37 347.075 102.521C346.888 102.637 346.73 102.794 346.612 102.98C346.494 103.167 346.421 103.377 346.397 103.596C346.375 103.848 346.273 104.085 346.108 104.276C345.942 104.466 345.72 104.599 345.475 104.656L345.116 104.732C344.868 104.778 344.611 104.744 344.384 104.634C344.156 104.524 343.97 104.345 343.851 104.122C343.693 103.856 343.455 103.646 343.172 103.522C342.889 103.397 342.574 103.364 342.271 103.427C341.968 103.49 341.692 103.646 341.482 103.873C341.272 104.1 341.138 104.387 341.099 104.694C341.078 104.944 340.978 105.18 340.813 105.369C340.649 105.558 340.429 105.69 340.184 105.746L339.826 105.822C339.578 105.867 339.322 105.832 339.094 105.722C338.867 105.613 338.68 105.434 338.561 105.212C338.446 105.023 338.293 104.861 338.11 104.738C337.927 104.614 337.719 104.531 337.501 104.496C337.208 104.461 336.938 104.319 336.741 104.099C336.545 103.879 336.435 103.594 336.434 103.299V102.43C336.431 102.362 336.413 102.295 336.382 102.235C336.351 102.174 336.307 102.121 336.253 102.079C336.2 102.037 336.138 102.008 336.071 101.992C336.005 101.976 335.936 101.975 335.87 101.988L330.236 103.147C330.007 104.707 329.302 106.159 328.217 107.305C327.133 108.451 325.722 109.235 324.176 109.55C323.657 109.656 323.128 109.71 322.598 109.71ZM321.074 95.2263C319.345 95.6302 317.833 96.6741 316.843 98.148C315.853 99.6218 315.458 101.416 315.737 103.169C316.037 104.801 316.911 106.271 318.201 107.314C319.49 108.357 321.11 108.904 322.768 108.856C324.426 108.808 326.012 108.168 327.239 107.053C328.466 105.937 329.254 104.419 329.459 102.773V102.499L335.671 101.241C335.85 101.198 336.035 101.195 336.215 101.232C336.394 101.27 336.563 101.347 336.709 101.458C336.855 101.569 336.974 101.711 337.059 101.874C337.143 102.037 337.19 102.216 337.196 102.399V103.268C337.198 103.372 337.235 103.472 337.302 103.551C337.368 103.63 337.46 103.684 337.562 103.703C337.895 103.751 338.213 103.874 338.492 104.063C338.771 104.251 339.003 104.501 339.17 104.793C339.211 104.875 339.276 104.943 339.356 104.987C339.437 105.03 339.529 105.048 339.62 105.037L339.971 104.961C340.06 104.938 340.139 104.887 340.197 104.816C340.254 104.744 340.287 104.656 340.291 104.564C340.339 104.09 340.537 103.643 340.855 103.288C341.174 102.933 341.598 102.689 342.064 102.591C342.531 102.492 343.017 102.545 343.452 102.74C343.887 102.936 344.248 103.265 344.484 103.68C344.523 103.762 344.586 103.829 344.666 103.873C344.745 103.917 344.836 103.935 344.926 103.924L345.292 103.848C345.379 103.824 345.457 103.772 345.513 103.701C345.569 103.629 345.601 103.542 345.604 103.451C345.642 103.117 345.756 102.795 345.937 102.511C346.118 102.227 346.361 101.988 346.648 101.813C346.732 101.752 346.794 101.665 346.823 101.566C346.852 101.466 346.847 101.36 346.809 101.264L346.496 100.456C346.431 100.289 346.404 100.11 346.416 99.9321C346.427 99.7538 346.478 99.5801 346.563 99.4233C346.649 99.2665 346.768 99.1303 346.911 99.0242C347.055 98.9181 347.22 98.8447 347.396 98.8091L347.861 98.71C348.112 98.6563 348.35 98.5524 348.561 98.4046C348.772 98.2567 348.95 98.0679 349.086 97.8494C349.222 97.631 349.313 97.3873 349.352 97.1331C349.392 96.8788 349.38 96.6192 349.317 96.3697C349.168 95.89 348.843 95.4843 348.408 95.234C347.972 94.9838 347.458 94.9075 346.969 95.0205L328.811 98.7938L328.674 98.5575C327.944 97.2588 326.812 96.2328 325.447 95.6345C324.083 95.0363 322.561 94.8984 321.112 95.2415L321.074 95.2263ZM322.598 106.874C321.651 106.885 320.722 106.62 319.922 106.112C318.977 105.491 318.276 104.562 317.94 103.483C317.603 102.403 317.651 101.24 318.075 100.192C318.5 99.1442 319.275 98.2759 320.268 97.7353C321.262 97.1948 322.411 97.0154 323.522 97.2279C324.633 97.4403 325.635 98.0314 326.359 98.9003C327.083 99.7692 327.482 100.862 327.49 101.993C327.498 103.124 327.114 104.222 326.402 105.101C325.691 105.98 324.697 106.585 323.589 106.813C323.265 106.872 322.935 106.897 322.606 106.889L322.598 106.874ZM322.598 97.8714C322.314 97.8731 322.031 97.9011 321.752 97.9553C321.221 98.0684 320.717 98.285 320.27 98.5928C319.823 98.9005 319.44 99.2933 319.145 99.7488C318.849 100.204 318.646 100.714 318.548 101.248C318.449 101.781 318.456 102.33 318.569 102.861C318.683 103.392 318.899 103.895 319.207 104.343C319.515 104.79 319.907 105.172 320.363 105.468C320.818 105.763 321.328 105.966 321.862 106.065C322.396 106.164 322.944 106.156 323.475 106.043C324.272 105.877 325.002 105.479 325.573 104.899C326.145 104.318 326.531 103.582 326.685 102.782C326.838 101.982 326.751 101.155 326.435 100.405C326.119 99.6541 325.587 99.0141 324.908 98.5651C324.233 98.1163 323.439 97.88 322.629 97.8867L322.598 97.8714Z" fill="white"/>
<path opacity="0.6" d="M310.135 128.699C315.128 128.699 319.175 126.119 319.175 122.936C319.175 119.753 315.128 117.173 310.135 117.173C305.141 117.173 301.094 119.753 301.094 122.936C301.094 126.119 305.141 128.699 310.135 128.699Z" fill="#407BFF"/>
<path opacity="0.3" d="M295.75 131.062C297.801 131.062 299.463 130.004 299.463 128.699C299.463 127.393 297.801 126.335 295.75 126.335C293.7 126.335 292.038 127.393 292.038 128.699C292.038 130.004 293.7 131.062 295.75 131.062Z" fill="#407BFF"/>
<path d="M141.589 399.152V402.44H134.725V405.992H139.861V409.184H134.725V416H130.621V399.152H141.589ZM149.842 416.192C148.53 416.192 147.346 415.912 146.29 415.352C145.25 414.792 144.426 413.992 143.818 412.952C143.226 411.912 142.93 410.696 142.93 409.304C142.93 407.928 143.234 406.72 143.842 405.68C144.45 404.624 145.282 403.816 146.338 403.256C147.394 402.696 148.578 402.416 149.89 402.416C151.202 402.416 152.386 402.696 153.442 403.256C154.498 403.816 155.33 404.624 155.938 405.68C156.546 406.72 156.85 407.928 156.85 409.304C156.85 410.68 156.538 411.896 155.914 412.952C155.306 413.992 154.466 414.792 153.394 415.352C152.338 415.912 151.154 416.192 149.842 416.192ZM149.842 412.64C150.626 412.64 151.29 412.352 151.834 411.776C152.394 411.2 152.674 410.376 152.674 409.304C152.674 408.232 152.402 407.408 151.858 406.832C151.33 406.256 150.674 405.968 149.89 405.968C149.09 405.968 148.426 406.256 147.898 406.832C147.37 407.392 147.106 408.216 147.106 409.304C147.106 410.376 147.362 411.2 147.874 411.776C148.402 412.352 149.058 412.64 149.842 412.64ZM163.131 404.84C163.611 404.104 164.211 403.528 164.931 403.112C165.651 402.68 166.451 402.464 167.331 402.464V406.808H166.203C165.179 406.808 164.411 407.032 163.899 407.48C163.387 407.912 163.131 408.68 163.131 409.784V416H159.027V402.608H163.131V404.84ZM174.381 402.416C175.325 402.416 176.149 402.608 176.853 402.992C177.573 403.376 178.125 403.88 178.509 404.504V402.608H182.613V415.976C182.613 417.208 182.365 418.32 181.869 419.312C181.389 420.32 180.645 421.12 179.637 421.712C178.645 422.304 177.405 422.6 175.917 422.6C173.933 422.6 172.325 422.128 171.093 421.184C169.861 420.256 169.157 418.992 168.981 417.392H173.037C173.165 417.904 173.469 418.304 173.949 418.592C174.429 418.896 175.021 419.048 175.725 419.048C176.573 419.048 177.245 418.8 177.741 418.304C178.253 417.824 178.509 417.048 178.509 415.976V414.08C178.109 414.704 177.557 415.216 176.853 415.616C176.149 416 175.325 416.192 174.381 416.192C173.277 416.192 172.277 415.912 171.381 415.352C170.485 414.776 169.773 413.968 169.245 412.928C168.733 411.872 168.477 410.656 168.477 409.28C168.477 407.904 168.733 406.696 169.245 405.656C169.773 404.616 170.485 403.816 171.381 403.256C172.277 402.696 173.277 402.416 174.381 402.416ZM178.509 409.304C178.509 408.28 178.221 407.472 177.645 406.88C177.085 406.288 176.397 405.992 175.581 405.992C174.765 405.992 174.069 406.288 173.493 406.88C172.933 407.456 172.653 408.256 172.653 409.28C172.653 410.304 172.933 411.12 173.493 411.728C174.069 412.32 174.765 412.616 175.581 412.616C176.397 412.616 177.085 412.32 177.645 411.728C178.221 411.136 178.509 410.328 178.509 409.304ZM191.678 416.192C190.366 416.192 189.182 415.912 188.126 415.352C187.086 414.792 186.262 413.992 185.654 412.952C185.062 411.912 184.766 410.696 184.766 409.304C184.766 407.928 185.07 406.72 185.678 405.68C186.286 404.624 187.118 403.816 188.174 403.256C189.23 402.696 190.414 402.416 191.726 402.416C193.038 402.416 194.222 402.696 195.278 403.256C196.334 403.816 197.166 404.624 197.774 405.68C198.382 406.72 198.686 407.928 198.686 409.304C198.686 410.68 198.374 411.896 197.75 412.952C197.142 413.992 196.302 414.792 195.23 415.352C194.174 415.912 192.99 416.192 191.678 416.192ZM191.678 412.64C192.462 412.64 193.126 412.352 193.67 411.776C194.23 411.2 194.51 410.376 194.51 409.304C194.51 408.232 194.238 407.408 193.694 406.832C193.166 406.256 192.51 405.968 191.726 405.968C190.926 405.968 190.262 406.256 189.734 406.832C189.206 407.392 188.942 408.216 188.942 409.304C188.942 410.376 189.198 411.2 189.71 411.776C190.238 412.352 190.894 412.64 191.678 412.64ZM208.327 412.52V416H206.239C204.751 416 203.591 415.64 202.759 414.92C201.927 414.184 201.511 412.992 201.511 411.344V406.016H199.879V402.608H201.511V399.344H205.615V402.608H208.303V406.016H205.615V411.392C205.615 411.792 205.711 412.08 205.903 412.256C206.095 412.432 206.415 412.52 206.863 412.52H208.327ZM228.539 404.576C228.539 405.552 228.315 406.448 227.867 407.264C227.419 408.064 226.731 408.712 225.803 409.208C224.875 409.704 223.723 409.952 222.347 409.952H219.803V416H215.699V399.152H222.347C223.691 399.152 224.827 399.384 225.755 399.848C226.683 400.312 227.379 400.952 227.843 401.768C228.307 402.584 228.539 403.52 228.539 404.576ZM222.035 406.688C222.819 406.688 223.403 406.504 223.787 406.136C224.171 405.768 224.363 405.248 224.363 404.576C224.363 403.904 224.171 403.384 223.787 403.016C223.403 402.648 222.819 402.464 222.035 402.464H219.803V406.688H222.035ZM229.86 409.28C229.86 407.904 230.116 406.696 230.628 405.656C231.156 404.616 231.868 403.816 232.764 403.256C233.66 402.696 234.66 402.416 235.764 402.416C236.708 402.416 237.532 402.608 238.236 402.992C238.956 403.376 239.508 403.88 239.892 404.504V402.608H243.996V416H239.892V414.104C239.492 414.728 238.932 415.232 238.212 415.616C237.508 416 236.684 416.192 235.74 416.192C234.652 416.192 233.66 415.912 232.764 415.352C231.868 414.776 231.156 413.968 230.628 412.928C230.116 411.872 229.86 410.656 229.86 409.28ZM239.892 409.304C239.892 408.28 239.604 407.472 239.028 406.88C238.468 406.288 237.78 405.992 236.964 405.992C236.148 405.992 235.452 406.288 234.876 406.88C234.316 407.456 234.036 408.256 234.036 409.28C234.036 410.304 234.316 411.12 234.876 411.728C235.452 412.32 236.148 412.616 236.964 412.616C237.78 412.616 238.468 412.32 239.028 411.728C239.604 411.136 239.892 410.328 239.892 409.304ZM252.413 416.192C251.245 416.192 250.205 415.992 249.293 415.592C248.381 415.192 247.661 414.648 247.133 413.96C246.605 413.256 246.309 412.472 246.245 411.608H250.301C250.349 412.072 250.565 412.448 250.949 412.736C251.333 413.024 251.805 413.168 252.365 413.168C252.877 413.168 253.269 413.072 253.541 412.88C253.829 412.672 253.973 412.408 253.973 412.088C253.973 411.704 253.773 411.424 253.373 411.248C252.973 411.056 252.325 410.848 251.429 410.624C250.469 410.4 249.669 410.168 249.029 409.928C248.389 409.672 247.837 409.28 247.373 408.752C246.909 408.208 246.677 407.48 246.677 406.568C246.677 405.8 246.885 405.104 247.301 404.48C247.733 403.84 248.357 403.336 249.173 402.968C250.005 402.6 250.989 402.416 252.125 402.416C253.805 402.416 255.125 402.832 256.085 403.664C257.061 404.496 257.621 405.6 257.765 406.976H253.973C253.909 406.512 253.701 406.144 253.349 405.872C253.013 405.6 252.565 405.464 252.005 405.464C251.525 405.464 251.157 405.56 250.901 405.752C250.645 405.928 250.517 406.176 250.517 406.496C250.517 406.88 250.717 407.168 251.117 407.36C251.533 407.552 252.173 407.744 253.037 407.936C254.029 408.192 254.837 408.448 255.461 408.704C256.085 408.944 256.629 409.344 257.093 409.904C257.573 410.448 257.821 411.184 257.837 412.112C257.837 412.896 257.613 413.6 257.165 414.224C256.733 414.832 256.101 415.312 255.269 415.664C254.453 416.016 253.501 416.192 252.413 416.192ZM265.795 416.192C264.627 416.192 263.587 415.992 262.675 415.592C261.763 415.192 261.043 414.648 260.515 413.96C259.987 413.256 259.691 412.472 259.627 411.608H263.683C263.731 412.072 263.947 412.448 264.331 412.736C264.715 413.024 265.187 413.168 265.747 413.168C266.259 413.168 266.651 413.072 266.923 412.88C267.211 412.672 267.355 412.408 267.355 412.088C267.355 411.704 267.155 411.424 266.755 411.248C266.355 411.056 265.707 410.848 264.811 410.624C263.851 410.4 263.051 410.168 262.411 409.928C261.771 409.672 261.219 409.28 260.755 408.752C260.291 408.208 260.059 407.48 260.059 406.568C260.059 405.8 260.267 405.104 260.683 404.48C261.115 403.84 261.739 403.336 262.555 402.968C263.387 402.6 264.371 402.416 265.507 402.416C267.187 402.416 268.507 402.832 269.467 403.664C270.443 404.496 271.003 405.6 271.147 406.976H267.355C267.291 406.512 267.083 406.144 266.731 405.872C266.395 405.6 265.947 405.464 265.387 405.464C264.907 405.464 264.539 405.56 264.283 405.752C264.027 405.928 263.899 406.176 263.899 406.496C263.899 406.88 264.099 407.168 264.499 407.36C264.915 407.552 265.555 407.744 266.419 407.936C267.411 408.192 268.219 408.448 268.843 408.704C269.467 408.944 270.011 409.344 270.475 409.904C270.955 410.448 271.203 411.184 271.219 412.112C271.219 412.896 270.995 413.6 270.547 414.224C270.115 414.832 269.483 415.312 268.651 415.664C267.835 416.016 266.883 416.192 265.795 416.192ZM292.954 402.608L289.33 416H284.794L282.682 407.312L280.498 416H275.986L272.338 402.608H276.442L278.338 412.184L280.594 402.608H284.938L287.218 412.136L289.09 402.608H292.954ZM300.615 416.192C299.303 416.192 298.119 415.912 297.063 415.352C296.023 414.792 295.199 413.992 294.591 412.952C293.999 411.912 293.703 410.696 293.703 409.304C293.703 407.928 294.007 406.72 294.615 405.68C295.223 404.624 296.055 403.816 297.111 403.256C298.167 402.696 299.351 402.416 300.663 402.416C301.975 402.416 303.159 402.696 304.215 403.256C305.271 403.816 306.103 404.624 306.711 405.68C307.319 406.72 307.623 407.928 307.623 409.304C307.623 410.68 307.311 411.896 306.687 412.952C306.079 413.992 305.239 414.792 304.167 415.352C303.111 415.912 301.927 416.192 300.615 416.192ZM300.615 412.64C301.399 412.64 302.063 412.352 302.607 411.776C303.167 411.2 303.447 410.376 303.447 409.304C303.447 408.232 303.175 407.408 302.631 406.832C302.103 406.256 301.447 405.968 300.663 405.968C299.863 405.968 299.199 406.256 298.671 406.832C298.143 407.392 297.879 408.216 297.879 409.304C297.879 410.376 298.135 411.2 298.647 411.776C299.175 412.352 299.831 412.64 300.615 412.64ZM313.905 404.84C314.385 404.104 314.985 403.528 315.705 403.112C316.425 402.68 317.225 402.464 318.105 402.464V406.808H316.977C315.953 406.808 315.185 407.032 314.673 407.48C314.161 407.912 313.905 408.68 313.905 409.784V416H309.801V402.608H313.905V404.84ZM319.25 409.28C319.25 407.904 319.506 406.696 320.018 405.656C320.546 404.616 321.258 403.816 322.154 403.256C323.05 402.696 324.05 402.416 325.154 402.416C326.034 402.416 326.834 402.6 327.554 402.968C328.29 403.336 328.866 403.832 329.282 404.456V398.24H333.386V416H329.282V414.08C328.898 414.72 328.346 415.232 327.626 415.616C326.922 416 326.098 416.192 325.154 416.192C324.05 416.192 323.05 415.912 322.154 415.352C321.258 414.776 320.546 413.968 320.018 412.928C319.506 411.872 319.25 410.656 319.25 409.28ZM329.282 409.304C329.282 408.28 328.994 407.472 328.418 406.88C327.858 406.288 327.17 405.992 326.354 405.992C325.538 405.992 324.842 406.288 324.266 406.88C323.706 407.456 323.426 408.256 323.426 409.28C323.426 410.304 323.706 411.12 324.266 411.728C324.842 412.32 325.538 412.616 326.354 412.616C327.17 412.616 327.858 412.32 328.418 411.728C328.994 411.136 329.282 410.328 329.282 409.304Z" fill="white"/>
<path d="M8.55488 438.832C9.72821 438.832 10.7575 439.061 11.6429 439.52C12.5389 439.979 13.2269 440.635 13.7069 441.488C14.1975 442.331 14.4429 443.312 14.4429 444.432C14.4429 445.552 14.1975 446.533 13.7069 447.376C13.2269 448.208 12.5389 448.853 11.6429 449.312C10.7575 449.771 9.72821 450 8.55488 450H4.65088V438.832H8.55488ZM8.47488 448.096C9.64821 448.096 10.5549 447.776 11.1949 447.136C11.8349 446.496 12.1549 445.595 12.1549 444.432C12.1549 443.269 11.8349 442.363 11.1949 441.712C10.5549 441.051 9.64821 440.72 8.47488 440.72H6.89088V448.096H8.47488ZM20.0556 450.144C19.2023 450.144 18.4343 449.957 17.7516 449.584C17.069 449.2 16.5303 448.661 16.1356 447.968C15.7516 447.275 15.5596 446.475 15.5596 445.568C15.5596 444.661 15.757 443.861 16.1516 443.168C16.557 442.475 17.1063 441.941 17.7996 441.568C18.493 441.184 19.2663 440.992 20.1196 440.992C20.973 440.992 21.7463 441.184 22.4396 441.568C23.133 441.941 23.677 442.475 24.0716 443.168C24.477 443.861 24.6796 444.661 24.6796 445.568C24.6796 446.475 24.4716 447.275 24.0556 447.968C23.6503 448.661 23.0956 449.2 22.3916 449.584C21.6983 449.957 20.9196 450.144 20.0556 450.144ZM20.0556 448.192C20.461 448.192 20.8396 448.096 21.1916 447.904C21.5543 447.701 21.8423 447.403 22.0556 447.008C22.269 446.613 22.3756 446.133 22.3756 445.568C22.3756 444.725 22.1516 444.08 21.7036 443.632C21.2663 443.173 20.7276 442.944 20.0876 442.944C19.4476 442.944 18.909 443.173 18.4716 443.632C18.045 444.08 17.8316 444.725 17.8316 445.568C17.8316 446.411 18.0396 447.061 18.4556 447.52C18.8823 447.968 19.4156 448.192 20.0556 448.192ZM31.2348 441.008C32.2908 441.008 33.1441 441.344 33.7948 442.016C34.4454 442.677 34.7708 443.605 34.7708 444.8V450H32.5308V445.104C32.5308 444.4 32.3548 443.861 32.0028 443.488C31.6508 443.104 31.1708 442.912 30.5628 442.912C29.9441 442.912 29.4534 443.104 29.0908 443.488C28.7388 443.861 28.5628 444.4 28.5628 445.104V450H26.3228V441.136H28.5628V442.24C28.8614 441.856 29.2401 441.557 29.6988 441.344C30.1681 441.12 30.6801 441.008 31.2348 441.008ZM37.3489 438.832H39.7009L37.9729 442.864H36.4369L37.3489 438.832ZM43.9151 442.976V447.264C43.9151 447.563 43.9845 447.781 44.1231 447.92C44.2725 448.048 44.5178 448.112 44.8591 448.112H45.8991V450H44.4911C42.6031 450 41.6591 449.083 41.6591 447.248V442.976H40.6031V441.136H41.6591V438.944H43.9151V441.136H45.8991V442.976H43.9151ZM63.6108 441.136L61.0188 450H58.6028L56.9868 443.808L55.3708 450H52.9388L50.3308 441.136H52.6028L54.1708 447.888L55.8668 441.136H58.2348L59.8988 447.872L61.4668 441.136H63.6108ZM68.7588 450.144C67.9054 450.144 67.1374 449.957 66.4548 449.584C65.7721 449.2 65.2334 448.661 64.8388 447.968C64.4548 447.275 64.2628 446.475 64.2628 445.568C64.2628 444.661 64.4601 443.861 64.8548 443.168C65.2601 442.475 65.8094 441.941 66.5028 441.568C67.1961 441.184 67.9694 440.992 68.8228 440.992C69.6761 440.992 70.4494 441.184 71.1428 441.568C71.8361 441.941 72.3801 442.475 72.7748 443.168C73.1801 443.861 73.3828 444.661 73.3828 445.568C73.3828 446.475 73.1748 447.275 72.7587 447.968C72.3534 448.661 71.7988 449.2 71.0948 449.584C70.4014 449.957 69.6228 450.144 68.7588 450.144ZM68.7588 448.192C69.1641 448.192 69.5428 448.096 69.8948 447.904C70.2574 447.701 70.5454 447.403 70.7588 447.008C70.9721 446.613 71.0788 446.133 71.0788 445.568C71.0788 444.725 70.8548 444.08 70.4068 443.632C69.9694 443.173 69.4308 442.944 68.7908 442.944C68.1508 442.944 67.6121 443.173 67.1748 443.632C66.7481 444.08 66.5348 444.725 66.5348 445.568C66.5348 446.411 66.7428 447.061 67.1588 447.52C67.5854 447.968 68.1188 448.192 68.7588 448.192ZM77.2659 442.512C77.5539 442.043 77.9272 441.675 78.3859 441.408C78.8552 441.141 79.3885 441.008 79.9859 441.008V443.36H79.3939C78.6899 443.36 78.1565 443.525 77.7939 443.856C77.4419 444.187 77.2659 444.763 77.2659 445.584V450H75.0259V441.136H77.2659V442.512ZM83.7346 442.512C84.0226 442.043 84.396 441.675 84.8546 441.408C85.324 441.141 85.8573 441.008 86.4546 441.008V443.36H85.8626C85.1586 443.36 84.6253 443.525 84.2626 443.856C83.9106 444.187 83.7346 444.763 83.7346 445.584V450H81.4946V441.136H83.7346V442.512ZM96.4434 441.136L90.9554 454.192H88.5714L90.4914 449.776L86.9394 441.136H89.4514L91.7394 447.328L94.0594 441.136H96.4434ZM102.599 440.08C102.205 440.08 101.874 439.957 101.607 439.712C101.351 439.456 101.223 439.141 101.223 438.768C101.223 438.395 101.351 438.085 101.607 437.84C101.874 437.584 102.205 437.456 102.599 437.456C102.994 437.456 103.319 437.584 103.575 437.84C103.842 438.085 103.975 438.395 103.975 438.768C103.975 439.141 103.842 439.456 103.575 439.712C103.319 439.957 102.994 440.08 102.599 440.08ZM103.703 441.136V450H101.463V441.136H103.703ZM108.525 442.976V447.264C108.525 447.563 108.594 447.781 108.733 447.92C108.882 448.048 109.127 448.112 109.469 448.112H110.509V450H109.101C107.213 450 106.269 449.083 106.269 447.248V442.976H105.213V441.136H106.269V438.944H108.525V441.136H110.509V442.976H108.525ZM120.924 441.008C121.596 441.008 122.193 441.157 122.716 441.456C123.239 441.744 123.644 442.176 123.932 442.752C124.231 443.317 124.38 444 124.38 444.8V450H122.14V445.104C122.14 444.4 121.964 443.861 121.612 443.488C121.26 443.104 120.78 442.912 120.172 442.912C119.553 442.912 119.063 443.104 118.7 443.488C118.348 443.861 118.172 444.4 118.172 445.104V450H115.932V438.16H118.172V442.24C118.46 441.856 118.844 441.557 119.324 441.344C119.804 441.12 120.337 441.008 120.924 441.008ZM125.934 445.536C125.934 444.64 126.11 443.845 126.462 443.152C126.825 442.459 127.31 441.925 127.918 441.552C128.537 441.179 129.225 440.992 129.982 440.992C130.644 440.992 131.22 441.125 131.71 441.392C132.212 441.659 132.612 441.995 132.91 442.4V441.136H135.166V450H132.91V448.704C132.622 449.12 132.222 449.467 131.71 449.744C131.209 450.011 130.628 450.144 129.966 450.144C129.22 450.144 128.537 449.952 127.918 449.568C127.31 449.184 126.825 448.645 126.462 447.952C126.11 447.248 125.934 446.443 125.934 445.536ZM132.91 445.568C132.91 445.024 132.804 444.56 132.59 444.176C132.377 443.781 132.089 443.483 131.726 443.28C131.364 443.067 130.974 442.96 130.558 442.96C130.142 442.96 129.758 443.061 129.406 443.264C129.054 443.467 128.766 443.765 128.542 444.16C128.329 444.544 128.222 445.003 128.222 445.536C128.222 446.069 128.329 446.539 128.542 446.944C128.766 447.339 129.054 447.643 129.406 447.856C129.769 448.069 130.153 448.176 130.558 448.176C130.974 448.176 131.364 448.075 131.726 447.872C132.089 447.659 132.377 447.36 132.59 446.976C132.804 446.581 132.91 446.112 132.91 445.568ZM139.594 442.416C139.882 442.011 140.277 441.675 140.778 441.408C141.29 441.131 141.871 440.992 142.522 440.992C143.279 440.992 143.962 441.179 144.57 441.552C145.189 441.925 145.674 442.459 146.026 443.152C146.389 443.835 146.57 444.629 146.57 445.536C146.57 446.443 146.389 447.248 146.026 447.952C145.674 448.645 145.189 449.184 144.57 449.568C143.962 449.952 143.279 450.144 142.522 450.144C141.871 450.144 141.295 450.011 140.794 449.744C140.303 449.477 139.903 449.141 139.594 448.736V454.224H137.354V441.136H139.594V442.416ZM144.282 445.536C144.282 445.003 144.17 444.544 143.946 444.16C143.733 443.765 143.445 443.467 143.082 443.264C142.73 443.061 142.346 442.96 141.93 442.96C141.525 442.96 141.141 443.067 140.778 443.28C140.426 443.483 140.138 443.781 139.914 444.176C139.701 444.571 139.594 445.035 139.594 445.568C139.594 446.101 139.701 446.565 139.914 446.96C140.138 447.355 140.426 447.659 140.778 447.872C141.141 448.075 141.525 448.176 141.93 448.176C142.346 448.176 142.73 448.069 143.082 447.856C143.445 447.643 143.733 447.339 143.946 446.944C144.17 446.549 144.282 446.08 144.282 445.536ZM150.438 442.416C150.726 442.011 151.12 441.675 151.622 441.408C152.134 441.131 152.715 440.992 153.366 440.992C154.123 440.992 154.806 441.179 155.414 441.552C156.032 441.925 156.518 442.459 156.87 443.152C157.232 443.835 157.414 444.629 157.414 445.536C157.414 446.443 157.232 447.248 156.87 447.952C156.518 448.645 156.032 449.184 155.414 449.568C154.806 449.952 154.123 450.144 153.366 450.144C152.715 450.144 152.139 450.011 151.638 449.744C151.147 449.477 150.747 449.141 150.438 448.736V454.224H148.198V441.136H150.438V442.416ZM155.126 445.536C155.126 445.003 155.014 444.544 154.79 444.16C154.576 443.765 154.288 443.467 153.926 443.264C153.574 443.061 153.19 442.96 152.774 442.96C152.368 442.96 151.984 443.067 151.622 443.28C151.27 443.483 150.982 443.781 150.758 444.176C150.544 444.571 150.438 445.035 150.438 445.568C150.438 446.101 150.544 446.565 150.758 446.96C150.982 447.355 151.27 447.659 151.622 447.872C151.984 448.075 152.368 448.176 152.774 448.176C153.19 448.176 153.574 448.069 153.926 447.856C154.288 447.643 154.576 447.339 154.79 446.944C155.014 446.549 155.126 446.08 155.126 445.536ZM167.282 445.376C167.282 445.696 167.26 445.984 167.218 446.24H160.738C160.791 446.88 161.015 447.381 161.41 447.744C161.804 448.107 162.29 448.288 162.866 448.288C163.698 448.288 164.29 447.931 164.642 447.216H167.058C166.802 448.069 166.311 448.773 165.586 449.328C164.86 449.872 163.97 450.144 162.914 450.144C162.06 450.144 161.292 449.957 160.61 449.584C159.938 449.2 159.41 448.661 159.026 447.968C158.652 447.275 158.465 446.475 158.465 445.568C158.465 444.651 158.652 443.845 159.026 443.152C159.399 442.459 159.922 441.925 160.594 441.552C161.266 441.179 162.039 440.992 162.914 440.992C163.756 440.992 164.508 441.173 165.17 441.536C165.842 441.899 166.359 442.416 166.722 443.088C167.095 443.749 167.282 444.512 167.282 445.376ZM164.962 444.736C164.951 444.16 164.743 443.701 164.338 443.36C163.932 443.008 163.436 442.832 162.85 442.832C162.295 442.832 161.826 443.003 161.442 443.344C161.068 443.675 160.839 444.139 160.754 444.736H164.962ZM173.829 441.008C174.885 441.008 175.738 441.344 176.389 442.016C177.039 442.677 177.365 443.605 177.365 444.8V450H175.125V445.104C175.125 444.4 174.949 443.861 174.597 443.488C174.245 443.104 173.765 442.912 173.157 442.912C172.538 442.912 172.047 443.104 171.685 443.488C171.333 443.861 171.157 444.4 171.157 445.104V450H168.917V441.136H171.157V442.24C171.455 441.856 171.834 441.557 172.293 441.344C172.762 441.12 173.274 441.008 173.829 441.008ZM182.887 450.144C182.161 450.144 181.511 450.016 180.935 449.76C180.359 449.493 179.9 449.136 179.559 448.688C179.228 448.24 179.047 447.744 179.015 447.2H181.271C181.313 447.541 181.479 447.824 181.767 448.048C182.065 448.272 182.433 448.384 182.871 448.384C183.297 448.384 183.628 448.299 183.863 448.128C184.108 447.957 184.231 447.739 184.231 447.472C184.231 447.184 184.081 446.971 183.783 446.832C183.495 446.683 183.031 446.523 182.391 446.352C181.729 446.192 181.185 446.027 180.759 445.856C180.343 445.685 179.98 445.424 179.671 445.072C179.372 444.72 179.223 444.245 179.223 443.648C179.223 443.157 179.361 442.709 179.639 442.304C179.927 441.899 180.332 441.579 180.855 441.344C181.388 441.109 182.012 440.992 182.727 440.992C183.783 440.992 184.625 441.259 185.255 441.792C185.884 442.315 186.231 443.024 186.295 443.92H184.151C184.119 443.568 183.969 443.291 183.703 443.088C183.447 442.875 183.1 442.768 182.663 442.768C182.257 442.768 181.943 442.843 181.719 442.992C181.505 443.141 181.399 443.349 181.399 443.616C181.399 443.915 181.548 444.144 181.847 444.304C182.145 444.453 182.609 444.608 183.239 444.768C183.879 444.928 184.407 445.093 184.823 445.264C185.239 445.435 185.596 445.701 185.895 446.064C186.204 446.416 186.364 446.885 186.375 447.472C186.375 447.984 186.231 448.443 185.943 448.848C185.665 449.253 185.26 449.573 184.727 449.808C184.204 450.032 183.591 450.144 182.887 450.144ZM194.634 442.976V447.264C194.634 447.563 194.703 447.781 194.842 447.92C194.991 448.048 195.237 448.112 195.578 448.112H196.618V450H195.21C193.322 450 192.378 449.083 192.378 447.248V442.976H191.322V441.136H192.378V438.944H194.634V441.136H196.618V442.976H194.634ZM202.165 450.144C201.312 450.144 200.544 449.957 199.861 449.584C199.178 449.2 198.64 448.661 198.245 447.968C197.861 447.275 197.669 446.475 197.669 445.568C197.669 444.661 197.866 443.861 198.261 443.168C198.666 442.475 199.216 441.941 199.909 441.568C200.602 441.184 201.376 440.992 202.229 440.992C203.082 440.992 203.856 441.184 204.549 441.568C205.242 441.941 205.786 442.475 206.181 443.168C206.586 443.861 206.789 444.661 206.789 445.568C206.789 446.475 206.581 447.275 206.165 447.968C205.76 448.661 205.205 449.2 204.501 449.584C203.808 449.957 203.029 450.144 202.165 450.144ZM202.165 448.192C202.57 448.192 202.949 448.096 203.301 447.904C203.664 447.701 203.952 447.403 204.165 447.008C204.378 446.613 204.485 446.133 204.485 445.568C204.485 444.725 204.261 444.08 203.813 443.632C203.376 443.173 202.837 442.944 202.197 442.944C201.557 442.944 201.018 443.173 200.581 443.632C200.154 444.08 199.941 444.725 199.941 445.568C199.941 446.411 200.149 447.061 200.565 447.52C200.992 447.968 201.525 448.192 202.165 448.192ZM214.853 442.976V447.264C214.853 447.563 214.922 447.781 215.061 447.92C215.21 448.048 215.455 448.112 215.797 448.112H216.837V450H215.429C213.541 450 212.597 449.083 212.597 447.248V442.976H211.541V441.136H212.597V438.944H214.853V441.136H216.837V442.976H214.853ZM223.44 441.008C224.112 441.008 224.709 441.157 225.232 441.456C225.754 441.744 226.16 442.176 226.448 442.752C226.746 443.317 226.896 444 226.896 444.8V450H224.656V445.104C224.656 444.4 224.48 443.861 224.128 443.488C223.776 443.104 223.296 442.912 222.688 442.912C222.069 442.912 221.578 443.104 221.216 443.488C220.864 443.861 220.688 444.4 220.688 445.104V450H218.448V438.16H220.688V442.24C220.976 441.856 221.36 441.557 221.84 441.344C222.32 441.12 222.853 441.008 223.44 441.008ZM237.266 445.376C237.266 445.696 237.245 445.984 237.202 446.24H230.722C230.775 446.88 230.999 447.381 231.394 447.744C231.789 448.107 232.274 448.288 232.85 448.288C233.682 448.288 234.274 447.931 234.626 447.216H237.042C236.786 448.069 236.295 448.773 235.57 449.328C234.845 449.872 233.954 450.144 232.898 450.144C232.045 450.144 231.277 449.957 230.594 449.584C229.922 449.2 229.394 448.661 229.01 447.968C228.637 447.275 228.45 446.475 228.45 445.568C228.45 444.651 228.637 443.845 229.01 443.152C229.383 442.459 229.906 441.925 230.578 441.552C231.25 441.179 232.023 440.992 232.898 440.992C233.741 440.992 234.493 441.173 235.154 441.536C235.826 441.899 236.343 442.416 236.706 443.088C237.079 443.749 237.266 444.512 237.266 445.376ZM234.946 444.736C234.935 444.16 234.727 443.701 234.322 443.36C233.917 443.008 233.421 442.832 232.834 442.832C232.279 442.832 231.81 443.003 231.426 443.344C231.053 443.675 230.823 444.139 230.738 444.736H234.946ZM244.953 442.432C245.241 442.005 245.636 441.659 246.137 441.392C246.649 441.125 247.231 440.992 247.881 440.992C248.639 440.992 249.321 441.179 249.929 441.552C250.548 441.925 251.033 442.459 251.385 443.152C251.748 443.835 251.929 444.629 251.929 445.536C251.929 446.443 251.748 447.248 251.385 447.952C251.033 448.645 250.548 449.184 249.929 449.568C249.321 449.952 248.639 450.144 247.881 450.144C247.22 450.144 246.639 450.016 246.137 449.76C245.647 449.493 245.252 449.152 244.953 448.736V450H242.713V438.16H244.953V442.432ZM249.641 445.536C249.641 445.003 249.529 444.544 249.305 444.16C249.092 443.765 248.804 443.467 248.441 443.264C248.089 443.061 247.705 442.96 247.289 442.96C246.884 442.96 246.5 443.067 246.137 443.28C245.785 443.483 245.497 443.781 245.273 444.176C245.06 444.571 244.953 445.035 244.953 445.568C244.953 446.101 245.06 446.565 245.273 446.96C245.497 447.355 245.785 447.659 246.137 447.872C246.5 448.075 246.884 448.176 247.289 448.176C247.705 448.176 248.089 448.069 248.441 447.856C248.804 447.643 249.092 447.339 249.305 446.944C249.529 446.549 249.641 446.08 249.641 445.536ZM261.797 445.376C261.797 445.696 261.776 445.984 261.733 446.24H255.253C255.306 446.88 255.53 447.381 255.925 447.744C256.32 448.107 256.805 448.288 257.381 448.288C258.213 448.288 258.805 447.931 259.157 447.216H261.573C261.317 448.069 260.826 448.773 260.101 449.328C259.376 449.872 258.485 450.144 257.429 450.144C256.576 450.144 255.808 449.957 255.125 449.584C254.453 449.2 253.925 448.661 253.541 447.968C253.168 447.275 252.981 446.475 252.981 445.568C252.981 444.651 253.168 443.845 253.541 443.152C253.914 442.459 254.437 441.925 255.109 441.552C255.781 441.179 256.554 440.992 257.429 440.992C258.272 440.992 259.024 441.173 259.685 441.536C260.357 441.899 260.874 442.416 261.237 443.088C261.61 443.749 261.797 444.512 261.797 445.376ZM259.477 444.736C259.466 444.16 259.258 443.701 258.853 443.36C258.448 443.008 257.952 442.832 257.365 442.832C256.81 442.832 256.341 443.003 255.957 443.344C255.584 443.675 255.354 444.139 255.269 444.736H259.477ZM266.824 450.144C266.099 450.144 265.448 450.016 264.872 449.76C264.296 449.493 263.837 449.136 263.496 448.688C263.165 448.24 262.984 447.744 262.952 447.2H265.208C265.251 447.541 265.416 447.824 265.704 448.048C266.003 448.272 266.371 448.384 266.808 448.384C267.235 448.384 267.565 448.299 267.8 448.128C268.045 447.957 268.168 447.739 268.168 447.472C268.168 447.184 268.019 446.971 267.72 446.832C267.432 446.683 266.968 446.523 266.328 446.352C265.667 446.192 265.123 446.027 264.696 445.856C264.28 445.685 263.917 445.424 263.608 445.072C263.309 444.72 263.16 444.245 263.16 443.648C263.16 443.157 263.299 442.709 263.576 442.304C263.864 441.899 264.269 441.579 264.792 441.344C265.325 441.109 265.949 440.992 266.664 440.992C267.72 440.992 268.563 441.259 269.192 441.792C269.821 442.315 270.168 443.024 270.232 443.92H268.088C268.056 443.568 267.907 443.291 267.64 443.088C267.384 442.875 267.037 442.768 266.6 442.768C266.195 442.768 265.88 442.843 265.656 442.992C265.443 443.141 265.336 443.349 265.336 443.616C265.336 443.915 265.485 444.144 265.784 444.304C266.083 444.453 266.547 444.608 267.176 444.768C267.816 444.928 268.344 445.093 268.76 445.264C269.176 445.435 269.533 445.701 269.832 446.064C270.141 446.416 270.301 446.885 270.312 447.472C270.312 447.984 270.168 448.443 269.88 448.848C269.603 449.253 269.197 449.573 268.664 449.808C268.141 450.032 267.528 450.144 266.824 450.144ZM274.759 442.976V447.264C274.759 447.563 274.828 447.781 274.967 447.92C275.116 448.048 275.362 448.112 275.703 448.112H276.743V450H275.335C273.447 450 272.503 449.083 272.503 447.248V442.976H271.447V441.136H272.503V438.944H274.759V441.136H276.743V442.976H274.759ZM286.103 450.144C285.249 450.144 284.481 449.957 283.799 449.584C283.116 449.2 282.577 448.661 282.183 447.968C281.799 447.275 281.607 446.475 281.607 445.568C281.607 444.661 281.804 443.861 282.199 443.168C282.604 442.475 283.153 441.941 283.847 441.568C284.54 441.184 285.313 440.992 286.167 440.992C287.02 440.992 287.793 441.184 288.487 441.568C289.18 441.941 289.724 442.475 290.119 443.168C290.524 443.861 290.727 444.661 290.727 445.568C290.727 446.475 290.519 447.275 290.102 447.968C289.697 448.661 289.143 449.2 288.439 449.584C287.745 449.957 286.967 450.144 286.103 450.144ZM286.103 448.192C286.508 448.192 286.887 448.096 287.239 447.904C287.601 447.701 287.889 447.403 288.103 447.008C288.316 446.613 288.423 446.133 288.423 445.568C288.423 444.725 288.199 444.08 287.751 443.632C287.313 443.173 286.775 442.944 286.135 442.944C285.495 442.944 284.956 443.173 284.519 443.632C284.092 444.08 283.879 444.725 283.879 445.568C283.879 446.411 284.087 447.061 284.503 447.52C284.929 447.968 285.463 448.192 286.103 448.192ZM296.434 442.976H294.882V450H292.61V442.976H291.602V441.136H292.61V440.688C292.61 439.6 292.919 438.8 293.538 438.288C294.156 437.776 295.09 437.536 296.338 437.568V439.456C295.794 439.445 295.415 439.536 295.202 439.728C294.988 439.92 294.882 440.267 294.882 440.768V441.136H296.434V442.976ZM310.066 441.136V450H307.81V448.88C307.522 449.264 307.143 449.568 306.674 449.792C306.215 450.005 305.714 450.112 305.17 450.112C304.476 450.112 303.863 449.968 303.33 449.68C302.796 449.381 302.375 448.949 302.066 448.384C301.767 447.808 301.618 447.125 301.618 446.336V441.136H303.858V446.016C303.858 446.72 304.034 447.264 304.386 447.648C304.738 448.021 305.218 448.208 305.826 448.208C306.444 448.208 306.93 448.021 307.282 447.648C307.634 447.264 307.81 446.72 307.81 446.016V441.136H310.066ZM315.668 450.144C314.943 450.144 314.292 450.016 313.716 449.76C313.14 449.493 312.681 449.136 312.34 448.688C312.009 448.24 311.828 447.744 311.796 447.2H314.052C314.095 447.541 314.26 447.824 314.548 448.048C314.847 448.272 315.215 448.384 315.652 448.384C316.079 448.384 316.409 448.299 316.644 448.128C316.889 447.957 317.012 447.739 317.012 447.472C317.012 447.184 316.863 446.971 316.564 446.832C316.276 446.683 315.812 446.523 315.172 446.352C314.511 446.192 313.967 446.027 313.54 445.856C313.124 445.685 312.761 445.424 312.452 445.072C312.153 444.72 312.004 444.245 312.004 443.648C312.004 443.157 312.143 442.709 312.42 442.304C312.708 441.899 313.113 441.579 313.636 441.344C314.169 441.109 314.793 440.992 315.508 440.992C316.564 440.992 317.407 441.259 318.036 441.792C318.665 442.315 319.012 443.024 319.076 443.92H316.932C316.9 443.568 316.751 443.291 316.484 443.088C316.228 442.875 315.881 442.768 315.444 442.768C315.039 442.768 314.724 442.843 314.5 442.992C314.287 443.141 314.18 443.349 314.18 443.616C314.18 443.915 314.329 444.144 314.628 444.304C314.927 444.453 315.391 444.608 316.02 444.768C316.66 444.928 317.188 445.093 317.604 445.264C318.02 445.435 318.377 445.701 318.676 446.064C318.985 446.416 319.145 446.885 319.156 447.472C319.156 447.984 319.012 448.443 318.724 448.848C318.447 449.253 318.041 449.573 317.508 449.808C316.985 450.032 316.372 450.144 315.668 450.144ZM321.987 450.112C321.581 450.112 321.245 449.989 320.979 449.744C320.723 449.488 320.595 449.173 320.595 448.8C320.595 448.427 320.723 448.117 320.979 447.872C321.245 447.616 321.581 447.488 321.987 447.488C322.381 447.488 322.707 447.616 322.963 447.872C323.219 448.117 323.347 448.427 323.347 448.8C323.347 449.173 323.219 449.488 322.963 449.744C322.707 449.989 322.381 450.112 321.987 450.112ZM331.203 440.64V443.44H334.963V445.216H331.203V448.176H335.443V450H328.963V438.816H335.443V440.64H331.203ZM342.391 441.008C343.447 441.008 344.3 441.344 344.951 442.016C345.602 442.677 345.927 443.605 345.927 444.8V450H343.687V445.104C343.687 444.4 343.511 443.861 343.159 443.488C342.807 443.104 342.327 442.912 341.719 442.912C341.1 442.912 340.61 443.104 340.247 443.488C339.895 443.861 339.719 444.4 339.719 445.104V450H337.479V441.136H339.719V442.24C340.018 441.856 340.396 441.557 340.855 441.344C341.324 441.12 341.836 441.008 342.391 441.008ZM350.665 442.976V447.264C350.665 447.563 350.734 447.781 350.873 447.92C351.022 448.048 351.268 448.112 351.609 448.112H352.649V450H351.241C349.353 450 348.409 449.083 348.409 447.248V442.976H347.353V441.136H348.409V438.944H350.665V441.136H352.649V442.976H350.665ZM362.5 445.376C362.5 445.696 362.479 445.984 362.436 446.24H355.956C356.01 446.88 356.234 447.381 356.628 447.744C357.023 448.107 357.508 448.288 358.084 448.288C358.916 448.288 359.508 447.931 359.86 447.216H362.276C362.02 448.069 361.53 448.773 360.804 449.328C360.079 449.872 359.188 450.144 358.132 450.144C357.279 450.144 356.511 449.957 355.828 449.584C355.156 449.2 354.628 448.661 354.244 447.968C353.871 447.275 353.684 446.475 353.684 445.568C353.684 444.651 353.871 443.845 354.244 443.152C354.618 442.459 355.14 441.925 355.812 441.552C356.484 441.179 357.258 440.992 358.132 440.992C358.975 440.992 359.727 441.173 360.388 441.536C361.06 441.899 361.578 442.416 361.94 443.088C362.314 443.749 362.5 444.512 362.5 445.376ZM360.18 444.736C360.17 444.16 359.962 443.701 359.556 443.36C359.151 443.008 358.655 442.832 358.068 442.832C357.514 442.832 357.044 443.003 356.66 443.344C356.287 443.675 356.058 444.139 355.972 444.736H360.18ZM366.375 442.512C366.663 442.043 367.037 441.675 367.495 441.408C367.965 441.141 368.498 441.008 369.095 441.008V443.36H368.503C367.799 443.36 367.266 443.525 366.903 443.856C366.551 444.187 366.375 444.763 366.375 445.584V450H364.135V441.136H366.375V442.512ZM382.897 441.136L377.409 454.192H375.025L376.945 449.776L373.393 441.136H375.905L378.193 447.328L380.513 441.136H382.897ZM388.04 450.144C387.187 450.144 386.419 449.957 385.736 449.584C385.053 449.2 384.515 448.661 384.12 447.968C383.736 447.275 383.544 446.475 383.544 445.568C383.544 444.661 383.741 443.861 384.136 443.168C384.541 442.475 385.091 441.941 385.784 441.568C386.477 441.184 387.251 440.992 388.104 440.992C388.957 440.992 389.731 441.184 390.424 441.568C391.117 441.941 391.661 442.475 392.056 443.168C392.461 443.861 392.664 444.661 392.664 445.568C392.664 446.475 392.456 447.275 392.04 447.968C391.635 448.661 391.08 449.2 390.376 449.584C389.683 449.957 388.904 450.144 388.04 450.144ZM388.04 448.192C388.445 448.192 388.824 448.096 389.176 447.904C389.539 447.701 389.827 447.403 390.04 447.008C390.253 446.613 390.36 446.133 390.36 445.568C390.36 444.725 390.136 444.08 389.688 443.632C389.251 443.173 388.712 442.944 388.072 442.944C387.432 442.944 386.893 443.173 386.456 443.632C386.029 444.08 385.816 444.725 385.816 445.568C385.816 446.411 386.024 447.061 386.44 447.52C386.867 447.968 387.4 448.192 388.04 448.192ZM402.675 441.136V450H400.419V448.88C400.131 449.264 399.752 449.568 399.283 449.792C398.824 450.005 398.323 450.112 397.779 450.112C397.086 450.112 396.472 449.968 395.939 449.68C395.406 449.381 394.984 448.949 394.675 448.384C394.376 447.808 394.227 447.125 394.227 446.336V441.136H396.467V446.016C396.467 446.72 396.643 447.264 396.995 447.648C397.347 448.021 397.827 448.208 398.435 448.208C399.054 448.208 399.539 448.021 399.891 447.648C400.243 447.264 400.419 446.72 400.419 446.016V441.136H402.675ZM407.125 442.512C407.413 442.043 407.787 441.675 408.245 441.408C408.715 441.141 409.248 441.008 409.845 441.008V443.36H409.253C408.549 443.36 408.016 443.525 407.653 443.856C407.301 444.187 407.125 444.763 407.125 445.584V450H404.885V441.136H407.125V442.512ZM423.407 445.376C423.407 445.696 423.385 445.984 423.343 446.24H416.863C416.916 446.88 417.14 447.381 417.535 447.744C417.929 448.107 418.415 448.288 418.991 448.288C419.823 448.288 420.415 447.931 420.767 447.216H423.183C422.927 448.069 422.436 448.773 421.711 449.328C420.985 449.872 420.095 450.144 419.039 450.144C418.185 450.144 417.417 449.957 416.735 449.584C416.063 449.2 415.535 448.661 415.151 447.968C414.777 447.275 414.59 446.475 414.59 445.568C414.59 444.651 414.777 443.845 415.151 443.152C415.524 442.459 416.047 441.925 416.719 441.552C417.391 441.179 418.164 440.992 419.039 440.992C419.881 440.992 420.633 441.173 421.295 441.536C421.967 441.899 422.484 442.416 422.847 443.088C423.22 443.749 423.407 444.512 423.407 445.376ZM421.087 444.736C421.076 444.16 420.868 443.701 420.463 443.36C420.057 443.008 419.561 442.832 418.975 442.832C418.42 442.832 417.951 443.003 417.567 443.344C417.193 443.675 416.964 444.139 416.879 444.736H421.087ZM436.05 441.008C437.138 441.008 438.012 441.344 438.674 442.016C439.346 442.677 439.682 443.605 439.682 444.8V450H437.442V445.104C437.442 444.411 437.266 443.883 436.914 443.52C436.562 443.147 436.082 442.96 435.474 442.96C434.866 442.96 434.38 443.147 434.018 443.52C433.666 443.883 433.49 444.411 433.49 445.104V450H431.25V445.104C431.25 444.411 431.074 443.883 430.722 443.52C430.37 443.147 429.89 442.96 429.282 442.96C428.663 442.96 428.172 443.147 427.81 443.52C427.458 443.883 427.282 444.411 427.282 445.104V450H425.042V441.136H427.282V442.208C427.57 441.835 427.938 441.541 428.386 441.328C428.844 441.115 429.346 441.008 429.89 441.008C430.583 441.008 431.202 441.157 431.746 441.456C432.29 441.744 432.711 442.16 433.01 442.704C433.298 442.192 433.714 441.781 434.258 441.472C434.812 441.163 435.41 441.008 436.05 441.008ZM441.231 445.536C441.231 444.64 441.407 443.845 441.759 443.152C442.122 442.459 442.607 441.925 443.215 441.552C443.834 441.179 444.522 440.992 445.279 440.992C445.94 440.992 446.516 441.125 447.007 441.392C447.508 441.659 447.908 441.995 448.207 442.4V441.136H450.463V450H448.207V448.704C447.919 449.12 447.519 449.467 447.007 449.744C446.506 450.011 445.924 450.144 445.263 450.144C444.516 450.144 443.834 449.952 443.215 449.568C442.607 449.184 442.122 448.645 441.759 447.952C441.407 447.248 441.231 446.443 441.231 445.536ZM448.207 445.568C448.207 445.024 448.1 444.56 447.887 444.176C447.674 443.781 447.386 443.483 447.023 443.28C446.66 443.067 446.271 442.96 445.855 442.96C445.439 442.96 445.055 443.061 444.703 443.264C444.351 443.467 444.063 443.765 443.839 444.16C443.626 444.544 443.519 445.003 443.519 445.536C443.519 446.069 443.626 446.539 443.839 446.944C444.063 447.339 444.351 447.643 444.703 447.856C445.066 448.069 445.45 448.176 445.855 448.176C446.271 448.176 446.66 448.075 447.023 447.872C447.386 447.659 447.674 447.36 447.887 446.976C448.1 446.581 448.207 446.112 448.207 445.568ZM453.787 440.08C453.392 440.08 453.062 439.957 452.795 439.712C452.539 439.456 452.411 439.141 452.411 438.768C452.411 438.395 452.539 438.085 452.795 437.84C453.062 437.584 453.392 437.456 453.787 437.456C454.182 437.456 454.507 437.584 454.763 437.84C455.03 438.085 455.163 438.395 455.163 438.768C455.163 439.141 455.03 439.456 454.763 439.712C454.507 439.957 454.182 440.08 453.787 440.08ZM454.891 441.136V450H452.651V441.136H454.891ZM459.344 438.16V450H457.104V438.16H459.344ZM90.8874 469.536C90.8874 468.64 91.0634 467.845 91.4154 467.152C91.778 466.459 92.2634 465.925 92.8714 465.552C93.49 465.179 94.178 464.992 94.9354 464.992C95.5967 464.992 96.1727 465.125 96.6634 465.392C97.1647 465.659 97.5647 465.995 97.8634 466.4V465.136H100.119V474H97.8634V472.704C97.5754 473.12 97.1754 473.467 96.6634 473.744C96.162 474.011 95.5807 474.144 94.9194 474.144C94.1727 474.144 93.49 473.952 92.8714 473.568C92.2634 473.184 91.778 472.645 91.4154 471.952C91.0634 471.248 90.8874 470.443 90.8874 469.536ZM97.8634 469.568C97.8634 469.024 97.7567 468.56 97.5434 468.176C97.33 467.781 97.042 467.483 96.6794 467.28C96.3167 467.067 95.9274 466.96 95.5114 466.96C95.0954 466.96 94.7114 467.061 94.3594 467.264C94.0074 467.467 93.7194 467.765 93.4954 468.16C93.282 468.544 93.1754 469.003 93.1754 469.536C93.1754 470.069 93.282 470.539 93.4954 470.944C93.7194 471.339 94.0074 471.643 94.3594 471.856C94.722 472.069 95.106 472.176 95.5114 472.176C95.9274 472.176 96.3167 472.075 96.6794 471.872C97.042 471.659 97.33 471.36 97.5434 470.976C97.7567 470.581 97.8634 470.112 97.8634 469.568ZM107.219 465.008C108.275 465.008 109.128 465.344 109.779 466.016C110.43 466.677 110.755 467.605 110.755 468.8V474H108.515V469.104C108.515 468.4 108.339 467.861 107.987 467.488C107.635 467.104 107.155 466.912 106.547 466.912C105.928 466.912 105.438 467.104 105.075 467.488C104.723 467.861 104.547 468.4 104.547 469.104V474H102.307V465.136H104.547V466.24C104.846 465.856 105.224 465.557 105.683 465.344C106.152 465.12 106.664 465.008 107.219 465.008ZM112.309 469.536C112.309 468.64 112.485 467.845 112.837 467.152C113.2 466.459 113.691 465.925 114.309 465.552C114.928 465.179 115.616 464.992 116.373 464.992C116.949 464.992 117.499 465.12 118.021 465.376C118.544 465.621 118.96 465.952 119.269 466.368V462.16H121.541V474H119.269V472.688C118.992 473.125 118.603 473.477 118.101 473.744C117.6 474.011 117.019 474.144 116.357 474.144C115.611 474.144 114.928 473.952 114.309 473.568C113.691 473.184 113.2 472.645 112.837 471.952C112.485 471.248 112.309 470.443 112.309 469.536ZM119.285 469.568C119.285 469.024 119.179 468.56 118.965 468.176C118.752 467.781 118.464 467.483 118.101 467.28C117.739 467.067 117.349 466.96 116.933 466.96C116.517 466.96 116.133 467.061 115.781 467.264C115.429 467.467 115.141 467.765 114.917 468.16C114.704 468.544 114.597 469.003 114.597 469.536C114.597 470.069 114.704 470.539 114.917 470.944C115.141 471.339 115.429 471.643 115.781 471.856C116.144 472.069 116.528 472.176 116.933 472.176C117.349 472.176 117.739 472.075 118.101 471.872C118.464 471.659 118.752 471.36 118.965 470.976C119.179 470.581 119.285 470.112 119.285 469.568ZM139.83 465.136L137.238 474H134.822L133.206 467.808L131.59 474H129.158L126.55 465.136H128.822L130.39 471.888L132.086 465.136H134.454L136.118 471.872L137.686 465.136H139.83ZM149.282 469.376C149.282 469.696 149.26 469.984 149.218 470.24H142.738C142.791 470.88 143.015 471.381 143.41 471.744C143.804 472.107 144.29 472.288 144.866 472.288C145.698 472.288 146.29 471.931 146.642 471.216H149.058C148.802 472.069 148.311 472.773 147.586 473.328C146.86 473.872 145.97 474.144 144.914 474.144C144.06 474.144 143.292 473.957 142.61 473.584C141.938 473.2 141.41 472.661 141.026 471.968C140.652 471.275 140.465 470.475 140.465 469.568C140.465 468.651 140.652 467.845 141.026 467.152C141.399 466.459 141.922 465.925 142.594 465.552C143.266 465.179 144.039 464.992 144.914 464.992C145.756 464.992 146.508 465.173 147.17 465.536C147.842 465.899 148.359 466.416 148.722 467.088C149.095 467.749 149.282 468.512 149.282 469.376ZM146.962 468.736C146.951 468.16 146.743 467.701 146.338 467.36C145.932 467.008 145.436 466.832 144.85 466.832C144.295 466.832 143.826 467.003 143.442 467.344C143.068 467.675 142.839 468.139 142.754 468.736H146.962ZM151.365 462.832H153.717L151.989 466.864H150.453L151.365 462.832ZM157.563 462.16V474H155.323V462.16H157.563ZM162.016 462.16V474H159.776V462.16H162.016ZM173.034 465.008C173.706 465.008 174.303 465.157 174.826 465.456C175.348 465.744 175.754 466.176 176.042 466.752C176.34 467.317 176.49 468 176.49 468.8V474H174.25V469.104C174.25 468.4 174.074 467.861 173.722 467.488C173.37 467.104 172.89 466.912 172.282 466.912C171.663 466.912 171.172 467.104 170.81 467.488C170.458 467.861 170.282 468.4 170.282 469.104V474H168.042V462.16H170.282V466.24C170.57 465.856 170.954 465.557 171.434 465.344C171.914 465.12 172.447 465.008 173.034 465.008ZM186.86 469.376C186.86 469.696 186.838 469.984 186.796 470.24H180.316C180.369 470.88 180.593 471.381 180.988 471.744C181.382 472.107 181.868 472.288 182.444 472.288C183.276 472.288 183.868 471.931 184.22 471.216H186.636C186.38 472.069 185.889 472.773 185.164 473.328C184.438 473.872 183.548 474.144 182.492 474.144C181.638 474.144 180.87 473.957 180.188 473.584C179.516 473.2 178.988 472.661 178.604 471.968C178.23 471.275 178.044 470.475 178.044 469.568C178.044 468.651 178.23 467.845 178.604 467.152C178.977 466.459 179.5 465.925 180.172 465.552C180.844 465.179 181.617 464.992 182.492 464.992C183.334 464.992 184.086 465.173 184.748 465.536C185.42 465.899 185.937 466.416 186.3 467.088C186.673 467.749 186.86 468.512 186.86 469.376ZM184.54 468.736C184.529 468.16 184.321 467.701 183.916 467.36C183.51 467.008 183.014 466.832 182.428 466.832C181.873 466.832 181.404 467.003 181.02 467.344C180.646 467.675 180.417 468.139 180.332 468.736H184.54ZM190.735 462.16V474H188.495V462.16H190.735ZM195.188 466.416C195.476 466.011 195.87 465.675 196.372 465.408C196.884 465.131 197.465 464.992 198.116 464.992C198.873 464.992 199.556 465.179 200.164 465.552C200.782 465.925 201.268 466.459 201.62 467.152C201.982 467.835 202.164 468.629 202.164 469.536C202.164 470.443 201.982 471.248 201.62 471.952C201.268 472.645 200.782 473.184 200.164 473.568C199.556 473.952 198.873 474.144 198.116 474.144C197.465 474.144 196.889 474.011 196.388 473.744C195.897 473.477 195.497 473.141 195.188 472.736V478.224H192.948V465.136H195.188V466.416ZM199.876 469.536C199.876 469.003 199.764 468.544 199.54 468.16C199.326 467.765 199.038 467.467 198.676 467.264C198.324 467.061 197.94 466.96 197.524 466.96C197.118 466.96 196.734 467.067 196.372 467.28C196.02 467.483 195.732 467.781 195.508 468.176C195.294 468.571 195.188 469.035 195.188 469.568C195.188 470.101 195.294 470.565 195.508 470.96C195.732 471.355 196.02 471.659 196.372 471.872C196.734 472.075 197.118 472.176 197.524 472.176C197.94 472.176 198.324 472.069 198.676 471.856C199.038 471.643 199.326 471.339 199.54 470.944C199.764 470.549 199.876 470.08 199.876 469.536ZM216.084 465.136L210.596 478.192H208.212L210.132 473.776L206.58 465.136H209.092L211.38 471.328L213.7 465.136H216.084ZM221.228 474.144C220.374 474.144 219.606 473.957 218.924 473.584C218.241 473.2 217.702 472.661 217.308 471.968C216.924 471.275 216.732 470.475 216.732 469.568C216.732 468.661 216.929 467.861 217.324 467.168C217.729 466.475 218.278 465.941 218.972 465.568C219.665 465.184 220.438 464.992 221.292 464.992C222.145 464.992 222.918 465.184 223.612 465.568C224.305 465.941 224.849 466.475 225.244 467.168C225.649 467.861 225.852 468.661 225.852 469.568C225.852 470.475 225.644 471.275 225.227 471.968C224.822 472.661 224.268 473.2 223.564 473.584C222.87 473.957 222.092 474.144 221.228 474.144ZM221.228 472.192C221.633 472.192 222.012 472.096 222.364 471.904C222.726 471.701 223.014 471.403 223.228 471.008C223.441 470.613 223.548 470.133 223.548 469.568C223.548 468.725 223.324 468.08 222.876 467.632C222.438 467.173 221.9 466.944 221.26 466.944C220.62 466.944 220.081 467.173 219.644 467.632C219.217 468.08 219.004 468.725 219.004 469.568C219.004 470.411 219.212 471.061 219.628 471.52C220.054 471.968 220.588 472.192 221.228 472.192ZM235.863 465.136V474H233.607V472.88C233.319 473.264 232.94 473.568 232.471 473.792C232.012 474.005 231.511 474.112 230.967 474.112C230.273 474.112 229.66 473.968 229.127 473.68C228.593 473.381 228.172 472.949 227.863 472.384C227.564 471.808 227.415 471.125 227.415 470.336V465.136H229.655V470.016C229.655 470.72 229.831 471.264 230.183 471.648C230.535 472.021 231.015 472.208 231.623 472.208C232.241 472.208 232.727 472.021 233.079 471.648C233.431 471.264 233.607 470.72 233.607 470.016V465.136H235.863ZM245.277 474.144C244.552 474.144 243.901 474.016 243.325 473.76C242.749 473.493 242.291 473.136 241.949 472.688C241.619 472.24 241.437 471.744 241.405 471.2H243.661C243.704 471.541 243.869 471.824 244.157 472.048C244.456 472.272 244.824 472.384 245.261 472.384C245.688 472.384 246.019 472.299 246.253 472.128C246.499 471.957 246.621 471.739 246.621 471.472C246.621 471.184 246.472 470.971 246.173 470.832C245.885 470.683 245.421 470.523 244.781 470.352C244.12 470.192 243.576 470.027 243.149 469.856C242.733 469.685 242.371 469.424 242.061 469.072C241.763 468.72 241.613 468.245 241.613 467.648C241.613 467.157 241.752 466.709 242.029 466.304C242.317 465.899 242.723 465.579 243.245 465.344C243.779 465.109 244.403 464.992 245.117 464.992C246.173 464.992 247.016 465.259 247.645 465.792C248.275 466.315 248.621 467.024 248.685 467.92H246.541C246.509 467.568 246.36 467.291 246.093 467.088C245.837 466.875 245.491 466.768 245.053 466.768C244.648 466.768 244.333 466.843 244.109 466.992C243.896 467.141 243.789 467.349 243.789 467.616C243.789 467.915 243.939 468.144 244.237 468.304C244.536 468.453 245 468.608 245.629 468.768C246.269 468.928 246.797 469.093 247.213 469.264C247.629 469.435 247.987 469.701 248.285 470.064C248.595 470.416 248.755 470.885 248.765 471.472C248.765 471.984 248.621 472.443 248.333 472.848C248.056 473.253 247.651 473.573 247.117 473.808C246.595 474.032 245.981 474.144 245.277 474.144ZM258.844 469.376C258.844 469.696 258.823 469.984 258.78 470.24H252.3C252.353 470.88 252.577 471.381 252.972 471.744C253.367 472.107 253.852 472.288 254.428 472.288C255.26 472.288 255.852 471.931 256.204 471.216H258.62C258.364 472.069 257.873 472.773 257.148 473.328C256.423 473.872 255.532 474.144 254.476 474.144C253.623 474.144 252.855 473.957 252.172 473.584C251.5 473.2 250.972 472.661 250.588 471.968C250.215 471.275 250.028 470.475 250.028 469.568C250.028 468.651 250.215 467.845 250.588 467.152C250.961 466.459 251.484 465.925 252.156 465.552C252.828 465.179 253.601 464.992 254.476 464.992C255.319 464.992 256.071 465.173 256.732 465.536C257.404 465.899 257.921 466.416 258.284 467.088C258.657 467.749 258.844 468.512 258.844 469.376ZM256.524 468.736C256.513 468.16 256.305 467.701 255.9 467.36C255.495 467.008 254.999 466.832 254.412 466.832C253.857 466.832 253.388 467.003 253.004 467.344C252.631 467.675 252.401 468.139 252.316 468.736H256.524ZM259.903 469.568C259.903 468.651 260.09 467.851 260.463 467.168C260.836 466.475 261.354 465.941 262.015 465.568C262.676 465.184 263.434 464.992 264.287 464.992C265.386 464.992 266.292 465.269 267.007 465.824C267.732 466.368 268.218 467.136 268.463 468.128H266.047C265.919 467.744 265.7 467.445 265.391 467.232C265.092 467.008 264.719 466.896 264.271 466.896C263.631 466.896 263.124 467.131 262.751 467.6C262.378 468.059 262.191 468.715 262.191 469.568C262.191 470.411 262.378 471.067 262.751 471.536C263.124 471.995 263.631 472.224 264.271 472.224C265.178 472.224 265.77 471.819 266.047 471.008H268.463C268.218 471.968 267.732 472.731 267.007 473.296C266.282 473.861 265.375 474.144 264.287 474.144C263.434 474.144 262.676 473.957 262.015 473.584C261.354 473.2 260.836 472.667 260.463 471.984C260.09 471.291 259.903 470.485 259.903 469.568ZM278.472 465.136V474H276.216V472.88C275.928 473.264 275.549 473.568 275.08 473.792C274.621 474.005 274.12 474.112 273.576 474.112C272.883 474.112 272.269 473.968 271.736 473.68C271.203 473.381 270.781 472.949 270.472 472.384C270.173 471.808 270.024 471.125 270.024 470.336V465.136H272.264V470.016C272.264 470.72 272.44 471.264 272.792 471.648C273.144 472.021 273.624 472.208 274.232 472.208C274.851 472.208 275.336 472.021 275.688 471.648C276.04 471.264 276.216 470.72 276.216 470.016V465.136H278.472ZM282.922 466.512C283.21 466.043 283.583 465.675 284.042 465.408C284.511 465.141 285.045 465.008 285.642 465.008V467.36H285.05C284.346 467.36 283.813 467.525 283.45 467.856C283.098 468.187 282.922 468.763 282.922 469.584V474H280.682V465.136H282.922V466.512ZM295.391 469.376C295.391 469.696 295.37 469.984 295.327 470.24H288.847C288.9 470.88 289.124 471.381 289.519 471.744C289.914 472.107 290.399 472.288 290.975 472.288C291.807 472.288 292.399 471.931 292.751 471.216H295.167C294.911 472.069 294.42 472.773 293.695 473.328C292.97 473.872 292.079 474.144 291.023 474.144C290.17 474.144 289.402 473.957 288.719 473.584C288.047 473.2 287.519 472.661 287.135 471.968C286.762 471.275 286.575 470.475 286.575 469.568C286.575 468.651 286.762 467.845 287.135 467.152C287.508 466.459 288.031 465.925 288.703 465.552C289.375 465.179 290.148 464.992 291.023 464.992C291.866 464.992 292.618 465.173 293.279 465.536C293.951 465.899 294.468 466.416 294.831 467.088C295.204 467.749 295.391 468.512 295.391 469.376ZM293.071 468.736C293.06 468.16 292.852 467.701 292.447 467.36C292.042 467.008 291.546 466.832 290.959 466.832C290.404 466.832 289.935 467.003 289.551 467.344C289.178 467.675 288.948 468.139 288.863 468.736H293.071ZM299.266 462.16V474H297.026V462.16H299.266ZM309.959 465.136L304.471 478.192H302.087L304.007 473.776L300.455 465.136H302.967L305.255 471.328L307.575 465.136H309.959ZM317.219 466.512C317.507 466.043 317.88 465.675 318.339 465.408C318.808 465.141 319.342 465.008 319.939 465.008V467.36H319.347C318.643 467.36 318.11 467.525 317.747 467.856C317.395 468.187 317.219 468.763 317.219 469.584V474H314.979V465.136H317.219V466.512ZM329.688 469.376C329.688 469.696 329.666 469.984 329.624 470.24H323.144C323.197 470.88 323.421 471.381 323.816 471.744C324.21 472.107 324.696 472.288 325.272 472.288C326.104 472.288 326.696 471.931 327.048 471.216H329.464C329.208 472.069 328.717 472.773 327.992 473.328C327.266 473.872 326.376 474.144 325.32 474.144C324.466 474.144 323.698 473.957 323.016 473.584C322.344 473.2 321.816 472.661 321.432 471.968C321.058 471.275 320.872 470.475 320.872 469.568C320.872 468.651 321.058 467.845 321.432 467.152C321.805 466.459 322.328 465.925 323 465.552C323.672 465.179 324.445 464.992 325.32 464.992C326.162 464.992 326.914 465.173 327.576 465.536C328.248 465.899 328.765 466.416 329.128 467.088C329.501 467.749 329.688 468.512 329.688 469.376ZM327.368 468.736C327.357 468.16 327.149 467.701 326.744 467.36C326.338 467.008 325.842 466.832 325.256 466.832C324.701 466.832 324.232 467.003 323.848 467.344C323.474 467.675 323.245 468.139 323.16 468.736H327.368ZM334.715 474.144C333.989 474.144 333.339 474.016 332.763 473.76C332.187 473.493 331.728 473.136 331.387 472.688C331.056 472.24 330.875 471.744 330.843 471.2H333.099C333.141 471.541 333.307 471.824 333.595 472.048C333.893 472.272 334.261 472.384 334.699 472.384C335.125 472.384 335.456 472.299 335.691 472.128C335.936 471.957 336.059 471.739 336.059 471.472C336.059 471.184 335.909 470.971 335.611 470.832C335.323 470.683 334.859 470.523 334.219 470.352C333.557 470.192 333.013 470.027 332.587 469.856C332.171 469.685 331.808 469.424 331.499 469.072C331.2 468.72 331.051 468.245 331.051 467.648C331.051 467.157 331.189 466.709 331.467 466.304C331.755 465.899 332.16 465.579 332.683 465.344C333.216 465.109 333.84 464.992 334.555 464.992C335.611 464.992 336.453 465.259 337.083 465.792C337.712 466.315 338.059 467.024 338.123 467.92H335.979C335.947 467.568 335.797 467.291 335.531 467.088C335.275 466.875 334.928 466.768 334.491 466.768C334.085 466.768 333.771 466.843 333.547 466.992C333.333 467.141 333.227 467.349 333.227 467.616C333.227 467.915 333.376 468.144 333.675 468.304C333.973 468.453 334.437 468.608 335.067 468.768C335.707 468.928 336.235 469.093 336.651 469.264C337.067 469.435 337.424 469.701 337.723 470.064C338.032 470.416 338.192 470.885 338.203 471.472C338.203 471.984 338.059 472.443 337.771 472.848C337.493 473.253 337.088 473.573 336.555 473.808C336.032 474.032 335.419 474.144 334.715 474.144ZM348.282 469.376C348.282 469.696 348.26 469.984 348.218 470.24H341.738C341.791 470.88 342.015 471.381 342.41 471.744C342.804 472.107 343.29 472.288 343.866 472.288C344.698 472.288 345.29 471.931 345.642 471.216H348.058C347.802 472.069 347.311 472.773 346.586 473.328C345.86 473.872 344.97 474.144 343.914 474.144C343.06 474.144 342.292 473.957 341.61 473.584C340.938 473.2 340.41 472.661 340.026 471.968C339.652 471.275 339.465 470.475 339.465 469.568C339.465 468.651 339.652 467.845 340.026 467.152C340.399 466.459 340.922 465.925 341.594 465.552C342.266 465.179 343.039 464.992 343.914 464.992C344.756 464.992 345.508 465.173 346.17 465.536C346.842 465.899 347.359 466.416 347.722 467.088C348.095 467.749 348.282 468.512 348.282 469.376ZM345.962 468.736C345.951 468.16 345.743 467.701 345.338 467.36C344.932 467.008 344.436 466.832 343.85 466.832C343.295 466.832 342.826 467.003 342.442 467.344C342.068 467.675 341.839 468.139 341.754 468.736H345.962ZM352.525 466.976V471.264C352.525 471.563 352.594 471.781 352.733 471.92C352.882 472.048 353.127 472.112 353.469 472.112H354.509V474H353.101C351.213 474 350.269 473.083 350.269 471.248V466.976H349.213V465.136H350.269V462.944H352.525V465.136H354.509V466.976H352.525ZM361.068 464.08C360.673 464.08 360.343 463.957 360.076 463.712C359.82 463.456 359.692 463.141 359.692 462.768C359.692 462.395 359.82 462.085 360.076 461.84C360.343 461.584 360.673 461.456 361.068 461.456C361.463 461.456 361.788 461.584 362.044 461.84C362.311 462.085 362.444 462.395 362.444 462.768C362.444 463.141 362.311 463.456 362.044 463.712C361.788 463.957 361.463 464.08 361.068 464.08ZM362.172 465.136V474H359.932V465.136H362.172ZM366.993 466.976V471.264C366.993 471.563 367.063 471.781 367.201 471.92C367.351 472.048 367.596 472.112 367.937 472.112H368.977V474H367.569C365.681 474 364.737 473.083 364.737 471.248V466.976H363.681V465.136H364.737V462.944H366.993V465.136H368.977V466.976H366.993ZM371.58 474.112C371.175 474.112 370.839 473.989 370.572 473.744C370.316 473.488 370.188 473.173 370.188 472.8C370.188 472.427 370.316 472.117 370.572 471.872C370.839 471.616 371.175 471.488 371.58 471.488C371.975 471.488 372.3 471.616 372.556 471.872C372.812 472.117 372.94 472.427 372.94 472.8C372.94 473.173 372.812 473.488 372.556 473.744C372.3 473.989 371.975 474.112 371.58 474.112Z" fill="white"/>
</svg>
