<svg width="30" height="30" viewBox="0 0 30 30" fill="none" xmlns="http://www.w3.org/2000/svg">
<path d="M9.7813 16.25L15.9063 22.375C16.1563 22.625 16.2763 22.9167 16.2663 23.25C16.2563 23.5833 16.1259 23.875 15.875 24.125C15.625 24.3542 15.3334 24.4742 15 24.485C14.6667 24.4958 14.375 24.3758 14.125 24.125L5.87505 15.875C5.75005 15.75 5.6613 15.6146 5.6088 15.4688C5.5563 15.3229 5.53088 15.1667 5.53255 15C5.53421 14.8333 5.56046 14.6771 5.6113 14.5312C5.66213 14.3854 5.75046 14.25 5.8763 14.125L14.1263 5.875C14.3555 5.64583 14.6421 5.53125 14.9863 5.53125C15.3305 5.53125 15.6271 5.64583 15.8763 5.875C16.1263 6.125 16.2513 6.42208 16.2513 6.76625C16.2513 7.11042 16.1263 7.40708 15.8763 7.65625L9.7813 13.75H23.75C24.1042 13.75 24.4013 13.87 24.6413 14.11C24.8813 14.35 25.0009 14.6467 25 15C24.9992 15.3533 24.8792 15.6504 24.64 15.8913C24.4009 16.1321 24.1042 16.2517 23.75 16.25H9.7813Z" fill="black"/>
</svg>
